%TF.GenerationSoftware,KiCad,Pcbnew,7.0.10-7.0.10~ubuntu22.04.1*%
%TF.CreationDate,2024-09-12T14:25:07+09:00*%
%TF.ProjectId,sbcz80cpm,7362637a-3830-4637-906d-2e6b69636164,rev?*%
%TF.SameCoordinates,Original*%
%TF.FileFunction,Soldermask,Top*%
%TF.FilePolarity,Negative*%
%FSLAX46Y46*%
G04 Gerber Fmt 4.6, Leading zero omitted, Abs format (unit mm)*
G04 Created by KiCad (PCBNEW 7.0.10-7.0.10~ubuntu22.04.1) date 2024-09-12 14:25:07*
%MOMM*%
%LPD*%
G01*
G04 APERTURE LIST*
%ADD10R,1.600000X1.600000*%
%ADD11C,1.600000*%
%ADD12C,1.400000*%
%ADD13O,1.400000X1.400000*%
%ADD14R,1.700000X1.700000*%
%ADD15O,1.700000X1.700000*%
%ADD16C,3.200000*%
%ADD17O,1.600000X1.600000*%
%ADD18O,2.062000X1.362000*%
%ADD19C,1.882000*%
%ADD20R,1.800000X1.800000*%
%ADD21C,1.800000*%
%ADD22C,2.000000*%
%ADD23R,1.350000X1.350000*%
%ADD24O,1.350000X1.350000*%
G04 APERTURE END LIST*
D10*
%TO.C,J6*%
X150495000Y-123715000D03*
D11*
X150495000Y-126255000D03*
X150495000Y-128795000D03*
%TD*%
D12*
%TO.C,R5*%
X69850000Y-74930000D03*
D13*
X69850000Y-67310000D03*
%TD*%
D14*
%TO.C,J1*%
X121285000Y-81915000D03*
D15*
X121285000Y-79375000D03*
X121285000Y-76835000D03*
X121285000Y-74295000D03*
X121285000Y-71755000D03*
X121285000Y-69215000D03*
%TD*%
D11*
%TO.C,C4*%
X146685000Y-126325000D03*
X146685000Y-121325000D03*
%TD*%
%TO.C,C3*%
X118110000Y-103505000D03*
X118110000Y-108505000D03*
%TD*%
D14*
%TO.C,J8*%
X92710000Y-157480000D03*
D15*
X92710000Y-154940000D03*
X95250000Y-157480000D03*
X95250000Y-154940000D03*
X97790000Y-157480000D03*
X97790000Y-154940000D03*
X100330000Y-157480000D03*
X100330000Y-154940000D03*
X102870000Y-157480000D03*
X102870000Y-154940000D03*
X105410000Y-157480000D03*
X105410000Y-154940000D03*
X107950000Y-157480000D03*
X107950000Y-154940000D03*
X110490000Y-157480000D03*
X110490000Y-154940000D03*
X113030000Y-157480000D03*
X113030000Y-154940000D03*
X115570000Y-157480000D03*
X115570000Y-154940000D03*
X118110000Y-157480000D03*
X118110000Y-154940000D03*
X120650000Y-157480000D03*
X120650000Y-154940000D03*
X123190000Y-157480000D03*
X123190000Y-154940000D03*
%TD*%
D16*
%TO.C,H6*%
X152000000Y-91000000D03*
%TD*%
D12*
%TO.C,R1*%
X71120000Y-154905000D03*
D13*
X78740000Y-154905000D03*
%TD*%
D11*
%TO.C,C1*%
X149225000Y-134065000D03*
X149225000Y-139065000D03*
%TD*%
D10*
%TO.C,RN2*%
X63500000Y-103505000D03*
D17*
X63500000Y-106045000D03*
X63500000Y-108585000D03*
X63500000Y-111125000D03*
X63500000Y-113665000D03*
%TD*%
D14*
%TO.C,J2*%
X139065000Y-69215000D03*
D15*
X139065000Y-71755000D03*
X139065000Y-74295000D03*
X139065000Y-76835000D03*
X139065000Y-79375000D03*
X139065000Y-81915000D03*
%TD*%
D10*
%TO.C,U1*%
X71120000Y-103470000D03*
D17*
X71120000Y-106010000D03*
X71120000Y-108550000D03*
X71120000Y-111090000D03*
X71120000Y-113630000D03*
X71120000Y-116170000D03*
X71120000Y-118710000D03*
X71120000Y-121250000D03*
X71120000Y-123790000D03*
X71120000Y-126330000D03*
X71120000Y-128870000D03*
X71120000Y-131410000D03*
X71120000Y-133950000D03*
X71120000Y-136490000D03*
X71120000Y-139030000D03*
X71120000Y-141570000D03*
X71120000Y-144110000D03*
X71120000Y-146650000D03*
X71120000Y-149190000D03*
X71120000Y-151730000D03*
X86360000Y-151730000D03*
X86360000Y-149190000D03*
X86360000Y-146650000D03*
X86360000Y-144110000D03*
X86360000Y-141570000D03*
X86360000Y-139030000D03*
X86360000Y-136490000D03*
X86360000Y-133950000D03*
X86360000Y-131410000D03*
X86360000Y-128870000D03*
X86360000Y-126330000D03*
X86360000Y-123790000D03*
X86360000Y-121250000D03*
X86360000Y-118710000D03*
X86360000Y-116170000D03*
X86360000Y-113630000D03*
X86360000Y-111090000D03*
X86360000Y-108550000D03*
X86360000Y-106010000D03*
X86360000Y-103470000D03*
%TD*%
D10*
%TO.C,C10*%
X73025000Y-83820000D03*
D11*
X68025000Y-83820000D03*
%TD*%
D14*
%TO.C,J7*%
X150565000Y-70485000D03*
D15*
X150565000Y-73025000D03*
X150565000Y-75565000D03*
X150565000Y-78105000D03*
X150565000Y-80645000D03*
X150565000Y-83185000D03*
%TD*%
D11*
%TO.C,C2*%
X118110000Y-98425000D03*
X118110000Y-93425000D03*
%TD*%
D14*
%TO.C,J3*%
X150495000Y-111135000D03*
D15*
X150495000Y-113675000D03*
X150495000Y-116215000D03*
X150495000Y-118755000D03*
%TD*%
D16*
%TO.C,H5*%
X62865000Y-91000000D03*
%TD*%
D10*
%TO.C,U4*%
X99690000Y-103505000D03*
D17*
X99690000Y-106045000D03*
X99690000Y-108585000D03*
X99690000Y-111125000D03*
X99690000Y-113665000D03*
X99690000Y-116205000D03*
X99690000Y-118745000D03*
X99690000Y-121285000D03*
X99690000Y-123825000D03*
X99690000Y-126365000D03*
X99690000Y-128905000D03*
X99690000Y-131445000D03*
X99690000Y-133985000D03*
X99690000Y-136525000D03*
X99690000Y-139065000D03*
X99690000Y-141605000D03*
X114930000Y-141605000D03*
X114930000Y-139065000D03*
X114930000Y-136525000D03*
X114930000Y-133985000D03*
X114930000Y-131445000D03*
X114930000Y-128905000D03*
X114930000Y-126365000D03*
X114930000Y-123825000D03*
X114930000Y-121285000D03*
X114930000Y-118745000D03*
X114930000Y-116205000D03*
X114930000Y-113665000D03*
X114930000Y-111125000D03*
X114930000Y-108585000D03*
X114930000Y-106045000D03*
X114930000Y-103505000D03*
%TD*%
D18*
%TO.C,J5*%
X62430000Y-80055000D03*
X62430000Y-71425000D03*
D19*
X66230000Y-73935000D03*
X66230000Y-77535000D03*
%TD*%
D10*
%TO.C,RN1*%
X67310000Y-149190000D03*
D17*
X67310000Y-146650000D03*
X67310000Y-144110000D03*
X67310000Y-141570000D03*
X67310000Y-139030000D03*
%TD*%
D16*
%TO.C,H1*%
X63000000Y-63000000D03*
%TD*%
D12*
%TO.C,R2*%
X146685000Y-131445000D03*
D13*
X146685000Y-139065000D03*
%TD*%
D11*
%TO.C,C6*%
X125095000Y-113705000D03*
X125095000Y-118705000D03*
%TD*%
D16*
%TO.C,H2*%
X152000000Y-63000000D03*
%TD*%
D20*
%TO.C,D1*%
X69850000Y-62230000D03*
D21*
X69850000Y-64770000D03*
%TD*%
D22*
%TO.C,SW1*%
X146685000Y-148630000D03*
X146685000Y-142130000D03*
X151185000Y-148630000D03*
X151185000Y-142130000D03*
%TD*%
D11*
%TO.C,C9*%
X142240000Y-76915000D03*
X142240000Y-81915000D03*
%TD*%
D10*
%TO.C,U3*%
X128270000Y-103505000D03*
D17*
X128270000Y-106045000D03*
X128270000Y-108585000D03*
X128270000Y-111125000D03*
X128270000Y-113665000D03*
X128270000Y-116205000D03*
X128270000Y-118745000D03*
X128270000Y-121285000D03*
X128270000Y-123825000D03*
X128270000Y-126365000D03*
X128270000Y-128905000D03*
X128270000Y-131445000D03*
X128270000Y-133985000D03*
X128270000Y-136525000D03*
X128270000Y-139065000D03*
X128270000Y-141605000D03*
X128270000Y-144145000D03*
X128270000Y-146685000D03*
X128270000Y-149225000D03*
X128270000Y-151765000D03*
X143510000Y-151765000D03*
X143510000Y-149225000D03*
X143510000Y-146685000D03*
X143510000Y-144145000D03*
X143510000Y-141605000D03*
X143510000Y-139065000D03*
X143510000Y-136525000D03*
X143510000Y-133985000D03*
X143510000Y-131445000D03*
X143510000Y-128905000D03*
X143510000Y-126365000D03*
X143510000Y-123825000D03*
X143510000Y-121285000D03*
X143510000Y-118745000D03*
X143510000Y-116205000D03*
X143510000Y-113665000D03*
X143510000Y-111125000D03*
X143510000Y-108585000D03*
X143510000Y-106045000D03*
X143510000Y-103505000D03*
%TD*%
D12*
%TO.C,R4*%
X135890000Y-76835000D03*
D13*
X128270000Y-76835000D03*
%TD*%
D10*
%TO.C,X1*%
X82550000Y-90770000D03*
D11*
X74930000Y-90770000D03*
X74930000Y-98390000D03*
X82550000Y-98390000D03*
%TD*%
D23*
%TO.C,J4*%
X150495000Y-99410000D03*
D24*
X150495000Y-101410000D03*
X150495000Y-103410000D03*
X150495000Y-105410000D03*
%TD*%
D12*
%TO.C,R3*%
X135890000Y-74295000D03*
D13*
X128270000Y-74295000D03*
%TD*%
D11*
%TO.C,C7*%
X67310000Y-128905000D03*
X67310000Y-133905000D03*
%TD*%
%TO.C,C8*%
X124460000Y-76875000D03*
X124460000Y-81875000D03*
%TD*%
D10*
%TO.C,RN3*%
X67310000Y-103470000D03*
D17*
X67310000Y-106010000D03*
X67310000Y-108550000D03*
X67310000Y-111090000D03*
X67310000Y-113630000D03*
X67310000Y-116170000D03*
X67310000Y-118710000D03*
X67310000Y-121250000D03*
X67310000Y-123790000D03*
%TD*%
D11*
%TO.C,C5*%
X125095000Y-144145000D03*
X125095000Y-149145000D03*
%TD*%
D16*
%TO.C,H3*%
X63000000Y-157000000D03*
%TD*%
%TO.C,H4*%
X152000000Y-157000000D03*
%TD*%
D10*
%TO.C,U2*%
X114935000Y-90770000D03*
D17*
X112395000Y-90770000D03*
X109855000Y-90770000D03*
X107315000Y-90770000D03*
X104775000Y-90770000D03*
X102235000Y-90770000D03*
X99695000Y-90770000D03*
X99695000Y-98390000D03*
X102235000Y-98390000D03*
X104775000Y-98390000D03*
X107315000Y-98390000D03*
X109855000Y-98390000D03*
X112395000Y-98390000D03*
X114935000Y-98390000D03*
%TD*%
M02*
