M48
; DRILL file {KiCad 7.0.10-7.0.10~ubuntu22.04.1} date 2024年09月12日 14時25分09秒
; FORMAT={-:-/ absolute / metric / decimal}
; #@! TF.CreationDate,2024-09-12T14:25:09+09:00
; #@! TF.GenerationSoftware,Kicad,Pcbnew,7.0.10-7.0.10~ubuntu22.04.1
; #@! TF.FileFunction,MixedPlating,1,2
FMAT,2
METRIC
; #@! TA.AperFunction,Plated,PTH,ViaDrill
T1C0.400
; #@! TA.AperFunction,Plated,PTH,ComponentDrill
T2C0.600
; #@! TA.AperFunction,Plated,PTH,ComponentDrill
T3C0.700
; #@! TA.AperFunction,Plated,PTH,ComponentDrill
T4C0.800
; #@! TA.AperFunction,Plated,PTH,ComponentDrill
T5C0.900
; #@! TA.AperFunction,Plated,PTH,ComponentDrill
T6C1.000
; #@! TA.AperFunction,Plated,PTH,ComponentDrill
T7C1.100
; #@! TA.AperFunction,Plated,PTH,ComponentDrill
T8C1.120
; #@! TA.AperFunction,NonPlated,NPTH,ComponentDrill
T9C3.200
%
G90
G05
T1
X84.455Y-112.395
X88.265Y-135.255
X88.9Y-99.06
X89.535Y-136.525
X89.852Y-130.175
X90.17Y-109.855
X90.805Y-120.015
X90.805Y-139.065
X91.44Y-117.475
X92.075Y-104.775
X92.075Y-142.875
X93.345Y-111.125
X93.345Y-140.335
X93.98Y-123.1
X93.98Y-137.795
X94.615Y-111.125
X94.615Y-127.0
X94.615Y-135.255
X95.885Y-132.715
X109.22Y-102.87
X109.22Y-104.775
X114.3Y-144.145
X115.57Y-146.685
X116.84Y-128.905
X116.84Y-141.605
X117.475Y-123.825
X117.565Y-137.795
X118.11Y-139.065
X118.11Y-147.955
X118.2Y-132.08
X118.2Y-135.255
X118.745Y-121.285
X118.745Y-126.365
X118.745Y-140.335
X118.745Y-145.415
X119.38Y-133.985
X119.38Y-149.225
X120.105Y-131.445
X120.65Y-150.495
X133.35Y-100.965
X133.985Y-102.87
X134.62Y-106.045
X135.255Y-107.315
X135.345Y-109.22
T3
X69.85Y-67.31
X69.85Y-74.93
X71.12Y-154.905
X78.74Y-154.905
X128.27Y-74.295
X128.27Y-76.835
X135.89Y-74.295
X135.89Y-76.835
X146.685Y-131.445
X146.685Y-139.065
T4
X63.5Y-103.505
X63.5Y-106.045
X63.5Y-108.585
X63.5Y-111.125
X63.5Y-113.665
X67.31Y-103.47
X67.31Y-106.01
X67.31Y-108.55
X67.31Y-111.09
X67.31Y-113.63
X67.31Y-116.17
X67.31Y-118.71
X67.31Y-121.25
X67.31Y-123.79
X67.31Y-128.905
X67.31Y-133.905
X67.31Y-139.03
X67.31Y-141.57
X67.31Y-144.11
X67.31Y-146.65
X67.31Y-149.19
X68.025Y-83.82
X71.12Y-103.47
X71.12Y-106.01
X71.12Y-108.55
X71.12Y-111.09
X71.12Y-113.63
X71.12Y-116.17
X71.12Y-118.71
X71.12Y-121.25
X71.12Y-123.79
X71.12Y-126.33
X71.12Y-128.87
X71.12Y-131.41
X71.12Y-133.95
X71.12Y-136.49
X71.12Y-139.03
X71.12Y-141.57
X71.12Y-144.11
X71.12Y-146.65
X71.12Y-149.19
X71.12Y-151.73
X73.025Y-83.82
X74.93Y-90.77
X74.93Y-98.39
X82.55Y-90.77
X82.55Y-98.39
X86.36Y-103.47
X86.36Y-106.01
X86.36Y-108.55
X86.36Y-111.09
X86.36Y-113.63
X86.36Y-116.17
X86.36Y-118.71
X86.36Y-121.25
X86.36Y-123.79
X86.36Y-126.33
X86.36Y-128.87
X86.36Y-131.41
X86.36Y-133.95
X86.36Y-136.49
X86.36Y-139.03
X86.36Y-141.57
X86.36Y-144.11
X86.36Y-146.65
X86.36Y-149.19
X86.36Y-151.73
X99.69Y-103.505
X99.69Y-106.045
X99.69Y-108.585
X99.69Y-111.125
X99.69Y-113.665
X99.69Y-116.205
X99.69Y-118.745
X99.69Y-121.285
X99.69Y-123.825
X99.69Y-126.365
X99.69Y-128.905
X99.69Y-131.445
X99.69Y-133.985
X99.69Y-136.525
X99.69Y-139.065
X99.69Y-141.605
X99.695Y-90.77
X99.695Y-98.39
X102.235Y-90.77
X102.235Y-98.39
X104.775Y-90.77
X104.775Y-98.39
X107.315Y-90.77
X107.315Y-98.39
X109.855Y-90.77
X109.855Y-98.39
X112.395Y-90.77
X112.395Y-98.39
X114.93Y-103.505
X114.93Y-106.045
X114.93Y-108.585
X114.93Y-111.125
X114.93Y-113.665
X114.93Y-116.205
X114.93Y-118.745
X114.93Y-121.285
X114.93Y-123.825
X114.93Y-126.365
X114.93Y-128.905
X114.93Y-131.445
X114.93Y-133.985
X114.93Y-136.525
X114.93Y-139.065
X114.93Y-141.605
X114.935Y-90.77
X114.935Y-98.39
X118.11Y-93.425
X118.11Y-98.425
X118.11Y-103.505
X118.11Y-108.505
X124.46Y-76.875
X124.46Y-81.875
X125.095Y-113.705
X125.095Y-118.705
X125.095Y-144.145
X125.095Y-149.145
X128.27Y-103.505
X128.27Y-106.045
X128.27Y-108.585
X128.27Y-111.125
X128.27Y-113.665
X128.27Y-116.205
X128.27Y-118.745
X128.27Y-121.285
X128.27Y-123.825
X128.27Y-126.365
X128.27Y-128.905
X128.27Y-131.445
X128.27Y-133.985
X128.27Y-136.525
X128.27Y-139.065
X128.27Y-141.605
X128.27Y-144.145
X128.27Y-146.685
X128.27Y-149.225
X128.27Y-151.765
X142.24Y-76.915
X142.24Y-81.915
X143.51Y-103.505
X143.51Y-106.045
X143.51Y-108.585
X143.51Y-111.125
X143.51Y-113.665
X143.51Y-116.205
X143.51Y-118.745
X143.51Y-121.285
X143.51Y-123.825
X143.51Y-126.365
X143.51Y-128.905
X143.51Y-131.445
X143.51Y-133.985
X143.51Y-136.525
X143.51Y-139.065
X143.51Y-141.605
X143.51Y-144.145
X143.51Y-146.685
X143.51Y-149.225
X143.51Y-151.765
X146.685Y-121.325
X146.685Y-126.325
X149.225Y-134.065
X149.225Y-139.065
X150.495Y-99.41
X150.495Y-101.41
X150.495Y-103.41
X150.495Y-105.41
X150.495Y-123.715
X150.495Y-126.255
X150.495Y-128.795
T5
X69.85Y-62.23
X69.85Y-64.77
T6
X92.71Y-154.94
X92.71Y-157.48
X95.25Y-154.94
X95.25Y-157.48
X97.79Y-154.94
X97.79Y-157.48
X100.33Y-154.94
X100.33Y-157.48
X102.87Y-154.94
X102.87Y-157.48
X105.41Y-154.94
X105.41Y-157.48
X107.95Y-154.94
X107.95Y-157.48
X110.49Y-154.94
X110.49Y-157.48
X113.03Y-154.94
X113.03Y-157.48
X115.57Y-154.94
X115.57Y-157.48
X118.11Y-154.94
X118.11Y-157.48
X120.65Y-154.94
X120.65Y-157.48
X121.285Y-69.215
X121.285Y-71.755
X121.285Y-74.295
X121.285Y-76.835
X121.285Y-79.375
X121.285Y-81.915
X123.19Y-154.94
X123.19Y-157.48
X139.065Y-69.215
X139.065Y-71.755
X139.065Y-74.295
X139.065Y-76.835
X139.065Y-79.375
X139.065Y-81.915
X150.495Y-111.135
X150.495Y-113.675
X150.495Y-116.215
X150.495Y-118.755
X150.565Y-70.485
X150.565Y-73.025
X150.565Y-75.565
X150.565Y-78.105
X150.565Y-80.645
X150.565Y-83.185
T7
X146.685Y-142.13
X146.685Y-148.63
X151.185Y-142.13
X151.185Y-148.63
T8
X66.23Y-73.935
X66.23Y-77.535
T9
X62.865Y-91.0
X63.0Y-63.0
X63.0Y-157.0
X152.0Y-63.0
X152.0Y-91.0
X152.0Y-157.0
T2
G00X62.08Y-71.425
M15
G01X62.78Y-71.425
M16
G05
G00X62.08Y-80.055
M15
G01X62.78Y-80.055
M16
G05
M30
