%TF.GenerationSoftware,KiCad,Pcbnew,7.0.10-7.0.10~ubuntu22.04.1*%
%TF.CreationDate,2024-09-12T14:25:07+09:00*%
%TF.ProjectId,sbcz80cpm,7362637a-3830-4637-906d-2e6b69636164,rev?*%
%TF.SameCoordinates,Original*%
%TF.FileFunction,Legend,Bot*%
%TF.FilePolarity,Positive*%
%FSLAX46Y46*%
G04 Gerber Fmt 4.6, Leading zero omitted, Abs format (unit mm)*
G04 Created by KiCad (PCBNEW 7.0.10-7.0.10~ubuntu22.04.1) date 2024-09-12 14:25:07*
%MOMM*%
%LPD*%
G01*
G04 APERTURE LIST*
%ADD10C,0.150000*%
%ADD11C,0.200000*%
%ADD12C,0.120000*%
G04 APERTURE END LIST*
D10*
X148253220Y-73734819D02*
X148253220Y-72734819D01*
X148253220Y-72734819D02*
X147681792Y-73734819D01*
X147681792Y-73734819D02*
X147681792Y-72734819D01*
X146634173Y-73639580D02*
X146681792Y-73687200D01*
X146681792Y-73687200D02*
X146824649Y-73734819D01*
X146824649Y-73734819D02*
X146919887Y-73734819D01*
X146919887Y-73734819D02*
X147062744Y-73687200D01*
X147062744Y-73687200D02*
X147157982Y-73591961D01*
X147157982Y-73591961D02*
X147205601Y-73496723D01*
X147205601Y-73496723D02*
X147253220Y-73306247D01*
X147253220Y-73306247D02*
X147253220Y-73163390D01*
X147253220Y-73163390D02*
X147205601Y-72972914D01*
X147205601Y-72972914D02*
X147157982Y-72877676D01*
X147157982Y-72877676D02*
X147062744Y-72782438D01*
X147062744Y-72782438D02*
X146919887Y-72734819D01*
X146919887Y-72734819D02*
X146824649Y-72734819D01*
X146824649Y-72734819D02*
X146681792Y-72782438D01*
X146681792Y-72782438D02*
X146634173Y-72830057D01*
X148396077Y-74344819D02*
X147824649Y-74344819D01*
X148110363Y-75344819D02*
X148110363Y-74344819D01*
X147586553Y-74344819D02*
X146919887Y-75344819D01*
X146919887Y-74344819D02*
X147586553Y-75344819D01*
X146538934Y-75344819D02*
X146538934Y-74344819D01*
X146538934Y-74344819D02*
X146300839Y-74344819D01*
X146300839Y-74344819D02*
X146157982Y-74392438D01*
X146157982Y-74392438D02*
X146062744Y-74487676D01*
X146062744Y-74487676D02*
X146015125Y-74582914D01*
X146015125Y-74582914D02*
X145967506Y-74773390D01*
X145967506Y-74773390D02*
X145967506Y-74916247D01*
X145967506Y-74916247D02*
X146015125Y-75106723D01*
X146015125Y-75106723D02*
X146062744Y-75201961D01*
X146062744Y-75201961D02*
X146157982Y-75297200D01*
X146157982Y-75297200D02*
X146300839Y-75344819D01*
X146300839Y-75344819D02*
X146538934Y-75344819D01*
X147681792Y-76954819D02*
X148015125Y-76478628D01*
X148253220Y-76954819D02*
X148253220Y-75954819D01*
X148253220Y-75954819D02*
X147872268Y-75954819D01*
X147872268Y-75954819D02*
X147777030Y-76002438D01*
X147777030Y-76002438D02*
X147729411Y-76050057D01*
X147729411Y-76050057D02*
X147681792Y-76145295D01*
X147681792Y-76145295D02*
X147681792Y-76288152D01*
X147681792Y-76288152D02*
X147729411Y-76383390D01*
X147729411Y-76383390D02*
X147777030Y-76431009D01*
X147777030Y-76431009D02*
X147872268Y-76478628D01*
X147872268Y-76478628D02*
X148253220Y-76478628D01*
X147348458Y-75954819D02*
X146681792Y-76954819D01*
X146681792Y-75954819D02*
X147348458Y-76954819D01*
X146300839Y-76954819D02*
X146300839Y-75954819D01*
X146300839Y-75954819D02*
X146062744Y-75954819D01*
X146062744Y-75954819D02*
X145919887Y-76002438D01*
X145919887Y-76002438D02*
X145824649Y-76097676D01*
X145824649Y-76097676D02*
X145777030Y-76192914D01*
X145777030Y-76192914D02*
X145729411Y-76383390D01*
X145729411Y-76383390D02*
X145729411Y-76526247D01*
X145729411Y-76526247D02*
X145777030Y-76716723D01*
X145777030Y-76716723D02*
X145824649Y-76811961D01*
X145824649Y-76811961D02*
X145919887Y-76907200D01*
X145919887Y-76907200D02*
X146062744Y-76954819D01*
X146062744Y-76954819D02*
X146300839Y-76954819D01*
X148396077Y-77564819D02*
X148062744Y-78564819D01*
X148062744Y-78564819D02*
X147729411Y-77564819D01*
X146824649Y-78469580D02*
X146872268Y-78517200D01*
X146872268Y-78517200D02*
X147015125Y-78564819D01*
X147015125Y-78564819D02*
X147110363Y-78564819D01*
X147110363Y-78564819D02*
X147253220Y-78517200D01*
X147253220Y-78517200D02*
X147348458Y-78421961D01*
X147348458Y-78421961D02*
X147396077Y-78326723D01*
X147396077Y-78326723D02*
X147443696Y-78136247D01*
X147443696Y-78136247D02*
X147443696Y-77993390D01*
X147443696Y-77993390D02*
X147396077Y-77802914D01*
X147396077Y-77802914D02*
X147348458Y-77707676D01*
X147348458Y-77707676D02*
X147253220Y-77612438D01*
X147253220Y-77612438D02*
X147110363Y-77564819D01*
X147110363Y-77564819D02*
X147015125Y-77564819D01*
X147015125Y-77564819D02*
X146872268Y-77612438D01*
X146872268Y-77612438D02*
X146824649Y-77660057D01*
X145824649Y-78469580D02*
X145872268Y-78517200D01*
X145872268Y-78517200D02*
X146015125Y-78564819D01*
X146015125Y-78564819D02*
X146110363Y-78564819D01*
X146110363Y-78564819D02*
X146253220Y-78517200D01*
X146253220Y-78517200D02*
X146348458Y-78421961D01*
X146348458Y-78421961D02*
X146396077Y-78326723D01*
X146396077Y-78326723D02*
X146443696Y-78136247D01*
X146443696Y-78136247D02*
X146443696Y-77993390D01*
X146443696Y-77993390D02*
X146396077Y-77802914D01*
X146396077Y-77802914D02*
X146348458Y-77707676D01*
X146348458Y-77707676D02*
X146253220Y-77612438D01*
X146253220Y-77612438D02*
X146110363Y-77564819D01*
X146110363Y-77564819D02*
X146015125Y-77564819D01*
X146015125Y-77564819D02*
X145872268Y-77612438D01*
X145872268Y-77612438D02*
X145824649Y-77660057D01*
X148253220Y-80174819D02*
X148253220Y-79174819D01*
X148253220Y-79174819D02*
X147681792Y-80174819D01*
X147681792Y-80174819D02*
X147681792Y-79174819D01*
X146634173Y-80079580D02*
X146681792Y-80127200D01*
X146681792Y-80127200D02*
X146824649Y-80174819D01*
X146824649Y-80174819D02*
X146919887Y-80174819D01*
X146919887Y-80174819D02*
X147062744Y-80127200D01*
X147062744Y-80127200D02*
X147157982Y-80031961D01*
X147157982Y-80031961D02*
X147205601Y-79936723D01*
X147205601Y-79936723D02*
X147253220Y-79746247D01*
X147253220Y-79746247D02*
X147253220Y-79603390D01*
X147253220Y-79603390D02*
X147205601Y-79412914D01*
X147205601Y-79412914D02*
X147157982Y-79317676D01*
X147157982Y-79317676D02*
X147062744Y-79222438D01*
X147062744Y-79222438D02*
X146919887Y-79174819D01*
X146919887Y-79174819D02*
X146824649Y-79174819D01*
X146824649Y-79174819D02*
X146681792Y-79222438D01*
X146681792Y-79222438D02*
X146634173Y-79270057D01*
X147729411Y-80832438D02*
X147824649Y-80784819D01*
X147824649Y-80784819D02*
X147967506Y-80784819D01*
X147967506Y-80784819D02*
X148110363Y-80832438D01*
X148110363Y-80832438D02*
X148205601Y-80927676D01*
X148205601Y-80927676D02*
X148253220Y-81022914D01*
X148253220Y-81022914D02*
X148300839Y-81213390D01*
X148300839Y-81213390D02*
X148300839Y-81356247D01*
X148300839Y-81356247D02*
X148253220Y-81546723D01*
X148253220Y-81546723D02*
X148205601Y-81641961D01*
X148205601Y-81641961D02*
X148110363Y-81737200D01*
X148110363Y-81737200D02*
X147967506Y-81784819D01*
X147967506Y-81784819D02*
X147872268Y-81784819D01*
X147872268Y-81784819D02*
X147729411Y-81737200D01*
X147729411Y-81737200D02*
X147681792Y-81689580D01*
X147681792Y-81689580D02*
X147681792Y-81356247D01*
X147681792Y-81356247D02*
X147872268Y-81356247D01*
X147253220Y-81784819D02*
X147253220Y-80784819D01*
X147253220Y-80784819D02*
X146681792Y-81784819D01*
X146681792Y-81784819D02*
X146681792Y-80784819D01*
X146205601Y-81784819D02*
X146205601Y-80784819D01*
X146205601Y-80784819D02*
X145967506Y-80784819D01*
X145967506Y-80784819D02*
X145824649Y-80832438D01*
X145824649Y-80832438D02*
X145729411Y-80927676D01*
X145729411Y-80927676D02*
X145681792Y-81022914D01*
X145681792Y-81022914D02*
X145634173Y-81213390D01*
X145634173Y-81213390D02*
X145634173Y-81356247D01*
X145634173Y-81356247D02*
X145681792Y-81546723D01*
X145681792Y-81546723D02*
X145729411Y-81641961D01*
X145729411Y-81641961D02*
X145824649Y-81737200D01*
X145824649Y-81737200D02*
X145967506Y-81784819D01*
X145967506Y-81784819D02*
X146205601Y-81784819D01*
D11*
G36*
X136690326Y-70411028D02*
G01*
X136432981Y-70411028D01*
X136373371Y-70381223D01*
X136348703Y-70356554D01*
X136318898Y-70296944D01*
X136318898Y-70201302D01*
X136348703Y-70141692D01*
X136373371Y-70117023D01*
X136432981Y-70087219D01*
X136690326Y-70087219D01*
X136690326Y-70411028D01*
G37*
G36*
X137033183Y-71464446D02*
G01*
X131028554Y-71464446D01*
X131028554Y-70018121D01*
X131171411Y-70018121D01*
X131207738Y-70068121D01*
X131266517Y-70087219D01*
X131642707Y-70087219D01*
X131642707Y-70363409D01*
X131409374Y-70363409D01*
X131350595Y-70382507D01*
X131314268Y-70432507D01*
X131314268Y-70494311D01*
X131350595Y-70544311D01*
X131409374Y-70563409D01*
X131642707Y-70563409D01*
X131642707Y-70987219D01*
X131661805Y-71045998D01*
X131711805Y-71082325D01*
X131773609Y-71082325D01*
X131823609Y-71045998D01*
X131842707Y-70987219D01*
X131842707Y-69987219D01*
X131837813Y-69972156D01*
X131837813Y-69956317D01*
X131828503Y-69943503D01*
X131825925Y-69935569D01*
X131976122Y-69935569D01*
X131992836Y-69995070D01*
X132849978Y-71280784D01*
X132898473Y-71319098D01*
X132960227Y-71321589D01*
X133011651Y-71287306D01*
X133033103Y-71229345D01*
X133016388Y-71169844D01*
X132894638Y-70987219D01*
X133166516Y-70987219D01*
X133185614Y-71045998D01*
X133235614Y-71082325D01*
X133297418Y-71082325D01*
X133347418Y-71045998D01*
X133366516Y-70987219D01*
X133366516Y-70907622D01*
X134358223Y-70907622D01*
X134386282Y-70962690D01*
X134433900Y-71010310D01*
X134454442Y-71020776D01*
X134472989Y-71034468D01*
X134615846Y-71082087D01*
X134632053Y-71082210D01*
X134647469Y-71087219D01*
X134742707Y-71087219D01*
X134758122Y-71082210D01*
X134774330Y-71082087D01*
X134917186Y-71034468D01*
X134935733Y-71020776D01*
X134956275Y-71010310D01*
X135051513Y-70915071D01*
X135058871Y-70900629D01*
X135070245Y-70889082D01*
X135117864Y-70793845D01*
X135119524Y-70782823D01*
X135125435Y-70773377D01*
X135173054Y-70582901D01*
X135172193Y-70570484D01*
X135176040Y-70558647D01*
X135176040Y-70415790D01*
X135172193Y-70403952D01*
X135173054Y-70391536D01*
X135125435Y-70201060D01*
X135119524Y-70191613D01*
X135117864Y-70180592D01*
X135070245Y-70085355D01*
X135058871Y-70073807D01*
X135051513Y-70059365D01*
X135010269Y-70018121D01*
X135266649Y-70018121D01*
X135302976Y-70068121D01*
X135361755Y-70087219D01*
X135547469Y-70087219D01*
X135547469Y-70987219D01*
X135566567Y-71045998D01*
X135616567Y-71082325D01*
X135678371Y-71082325D01*
X135728371Y-71045998D01*
X135747469Y-70987219D01*
X135747469Y-70320552D01*
X136118898Y-70320552D01*
X136126021Y-70342475D01*
X136129455Y-70365273D01*
X136177074Y-70460511D01*
X136188447Y-70472058D01*
X136195806Y-70486501D01*
X136243425Y-70534119D01*
X136257866Y-70541477D01*
X136269415Y-70552852D01*
X136364652Y-70600471D01*
X136367278Y-70600866D01*
X136136975Y-70929873D01*
X136118913Y-70988978D01*
X136139042Y-71047412D01*
X136189674Y-71082854D01*
X136251468Y-71081767D01*
X136300821Y-71044565D01*
X136604296Y-70611028D01*
X136690326Y-70611028D01*
X136690326Y-70987219D01*
X136709424Y-71045998D01*
X136759424Y-71082325D01*
X136821228Y-71082325D01*
X136871228Y-71045998D01*
X136890326Y-70987219D01*
X136890326Y-69987219D01*
X136885432Y-69972156D01*
X136885432Y-69956317D01*
X136876122Y-69943503D01*
X136871228Y-69928440D01*
X136858414Y-69919130D01*
X136849105Y-69906317D01*
X136834041Y-69901422D01*
X136821228Y-69892113D01*
X136805389Y-69892113D01*
X136790326Y-69887219D01*
X136409374Y-69887219D01*
X136387450Y-69894342D01*
X136364652Y-69897776D01*
X136269415Y-69945395D01*
X136257866Y-69956769D01*
X136243425Y-69964128D01*
X136195806Y-70011746D01*
X136188447Y-70026188D01*
X136177074Y-70037736D01*
X136129455Y-70132974D01*
X136126021Y-70155771D01*
X136118898Y-70177695D01*
X136118898Y-70320552D01*
X135747469Y-70320552D01*
X135747469Y-70087219D01*
X135933183Y-70087219D01*
X135991962Y-70068121D01*
X136028289Y-70018121D01*
X136028289Y-69956317D01*
X135991962Y-69906317D01*
X135933183Y-69887219D01*
X135361755Y-69887219D01*
X135302976Y-69906317D01*
X135266649Y-69956317D01*
X135266649Y-70018121D01*
X135010269Y-70018121D01*
X134956275Y-69964127D01*
X134935731Y-69953659D01*
X134917186Y-69939970D01*
X134774330Y-69892351D01*
X134758122Y-69892227D01*
X134742707Y-69887219D01*
X134647469Y-69887219D01*
X134632053Y-69892227D01*
X134615846Y-69892351D01*
X134472989Y-69939970D01*
X134454440Y-69953662D01*
X134433901Y-69964128D01*
X134386282Y-70011746D01*
X134358224Y-70066814D01*
X134367892Y-70127856D01*
X134411594Y-70171558D01*
X134472636Y-70181226D01*
X134527704Y-70153168D01*
X134558630Y-70122240D01*
X134663695Y-70087219D01*
X134726480Y-70087219D01*
X134831544Y-70122240D01*
X134898617Y-70189313D01*
X134934069Y-70260218D01*
X134976040Y-70428099D01*
X134976040Y-70546337D01*
X134934069Y-70714218D01*
X134898616Y-70785124D01*
X134831545Y-70852197D01*
X134726480Y-70887219D01*
X134663695Y-70887219D01*
X134558630Y-70852197D01*
X134527704Y-70821270D01*
X134472637Y-70793211D01*
X134411595Y-70802878D01*
X134367892Y-70846580D01*
X134358223Y-70907622D01*
X133366516Y-70907622D01*
X133366516Y-69987219D01*
X133347418Y-69928440D01*
X133297418Y-69892113D01*
X133235614Y-69892113D01*
X133185614Y-69928440D01*
X133166516Y-69987219D01*
X133166516Y-70987219D01*
X132894638Y-70987219D01*
X132159246Y-69884130D01*
X132110751Y-69845817D01*
X132048998Y-69843326D01*
X131997574Y-69877608D01*
X131976122Y-69935569D01*
X131825925Y-69935569D01*
X131823609Y-69928440D01*
X131810795Y-69919130D01*
X131801486Y-69906317D01*
X131786422Y-69901422D01*
X131773609Y-69892113D01*
X131757770Y-69892113D01*
X131742707Y-69887219D01*
X131266517Y-69887219D01*
X131207738Y-69906317D01*
X131171411Y-69956317D01*
X131171411Y-70018121D01*
X131028554Y-70018121D01*
X131028554Y-69700469D01*
X137033183Y-69700469D01*
X137033183Y-71464446D01*
G37*
D10*
X148935839Y-113102200D02*
X148792982Y-113149819D01*
X148792982Y-113149819D02*
X148554887Y-113149819D01*
X148554887Y-113149819D02*
X148459649Y-113102200D01*
X148459649Y-113102200D02*
X148412030Y-113054580D01*
X148412030Y-113054580D02*
X148364411Y-112959342D01*
X148364411Y-112959342D02*
X148364411Y-112864104D01*
X148364411Y-112864104D02*
X148412030Y-112768866D01*
X148412030Y-112768866D02*
X148459649Y-112721247D01*
X148459649Y-112721247D02*
X148554887Y-112673628D01*
X148554887Y-112673628D02*
X148745363Y-112626009D01*
X148745363Y-112626009D02*
X148840601Y-112578390D01*
X148840601Y-112578390D02*
X148888220Y-112530771D01*
X148888220Y-112530771D02*
X148935839Y-112435533D01*
X148935839Y-112435533D02*
X148935839Y-112340295D01*
X148935839Y-112340295D02*
X148888220Y-112245057D01*
X148888220Y-112245057D02*
X148840601Y-112197438D01*
X148840601Y-112197438D02*
X148745363Y-112149819D01*
X148745363Y-112149819D02*
X148507268Y-112149819D01*
X148507268Y-112149819D02*
X148364411Y-112197438D01*
X147364411Y-113054580D02*
X147412030Y-113102200D01*
X147412030Y-113102200D02*
X147554887Y-113149819D01*
X147554887Y-113149819D02*
X147650125Y-113149819D01*
X147650125Y-113149819D02*
X147792982Y-113102200D01*
X147792982Y-113102200D02*
X147888220Y-113006961D01*
X147888220Y-113006961D02*
X147935839Y-112911723D01*
X147935839Y-112911723D02*
X147983458Y-112721247D01*
X147983458Y-112721247D02*
X147983458Y-112578390D01*
X147983458Y-112578390D02*
X147935839Y-112387914D01*
X147935839Y-112387914D02*
X147888220Y-112292676D01*
X147888220Y-112292676D02*
X147792982Y-112197438D01*
X147792982Y-112197438D02*
X147650125Y-112149819D01*
X147650125Y-112149819D02*
X147554887Y-112149819D01*
X147554887Y-112149819D02*
X147412030Y-112197438D01*
X147412030Y-112197438D02*
X147364411Y-112245057D01*
X146459649Y-113149819D02*
X146935839Y-113149819D01*
X146935839Y-113149819D02*
X146935839Y-112149819D01*
X148935839Y-114712200D02*
X148792982Y-114759819D01*
X148792982Y-114759819D02*
X148554887Y-114759819D01*
X148554887Y-114759819D02*
X148459649Y-114712200D01*
X148459649Y-114712200D02*
X148412030Y-114664580D01*
X148412030Y-114664580D02*
X148364411Y-114569342D01*
X148364411Y-114569342D02*
X148364411Y-114474104D01*
X148364411Y-114474104D02*
X148412030Y-114378866D01*
X148412030Y-114378866D02*
X148459649Y-114331247D01*
X148459649Y-114331247D02*
X148554887Y-114283628D01*
X148554887Y-114283628D02*
X148745363Y-114236009D01*
X148745363Y-114236009D02*
X148840601Y-114188390D01*
X148840601Y-114188390D02*
X148888220Y-114140771D01*
X148888220Y-114140771D02*
X148935839Y-114045533D01*
X148935839Y-114045533D02*
X148935839Y-113950295D01*
X148935839Y-113950295D02*
X148888220Y-113855057D01*
X148888220Y-113855057D02*
X148840601Y-113807438D01*
X148840601Y-113807438D02*
X148745363Y-113759819D01*
X148745363Y-113759819D02*
X148507268Y-113759819D01*
X148507268Y-113759819D02*
X148364411Y-113807438D01*
X147935839Y-114759819D02*
X147935839Y-113759819D01*
X147935839Y-113759819D02*
X147697744Y-113759819D01*
X147697744Y-113759819D02*
X147554887Y-113807438D01*
X147554887Y-113807438D02*
X147459649Y-113902676D01*
X147459649Y-113902676D02*
X147412030Y-113997914D01*
X147412030Y-113997914D02*
X147364411Y-114188390D01*
X147364411Y-114188390D02*
X147364411Y-114331247D01*
X147364411Y-114331247D02*
X147412030Y-114521723D01*
X147412030Y-114521723D02*
X147459649Y-114616961D01*
X147459649Y-114616961D02*
X147554887Y-114712200D01*
X147554887Y-114712200D02*
X147697744Y-114759819D01*
X147697744Y-114759819D02*
X147935839Y-114759819D01*
X146983458Y-114474104D02*
X146507268Y-114474104D01*
X147078696Y-114759819D02*
X146745363Y-113759819D01*
X146745363Y-113759819D02*
X146412030Y-114759819D01*
X149031077Y-115369819D02*
X148697744Y-116369819D01*
X148697744Y-116369819D02*
X148364411Y-115369819D01*
X147459649Y-116274580D02*
X147507268Y-116322200D01*
X147507268Y-116322200D02*
X147650125Y-116369819D01*
X147650125Y-116369819D02*
X147745363Y-116369819D01*
X147745363Y-116369819D02*
X147888220Y-116322200D01*
X147888220Y-116322200D02*
X147983458Y-116226961D01*
X147983458Y-116226961D02*
X148031077Y-116131723D01*
X148031077Y-116131723D02*
X148078696Y-115941247D01*
X148078696Y-115941247D02*
X148078696Y-115798390D01*
X148078696Y-115798390D02*
X148031077Y-115607914D01*
X148031077Y-115607914D02*
X147983458Y-115512676D01*
X147983458Y-115512676D02*
X147888220Y-115417438D01*
X147888220Y-115417438D02*
X147745363Y-115369819D01*
X147745363Y-115369819D02*
X147650125Y-115369819D01*
X147650125Y-115369819D02*
X147507268Y-115417438D01*
X147507268Y-115417438D02*
X147459649Y-115465057D01*
X146459649Y-116274580D02*
X146507268Y-116322200D01*
X146507268Y-116322200D02*
X146650125Y-116369819D01*
X146650125Y-116369819D02*
X146745363Y-116369819D01*
X146745363Y-116369819D02*
X146888220Y-116322200D01*
X146888220Y-116322200D02*
X146983458Y-116226961D01*
X146983458Y-116226961D02*
X147031077Y-116131723D01*
X147031077Y-116131723D02*
X147078696Y-115941247D01*
X147078696Y-115941247D02*
X147078696Y-115798390D01*
X147078696Y-115798390D02*
X147031077Y-115607914D01*
X147031077Y-115607914D02*
X146983458Y-115512676D01*
X146983458Y-115512676D02*
X146888220Y-115417438D01*
X146888220Y-115417438D02*
X146745363Y-115369819D01*
X146745363Y-115369819D02*
X146650125Y-115369819D01*
X146650125Y-115369819D02*
X146507268Y-115417438D01*
X146507268Y-115417438D02*
X146459649Y-115465057D01*
X148364411Y-117027438D02*
X148459649Y-116979819D01*
X148459649Y-116979819D02*
X148602506Y-116979819D01*
X148602506Y-116979819D02*
X148745363Y-117027438D01*
X148745363Y-117027438D02*
X148840601Y-117122676D01*
X148840601Y-117122676D02*
X148888220Y-117217914D01*
X148888220Y-117217914D02*
X148935839Y-117408390D01*
X148935839Y-117408390D02*
X148935839Y-117551247D01*
X148935839Y-117551247D02*
X148888220Y-117741723D01*
X148888220Y-117741723D02*
X148840601Y-117836961D01*
X148840601Y-117836961D02*
X148745363Y-117932200D01*
X148745363Y-117932200D02*
X148602506Y-117979819D01*
X148602506Y-117979819D02*
X148507268Y-117979819D01*
X148507268Y-117979819D02*
X148364411Y-117932200D01*
X148364411Y-117932200D02*
X148316792Y-117884580D01*
X148316792Y-117884580D02*
X148316792Y-117551247D01*
X148316792Y-117551247D02*
X148507268Y-117551247D01*
X147888220Y-117979819D02*
X147888220Y-116979819D01*
X147888220Y-116979819D02*
X147316792Y-117979819D01*
X147316792Y-117979819D02*
X147316792Y-116979819D01*
X146840601Y-117979819D02*
X146840601Y-116979819D01*
X146840601Y-116979819D02*
X146602506Y-116979819D01*
X146602506Y-116979819D02*
X146459649Y-117027438D01*
X146459649Y-117027438D02*
X146364411Y-117122676D01*
X146364411Y-117122676D02*
X146316792Y-117217914D01*
X146316792Y-117217914D02*
X146269173Y-117408390D01*
X146269173Y-117408390D02*
X146269173Y-117551247D01*
X146269173Y-117551247D02*
X146316792Y-117741723D01*
X146316792Y-117741723D02*
X146364411Y-117836961D01*
X146364411Y-117836961D02*
X146459649Y-117932200D01*
X146459649Y-117932200D02*
X146602506Y-117979819D01*
X146602506Y-117979819D02*
X146840601Y-117979819D01*
X136823220Y-79449819D02*
X136823220Y-78449819D01*
X136823220Y-78449819D02*
X136251792Y-79449819D01*
X136251792Y-79449819D02*
X136251792Y-78449819D01*
X135204173Y-79354580D02*
X135251792Y-79402200D01*
X135251792Y-79402200D02*
X135394649Y-79449819D01*
X135394649Y-79449819D02*
X135489887Y-79449819D01*
X135489887Y-79449819D02*
X135632744Y-79402200D01*
X135632744Y-79402200D02*
X135727982Y-79306961D01*
X135727982Y-79306961D02*
X135775601Y-79211723D01*
X135775601Y-79211723D02*
X135823220Y-79021247D01*
X135823220Y-79021247D02*
X135823220Y-78878390D01*
X135823220Y-78878390D02*
X135775601Y-78687914D01*
X135775601Y-78687914D02*
X135727982Y-78592676D01*
X135727982Y-78592676D02*
X135632744Y-78497438D01*
X135632744Y-78497438D02*
X135489887Y-78449819D01*
X135489887Y-78449819D02*
X135394649Y-78449819D01*
X135394649Y-78449819D02*
X135251792Y-78497438D01*
X135251792Y-78497438D02*
X135204173Y-78545057D01*
X136823220Y-81059819D02*
X136823220Y-80059819D01*
X136823220Y-80059819D02*
X136251792Y-81059819D01*
X136251792Y-81059819D02*
X136251792Y-80059819D01*
X135204173Y-80964580D02*
X135251792Y-81012200D01*
X135251792Y-81012200D02*
X135394649Y-81059819D01*
X135394649Y-81059819D02*
X135489887Y-81059819D01*
X135489887Y-81059819D02*
X135632744Y-81012200D01*
X135632744Y-81012200D02*
X135727982Y-80916961D01*
X135727982Y-80916961D02*
X135775601Y-80821723D01*
X135775601Y-80821723D02*
X135823220Y-80631247D01*
X135823220Y-80631247D02*
X135823220Y-80488390D01*
X135823220Y-80488390D02*
X135775601Y-80297914D01*
X135775601Y-80297914D02*
X135727982Y-80202676D01*
X135727982Y-80202676D02*
X135632744Y-80107438D01*
X135632744Y-80107438D02*
X135489887Y-80059819D01*
X135489887Y-80059819D02*
X135394649Y-80059819D01*
X135394649Y-80059819D02*
X135251792Y-80107438D01*
X135251792Y-80107438D02*
X135204173Y-80155057D01*
X136870839Y-82622200D02*
X136727982Y-82669819D01*
X136727982Y-82669819D02*
X136489887Y-82669819D01*
X136489887Y-82669819D02*
X136394649Y-82622200D01*
X136394649Y-82622200D02*
X136347030Y-82574580D01*
X136347030Y-82574580D02*
X136299411Y-82479342D01*
X136299411Y-82479342D02*
X136299411Y-82384104D01*
X136299411Y-82384104D02*
X136347030Y-82288866D01*
X136347030Y-82288866D02*
X136394649Y-82241247D01*
X136394649Y-82241247D02*
X136489887Y-82193628D01*
X136489887Y-82193628D02*
X136680363Y-82146009D01*
X136680363Y-82146009D02*
X136775601Y-82098390D01*
X136775601Y-82098390D02*
X136823220Y-82050771D01*
X136823220Y-82050771D02*
X136870839Y-81955533D01*
X136870839Y-81955533D02*
X136870839Y-81860295D01*
X136870839Y-81860295D02*
X136823220Y-81765057D01*
X136823220Y-81765057D02*
X136775601Y-81717438D01*
X136775601Y-81717438D02*
X136680363Y-81669819D01*
X136680363Y-81669819D02*
X136442268Y-81669819D01*
X136442268Y-81669819D02*
X136299411Y-81717438D01*
X135299411Y-82574580D02*
X135347030Y-82622200D01*
X135347030Y-82622200D02*
X135489887Y-82669819D01*
X135489887Y-82669819D02*
X135585125Y-82669819D01*
X135585125Y-82669819D02*
X135727982Y-82622200D01*
X135727982Y-82622200D02*
X135823220Y-82526961D01*
X135823220Y-82526961D02*
X135870839Y-82431723D01*
X135870839Y-82431723D02*
X135918458Y-82241247D01*
X135918458Y-82241247D02*
X135918458Y-82098390D01*
X135918458Y-82098390D02*
X135870839Y-81907914D01*
X135870839Y-81907914D02*
X135823220Y-81812676D01*
X135823220Y-81812676D02*
X135727982Y-81717438D01*
X135727982Y-81717438D02*
X135585125Y-81669819D01*
X135585125Y-81669819D02*
X135489887Y-81669819D01*
X135489887Y-81669819D02*
X135347030Y-81717438D01*
X135347030Y-81717438D02*
X135299411Y-81765057D01*
X134394649Y-82669819D02*
X134870839Y-82669819D01*
X134870839Y-82669819D02*
X134870839Y-81669819D01*
X136870839Y-84232200D02*
X136727982Y-84279819D01*
X136727982Y-84279819D02*
X136489887Y-84279819D01*
X136489887Y-84279819D02*
X136394649Y-84232200D01*
X136394649Y-84232200D02*
X136347030Y-84184580D01*
X136347030Y-84184580D02*
X136299411Y-84089342D01*
X136299411Y-84089342D02*
X136299411Y-83994104D01*
X136299411Y-83994104D02*
X136347030Y-83898866D01*
X136347030Y-83898866D02*
X136394649Y-83851247D01*
X136394649Y-83851247D02*
X136489887Y-83803628D01*
X136489887Y-83803628D02*
X136680363Y-83756009D01*
X136680363Y-83756009D02*
X136775601Y-83708390D01*
X136775601Y-83708390D02*
X136823220Y-83660771D01*
X136823220Y-83660771D02*
X136870839Y-83565533D01*
X136870839Y-83565533D02*
X136870839Y-83470295D01*
X136870839Y-83470295D02*
X136823220Y-83375057D01*
X136823220Y-83375057D02*
X136775601Y-83327438D01*
X136775601Y-83327438D02*
X136680363Y-83279819D01*
X136680363Y-83279819D02*
X136442268Y-83279819D01*
X136442268Y-83279819D02*
X136299411Y-83327438D01*
X135870839Y-84279819D02*
X135870839Y-83279819D01*
X135870839Y-83279819D02*
X135632744Y-83279819D01*
X135632744Y-83279819D02*
X135489887Y-83327438D01*
X135489887Y-83327438D02*
X135394649Y-83422676D01*
X135394649Y-83422676D02*
X135347030Y-83517914D01*
X135347030Y-83517914D02*
X135299411Y-83708390D01*
X135299411Y-83708390D02*
X135299411Y-83851247D01*
X135299411Y-83851247D02*
X135347030Y-84041723D01*
X135347030Y-84041723D02*
X135394649Y-84136961D01*
X135394649Y-84136961D02*
X135489887Y-84232200D01*
X135489887Y-84232200D02*
X135632744Y-84279819D01*
X135632744Y-84279819D02*
X135870839Y-84279819D01*
X134918458Y-83994104D02*
X134442268Y-83994104D01*
X135013696Y-84279819D02*
X134680363Y-83279819D01*
X134680363Y-83279819D02*
X134347030Y-84279819D01*
X136966077Y-84889819D02*
X136632744Y-85889819D01*
X136632744Y-85889819D02*
X136299411Y-84889819D01*
X135394649Y-85794580D02*
X135442268Y-85842200D01*
X135442268Y-85842200D02*
X135585125Y-85889819D01*
X135585125Y-85889819D02*
X135680363Y-85889819D01*
X135680363Y-85889819D02*
X135823220Y-85842200D01*
X135823220Y-85842200D02*
X135918458Y-85746961D01*
X135918458Y-85746961D02*
X135966077Y-85651723D01*
X135966077Y-85651723D02*
X136013696Y-85461247D01*
X136013696Y-85461247D02*
X136013696Y-85318390D01*
X136013696Y-85318390D02*
X135966077Y-85127914D01*
X135966077Y-85127914D02*
X135918458Y-85032676D01*
X135918458Y-85032676D02*
X135823220Y-84937438D01*
X135823220Y-84937438D02*
X135680363Y-84889819D01*
X135680363Y-84889819D02*
X135585125Y-84889819D01*
X135585125Y-84889819D02*
X135442268Y-84937438D01*
X135442268Y-84937438D02*
X135394649Y-84985057D01*
X134394649Y-85794580D02*
X134442268Y-85842200D01*
X134442268Y-85842200D02*
X134585125Y-85889819D01*
X134585125Y-85889819D02*
X134680363Y-85889819D01*
X134680363Y-85889819D02*
X134823220Y-85842200D01*
X134823220Y-85842200D02*
X134918458Y-85746961D01*
X134918458Y-85746961D02*
X134966077Y-85651723D01*
X134966077Y-85651723D02*
X135013696Y-85461247D01*
X135013696Y-85461247D02*
X135013696Y-85318390D01*
X135013696Y-85318390D02*
X134966077Y-85127914D01*
X134966077Y-85127914D02*
X134918458Y-85032676D01*
X134918458Y-85032676D02*
X134823220Y-84937438D01*
X134823220Y-84937438D02*
X134680363Y-84889819D01*
X134680363Y-84889819D02*
X134585125Y-84889819D01*
X134585125Y-84889819D02*
X134442268Y-84937438D01*
X134442268Y-84937438D02*
X134394649Y-84985057D01*
X136299411Y-86547438D02*
X136394649Y-86499819D01*
X136394649Y-86499819D02*
X136537506Y-86499819D01*
X136537506Y-86499819D02*
X136680363Y-86547438D01*
X136680363Y-86547438D02*
X136775601Y-86642676D01*
X136775601Y-86642676D02*
X136823220Y-86737914D01*
X136823220Y-86737914D02*
X136870839Y-86928390D01*
X136870839Y-86928390D02*
X136870839Y-87071247D01*
X136870839Y-87071247D02*
X136823220Y-87261723D01*
X136823220Y-87261723D02*
X136775601Y-87356961D01*
X136775601Y-87356961D02*
X136680363Y-87452200D01*
X136680363Y-87452200D02*
X136537506Y-87499819D01*
X136537506Y-87499819D02*
X136442268Y-87499819D01*
X136442268Y-87499819D02*
X136299411Y-87452200D01*
X136299411Y-87452200D02*
X136251792Y-87404580D01*
X136251792Y-87404580D02*
X136251792Y-87071247D01*
X136251792Y-87071247D02*
X136442268Y-87071247D01*
X135823220Y-87499819D02*
X135823220Y-86499819D01*
X135823220Y-86499819D02*
X135251792Y-87499819D01*
X135251792Y-87499819D02*
X135251792Y-86499819D01*
X134775601Y-87499819D02*
X134775601Y-86499819D01*
X134775601Y-86499819D02*
X134537506Y-86499819D01*
X134537506Y-86499819D02*
X134394649Y-86547438D01*
X134394649Y-86547438D02*
X134299411Y-86642676D01*
X134299411Y-86642676D02*
X134251792Y-86737914D01*
X134251792Y-86737914D02*
X134204173Y-86928390D01*
X134204173Y-86928390D02*
X134204173Y-87071247D01*
X134204173Y-87071247D02*
X134251792Y-87261723D01*
X134251792Y-87261723D02*
X134299411Y-87356961D01*
X134299411Y-87356961D02*
X134394649Y-87452200D01*
X134394649Y-87452200D02*
X134537506Y-87499819D01*
X134537506Y-87499819D02*
X134775601Y-87499819D01*
X148935839Y-100402200D02*
X148792982Y-100449819D01*
X148792982Y-100449819D02*
X148554887Y-100449819D01*
X148554887Y-100449819D02*
X148459649Y-100402200D01*
X148459649Y-100402200D02*
X148412030Y-100354580D01*
X148412030Y-100354580D02*
X148364411Y-100259342D01*
X148364411Y-100259342D02*
X148364411Y-100164104D01*
X148364411Y-100164104D02*
X148412030Y-100068866D01*
X148412030Y-100068866D02*
X148459649Y-100021247D01*
X148459649Y-100021247D02*
X148554887Y-99973628D01*
X148554887Y-99973628D02*
X148745363Y-99926009D01*
X148745363Y-99926009D02*
X148840601Y-99878390D01*
X148840601Y-99878390D02*
X148888220Y-99830771D01*
X148888220Y-99830771D02*
X148935839Y-99735533D01*
X148935839Y-99735533D02*
X148935839Y-99640295D01*
X148935839Y-99640295D02*
X148888220Y-99545057D01*
X148888220Y-99545057D02*
X148840601Y-99497438D01*
X148840601Y-99497438D02*
X148745363Y-99449819D01*
X148745363Y-99449819D02*
X148507268Y-99449819D01*
X148507268Y-99449819D02*
X148364411Y-99497438D01*
X147364411Y-100354580D02*
X147412030Y-100402200D01*
X147412030Y-100402200D02*
X147554887Y-100449819D01*
X147554887Y-100449819D02*
X147650125Y-100449819D01*
X147650125Y-100449819D02*
X147792982Y-100402200D01*
X147792982Y-100402200D02*
X147888220Y-100306961D01*
X147888220Y-100306961D02*
X147935839Y-100211723D01*
X147935839Y-100211723D02*
X147983458Y-100021247D01*
X147983458Y-100021247D02*
X147983458Y-99878390D01*
X147983458Y-99878390D02*
X147935839Y-99687914D01*
X147935839Y-99687914D02*
X147888220Y-99592676D01*
X147888220Y-99592676D02*
X147792982Y-99497438D01*
X147792982Y-99497438D02*
X147650125Y-99449819D01*
X147650125Y-99449819D02*
X147554887Y-99449819D01*
X147554887Y-99449819D02*
X147412030Y-99497438D01*
X147412030Y-99497438D02*
X147364411Y-99545057D01*
X146459649Y-100449819D02*
X146935839Y-100449819D01*
X146935839Y-100449819D02*
X146935839Y-99449819D01*
X148935839Y-102012200D02*
X148792982Y-102059819D01*
X148792982Y-102059819D02*
X148554887Y-102059819D01*
X148554887Y-102059819D02*
X148459649Y-102012200D01*
X148459649Y-102012200D02*
X148412030Y-101964580D01*
X148412030Y-101964580D02*
X148364411Y-101869342D01*
X148364411Y-101869342D02*
X148364411Y-101774104D01*
X148364411Y-101774104D02*
X148412030Y-101678866D01*
X148412030Y-101678866D02*
X148459649Y-101631247D01*
X148459649Y-101631247D02*
X148554887Y-101583628D01*
X148554887Y-101583628D02*
X148745363Y-101536009D01*
X148745363Y-101536009D02*
X148840601Y-101488390D01*
X148840601Y-101488390D02*
X148888220Y-101440771D01*
X148888220Y-101440771D02*
X148935839Y-101345533D01*
X148935839Y-101345533D02*
X148935839Y-101250295D01*
X148935839Y-101250295D02*
X148888220Y-101155057D01*
X148888220Y-101155057D02*
X148840601Y-101107438D01*
X148840601Y-101107438D02*
X148745363Y-101059819D01*
X148745363Y-101059819D02*
X148507268Y-101059819D01*
X148507268Y-101059819D02*
X148364411Y-101107438D01*
X147935839Y-102059819D02*
X147935839Y-101059819D01*
X147935839Y-101059819D02*
X147697744Y-101059819D01*
X147697744Y-101059819D02*
X147554887Y-101107438D01*
X147554887Y-101107438D02*
X147459649Y-101202676D01*
X147459649Y-101202676D02*
X147412030Y-101297914D01*
X147412030Y-101297914D02*
X147364411Y-101488390D01*
X147364411Y-101488390D02*
X147364411Y-101631247D01*
X147364411Y-101631247D02*
X147412030Y-101821723D01*
X147412030Y-101821723D02*
X147459649Y-101916961D01*
X147459649Y-101916961D02*
X147554887Y-102012200D01*
X147554887Y-102012200D02*
X147697744Y-102059819D01*
X147697744Y-102059819D02*
X147935839Y-102059819D01*
X146983458Y-101774104D02*
X146507268Y-101774104D01*
X147078696Y-102059819D02*
X146745363Y-101059819D01*
X146745363Y-101059819D02*
X146412030Y-102059819D01*
X149031077Y-102669819D02*
X148697744Y-103669819D01*
X148697744Y-103669819D02*
X148364411Y-102669819D01*
X147459649Y-103574580D02*
X147507268Y-103622200D01*
X147507268Y-103622200D02*
X147650125Y-103669819D01*
X147650125Y-103669819D02*
X147745363Y-103669819D01*
X147745363Y-103669819D02*
X147888220Y-103622200D01*
X147888220Y-103622200D02*
X147983458Y-103526961D01*
X147983458Y-103526961D02*
X148031077Y-103431723D01*
X148031077Y-103431723D02*
X148078696Y-103241247D01*
X148078696Y-103241247D02*
X148078696Y-103098390D01*
X148078696Y-103098390D02*
X148031077Y-102907914D01*
X148031077Y-102907914D02*
X147983458Y-102812676D01*
X147983458Y-102812676D02*
X147888220Y-102717438D01*
X147888220Y-102717438D02*
X147745363Y-102669819D01*
X147745363Y-102669819D02*
X147650125Y-102669819D01*
X147650125Y-102669819D02*
X147507268Y-102717438D01*
X147507268Y-102717438D02*
X147459649Y-102765057D01*
X146459649Y-103574580D02*
X146507268Y-103622200D01*
X146507268Y-103622200D02*
X146650125Y-103669819D01*
X146650125Y-103669819D02*
X146745363Y-103669819D01*
X146745363Y-103669819D02*
X146888220Y-103622200D01*
X146888220Y-103622200D02*
X146983458Y-103526961D01*
X146983458Y-103526961D02*
X147031077Y-103431723D01*
X147031077Y-103431723D02*
X147078696Y-103241247D01*
X147078696Y-103241247D02*
X147078696Y-103098390D01*
X147078696Y-103098390D02*
X147031077Y-102907914D01*
X147031077Y-102907914D02*
X146983458Y-102812676D01*
X146983458Y-102812676D02*
X146888220Y-102717438D01*
X146888220Y-102717438D02*
X146745363Y-102669819D01*
X146745363Y-102669819D02*
X146650125Y-102669819D01*
X146650125Y-102669819D02*
X146507268Y-102717438D01*
X146507268Y-102717438D02*
X146459649Y-102765057D01*
X148364411Y-104327438D02*
X148459649Y-104279819D01*
X148459649Y-104279819D02*
X148602506Y-104279819D01*
X148602506Y-104279819D02*
X148745363Y-104327438D01*
X148745363Y-104327438D02*
X148840601Y-104422676D01*
X148840601Y-104422676D02*
X148888220Y-104517914D01*
X148888220Y-104517914D02*
X148935839Y-104708390D01*
X148935839Y-104708390D02*
X148935839Y-104851247D01*
X148935839Y-104851247D02*
X148888220Y-105041723D01*
X148888220Y-105041723D02*
X148840601Y-105136961D01*
X148840601Y-105136961D02*
X148745363Y-105232200D01*
X148745363Y-105232200D02*
X148602506Y-105279819D01*
X148602506Y-105279819D02*
X148507268Y-105279819D01*
X148507268Y-105279819D02*
X148364411Y-105232200D01*
X148364411Y-105232200D02*
X148316792Y-105184580D01*
X148316792Y-105184580D02*
X148316792Y-104851247D01*
X148316792Y-104851247D02*
X148507268Y-104851247D01*
X147888220Y-105279819D02*
X147888220Y-104279819D01*
X147888220Y-104279819D02*
X147316792Y-105279819D01*
X147316792Y-105279819D02*
X147316792Y-104279819D01*
X146840601Y-105279819D02*
X146840601Y-104279819D01*
X146840601Y-104279819D02*
X146602506Y-104279819D01*
X146602506Y-104279819D02*
X146459649Y-104327438D01*
X146459649Y-104327438D02*
X146364411Y-104422676D01*
X146364411Y-104422676D02*
X146316792Y-104517914D01*
X146316792Y-104517914D02*
X146269173Y-104708390D01*
X146269173Y-104708390D02*
X146269173Y-104851247D01*
X146269173Y-104851247D02*
X146316792Y-105041723D01*
X146316792Y-105041723D02*
X146364411Y-105136961D01*
X146364411Y-105136961D02*
X146459649Y-105232200D01*
X146459649Y-105232200D02*
X146602506Y-105279819D01*
X146602506Y-105279819D02*
X146840601Y-105279819D01*
X136651904Y-127094819D02*
X136651904Y-127904342D01*
X136651904Y-127904342D02*
X136604285Y-127999580D01*
X136604285Y-127999580D02*
X136556666Y-128047200D01*
X136556666Y-128047200D02*
X136461428Y-128094819D01*
X136461428Y-128094819D02*
X136270952Y-128094819D01*
X136270952Y-128094819D02*
X136175714Y-128047200D01*
X136175714Y-128047200D02*
X136128095Y-127999580D01*
X136128095Y-127999580D02*
X136080476Y-127904342D01*
X136080476Y-127904342D02*
X136080476Y-127094819D01*
X135699523Y-127094819D02*
X135080476Y-127094819D01*
X135080476Y-127094819D02*
X135413809Y-127475771D01*
X135413809Y-127475771D02*
X135270952Y-127475771D01*
X135270952Y-127475771D02*
X135175714Y-127523390D01*
X135175714Y-127523390D02*
X135128095Y-127571009D01*
X135128095Y-127571009D02*
X135080476Y-127666247D01*
X135080476Y-127666247D02*
X135080476Y-127904342D01*
X135080476Y-127904342D02*
X135128095Y-127999580D01*
X135128095Y-127999580D02*
X135175714Y-128047200D01*
X135175714Y-128047200D02*
X135270952Y-128094819D01*
X135270952Y-128094819D02*
X135556666Y-128094819D01*
X135556666Y-128094819D02*
X135651904Y-128047200D01*
X135651904Y-128047200D02*
X135699523Y-127999580D01*
X139866190Y-129181009D02*
X139532857Y-129181009D01*
X139390000Y-129704819D02*
X139866190Y-129704819D01*
X139866190Y-129704819D02*
X139866190Y-128704819D01*
X139866190Y-128704819D02*
X139390000Y-128704819D01*
X138961428Y-129704819D02*
X138961428Y-129038152D01*
X138961428Y-129133390D02*
X138913809Y-129085771D01*
X138913809Y-129085771D02*
X138818571Y-129038152D01*
X138818571Y-129038152D02*
X138675714Y-129038152D01*
X138675714Y-129038152D02*
X138580476Y-129085771D01*
X138580476Y-129085771D02*
X138532857Y-129181009D01*
X138532857Y-129181009D02*
X138532857Y-129704819D01*
X138532857Y-129181009D02*
X138485238Y-129085771D01*
X138485238Y-129085771D02*
X138390000Y-129038152D01*
X138390000Y-129038152D02*
X138247143Y-129038152D01*
X138247143Y-129038152D02*
X138151904Y-129085771D01*
X138151904Y-129085771D02*
X138104285Y-129181009D01*
X138104285Y-129181009D02*
X138104285Y-129704819D01*
X137199524Y-129038152D02*
X137199524Y-129704819D01*
X137628095Y-129038152D02*
X137628095Y-129561961D01*
X137628095Y-129561961D02*
X137580476Y-129657200D01*
X137580476Y-129657200D02*
X137485238Y-129704819D01*
X137485238Y-129704819D02*
X137342381Y-129704819D01*
X137342381Y-129704819D02*
X137247143Y-129657200D01*
X137247143Y-129657200D02*
X137199524Y-129609580D01*
X136580476Y-129704819D02*
X136675714Y-129657200D01*
X136675714Y-129657200D02*
X136723333Y-129561961D01*
X136723333Y-129561961D02*
X136723333Y-128704819D01*
X135770952Y-129704819D02*
X135770952Y-129181009D01*
X135770952Y-129181009D02*
X135818571Y-129085771D01*
X135818571Y-129085771D02*
X135913809Y-129038152D01*
X135913809Y-129038152D02*
X136104285Y-129038152D01*
X136104285Y-129038152D02*
X136199523Y-129085771D01*
X135770952Y-129657200D02*
X135866190Y-129704819D01*
X135866190Y-129704819D02*
X136104285Y-129704819D01*
X136104285Y-129704819D02*
X136199523Y-129657200D01*
X136199523Y-129657200D02*
X136247142Y-129561961D01*
X136247142Y-129561961D02*
X136247142Y-129466723D01*
X136247142Y-129466723D02*
X136199523Y-129371485D01*
X136199523Y-129371485D02*
X136104285Y-129323866D01*
X136104285Y-129323866D02*
X135866190Y-129323866D01*
X135866190Y-129323866D02*
X135770952Y-129276247D01*
X135437618Y-129038152D02*
X135056666Y-129038152D01*
X135294761Y-128704819D02*
X135294761Y-129561961D01*
X135294761Y-129561961D02*
X135247142Y-129657200D01*
X135247142Y-129657200D02*
X135151904Y-129704819D01*
X135151904Y-129704819D02*
X135056666Y-129704819D01*
X134342380Y-129657200D02*
X134437618Y-129704819D01*
X134437618Y-129704819D02*
X134628094Y-129704819D01*
X134628094Y-129704819D02*
X134723332Y-129657200D01*
X134723332Y-129657200D02*
X134770951Y-129561961D01*
X134770951Y-129561961D02*
X134770951Y-129181009D01*
X134770951Y-129181009D02*
X134723332Y-129085771D01*
X134723332Y-129085771D02*
X134628094Y-129038152D01*
X134628094Y-129038152D02*
X134437618Y-129038152D01*
X134437618Y-129038152D02*
X134342380Y-129085771D01*
X134342380Y-129085771D02*
X134294761Y-129181009D01*
X134294761Y-129181009D02*
X134294761Y-129276247D01*
X134294761Y-129276247D02*
X134770951Y-129371485D01*
X133437618Y-129704819D02*
X133437618Y-128704819D01*
X133437618Y-129657200D02*
X133532856Y-129704819D01*
X133532856Y-129704819D02*
X133723332Y-129704819D01*
X133723332Y-129704819D02*
X133818570Y-129657200D01*
X133818570Y-129657200D02*
X133866189Y-129609580D01*
X133866189Y-129609580D02*
X133913808Y-129514342D01*
X133913808Y-129514342D02*
X133913808Y-129228628D01*
X133913808Y-129228628D02*
X133866189Y-129133390D01*
X133866189Y-129133390D02*
X133818570Y-129085771D01*
X133818570Y-129085771D02*
X133723332Y-129038152D01*
X133723332Y-129038152D02*
X133532856Y-129038152D01*
X133532856Y-129038152D02*
X133437618Y-129085771D01*
X132961427Y-129704819D02*
X132961427Y-128704819D01*
X132294761Y-128704819D02*
X132104285Y-128704819D01*
X132104285Y-128704819D02*
X132009047Y-128752438D01*
X132009047Y-128752438D02*
X131913809Y-128847676D01*
X131913809Y-128847676D02*
X131866190Y-129038152D01*
X131866190Y-129038152D02*
X131866190Y-129371485D01*
X131866190Y-129371485D02*
X131913809Y-129561961D01*
X131913809Y-129561961D02*
X132009047Y-129657200D01*
X132009047Y-129657200D02*
X132104285Y-129704819D01*
X132104285Y-129704819D02*
X132294761Y-129704819D01*
X132294761Y-129704819D02*
X132389999Y-129657200D01*
X132389999Y-129657200D02*
X132485237Y-129561961D01*
X132485237Y-129561961D02*
X132532856Y-129371485D01*
X132532856Y-129371485D02*
X132532856Y-129038152D01*
X132532856Y-129038152D02*
X132485237Y-128847676D01*
X132485237Y-128847676D02*
X132389999Y-128752438D01*
X132389999Y-128752438D02*
X132294761Y-128704819D01*
X140366190Y-131029104D02*
X139890000Y-131029104D01*
X140461428Y-131314819D02*
X140128095Y-130314819D01*
X140128095Y-130314819D02*
X139794762Y-131314819D01*
X139604285Y-130314819D02*
X139032857Y-130314819D01*
X139318571Y-131314819D02*
X139318571Y-130314819D01*
X138699523Y-131314819D02*
X138699523Y-130314819D01*
X138699523Y-130314819D02*
X138366190Y-131029104D01*
X138366190Y-131029104D02*
X138032857Y-130314819D01*
X138032857Y-130314819D02*
X138032857Y-131314819D01*
X137556666Y-130791009D02*
X137223333Y-130791009D01*
X137080476Y-131314819D02*
X137556666Y-131314819D01*
X137556666Y-131314819D02*
X137556666Y-130314819D01*
X137556666Y-130314819D02*
X137080476Y-130314819D01*
X136128095Y-130362438D02*
X136223333Y-130314819D01*
X136223333Y-130314819D02*
X136366190Y-130314819D01*
X136366190Y-130314819D02*
X136509047Y-130362438D01*
X136509047Y-130362438D02*
X136604285Y-130457676D01*
X136604285Y-130457676D02*
X136651904Y-130552914D01*
X136651904Y-130552914D02*
X136699523Y-130743390D01*
X136699523Y-130743390D02*
X136699523Y-130886247D01*
X136699523Y-130886247D02*
X136651904Y-131076723D01*
X136651904Y-131076723D02*
X136604285Y-131171961D01*
X136604285Y-131171961D02*
X136509047Y-131267200D01*
X136509047Y-131267200D02*
X136366190Y-131314819D01*
X136366190Y-131314819D02*
X136270952Y-131314819D01*
X136270952Y-131314819D02*
X136128095Y-131267200D01*
X136128095Y-131267200D02*
X136080476Y-131219580D01*
X136080476Y-131219580D02*
X136080476Y-130886247D01*
X136080476Y-130886247D02*
X136270952Y-130886247D01*
X135699523Y-131029104D02*
X135223333Y-131029104D01*
X135794761Y-131314819D02*
X135461428Y-130314819D01*
X135461428Y-130314819D02*
X135128095Y-131314819D01*
X134366190Y-130648152D02*
X134366190Y-131314819D01*
X134604285Y-130267200D02*
X134842380Y-130981485D01*
X134842380Y-130981485D02*
X134223333Y-130981485D01*
X133699523Y-130743390D02*
X133794761Y-130695771D01*
X133794761Y-130695771D02*
X133842380Y-130648152D01*
X133842380Y-130648152D02*
X133889999Y-130552914D01*
X133889999Y-130552914D02*
X133889999Y-130505295D01*
X133889999Y-130505295D02*
X133842380Y-130410057D01*
X133842380Y-130410057D02*
X133794761Y-130362438D01*
X133794761Y-130362438D02*
X133699523Y-130314819D01*
X133699523Y-130314819D02*
X133509047Y-130314819D01*
X133509047Y-130314819D02*
X133413809Y-130362438D01*
X133413809Y-130362438D02*
X133366190Y-130410057D01*
X133366190Y-130410057D02*
X133318571Y-130505295D01*
X133318571Y-130505295D02*
X133318571Y-130552914D01*
X133318571Y-130552914D02*
X133366190Y-130648152D01*
X133366190Y-130648152D02*
X133413809Y-130695771D01*
X133413809Y-130695771D02*
X133509047Y-130743390D01*
X133509047Y-130743390D02*
X133699523Y-130743390D01*
X133699523Y-130743390D02*
X133794761Y-130791009D01*
X133794761Y-130791009D02*
X133842380Y-130838628D01*
X133842380Y-130838628D02*
X133889999Y-130933866D01*
X133889999Y-130933866D02*
X133889999Y-131124342D01*
X133889999Y-131124342D02*
X133842380Y-131219580D01*
X133842380Y-131219580D02*
X133794761Y-131267200D01*
X133794761Y-131267200D02*
X133699523Y-131314819D01*
X133699523Y-131314819D02*
X133509047Y-131314819D01*
X133509047Y-131314819D02*
X133413809Y-131267200D01*
X133413809Y-131267200D02*
X133366190Y-131219580D01*
X133366190Y-131219580D02*
X133318571Y-131124342D01*
X133318571Y-131124342D02*
X133318571Y-130933866D01*
X133318571Y-130933866D02*
X133366190Y-130838628D01*
X133366190Y-130838628D02*
X133413809Y-130791009D01*
X133413809Y-130791009D02*
X133509047Y-130743390D01*
X132699523Y-130314819D02*
X132604285Y-130314819D01*
X132604285Y-130314819D02*
X132509047Y-130362438D01*
X132509047Y-130362438D02*
X132461428Y-130410057D01*
X132461428Y-130410057D02*
X132413809Y-130505295D01*
X132413809Y-130505295D02*
X132366190Y-130695771D01*
X132366190Y-130695771D02*
X132366190Y-130933866D01*
X132366190Y-130933866D02*
X132413809Y-131124342D01*
X132413809Y-131124342D02*
X132461428Y-131219580D01*
X132461428Y-131219580D02*
X132509047Y-131267200D01*
X132509047Y-131267200D02*
X132604285Y-131314819D01*
X132604285Y-131314819D02*
X132699523Y-131314819D01*
X132699523Y-131314819D02*
X132794761Y-131267200D01*
X132794761Y-131267200D02*
X132842380Y-131219580D01*
X132842380Y-131219580D02*
X132889999Y-131124342D01*
X132889999Y-131124342D02*
X132937618Y-130933866D01*
X132937618Y-130933866D02*
X132937618Y-130695771D01*
X132937618Y-130695771D02*
X132889999Y-130505295D01*
X132889999Y-130505295D02*
X132842380Y-130410057D01*
X132842380Y-130410057D02*
X132794761Y-130362438D01*
X132794761Y-130362438D02*
X132699523Y-130314819D01*
X131889999Y-131314819D02*
X131699523Y-131314819D01*
X131699523Y-131314819D02*
X131604285Y-131267200D01*
X131604285Y-131267200D02*
X131556666Y-131219580D01*
X131556666Y-131219580D02*
X131461428Y-131076723D01*
X131461428Y-131076723D02*
X131413809Y-130886247D01*
X131413809Y-130886247D02*
X131413809Y-130505295D01*
X131413809Y-130505295D02*
X131461428Y-130410057D01*
X131461428Y-130410057D02*
X131509047Y-130362438D01*
X131509047Y-130362438D02*
X131604285Y-130314819D01*
X131604285Y-130314819D02*
X131794761Y-130314819D01*
X131794761Y-130314819D02*
X131889999Y-130362438D01*
X131889999Y-130362438D02*
X131937618Y-130410057D01*
X131937618Y-130410057D02*
X131985237Y-130505295D01*
X131985237Y-130505295D02*
X131985237Y-130743390D01*
X131985237Y-130743390D02*
X131937618Y-130838628D01*
X131937618Y-130838628D02*
X131889999Y-130886247D01*
X131889999Y-130886247D02*
X131794761Y-130933866D01*
X131794761Y-130933866D02*
X131604285Y-130933866D01*
X131604285Y-130933866D02*
X131509047Y-130886247D01*
X131509047Y-130886247D02*
X131461428Y-130838628D01*
X131461428Y-130838628D02*
X131413809Y-130743390D01*
D11*
G36*
X151003183Y-108929446D02*
G01*
X145331888Y-108929446D01*
X145331888Y-107483121D01*
X145474745Y-107483121D01*
X145511072Y-107533121D01*
X145569851Y-107552219D01*
X145946041Y-107552219D01*
X145946041Y-107828409D01*
X145712708Y-107828409D01*
X145653929Y-107847507D01*
X145617602Y-107897507D01*
X145617602Y-107959311D01*
X145653929Y-108009311D01*
X145712708Y-108028409D01*
X145946041Y-108028409D01*
X145946041Y-108452219D01*
X145965139Y-108510998D01*
X146015139Y-108547325D01*
X146076943Y-108547325D01*
X146126943Y-108510998D01*
X146146041Y-108452219D01*
X146146041Y-107452219D01*
X146141147Y-107437156D01*
X146141147Y-107421317D01*
X146131837Y-107408503D01*
X146129259Y-107400569D01*
X146279456Y-107400569D01*
X146296170Y-107460070D01*
X147153312Y-108745784D01*
X147201807Y-108784098D01*
X147263561Y-108786589D01*
X147314985Y-108752306D01*
X147336437Y-108694345D01*
X147319722Y-108634844D01*
X147197972Y-108452219D01*
X147469850Y-108452219D01*
X147488948Y-108510998D01*
X147538948Y-108547325D01*
X147600752Y-108547325D01*
X147650752Y-108510998D01*
X147669850Y-108452219D01*
X147669850Y-108372622D01*
X148661557Y-108372622D01*
X148689616Y-108427690D01*
X148737234Y-108475310D01*
X148757776Y-108485776D01*
X148776323Y-108499468D01*
X148919180Y-108547087D01*
X148935387Y-108547210D01*
X148950803Y-108552219D01*
X149046041Y-108552219D01*
X149061456Y-108547210D01*
X149077664Y-108547087D01*
X149220520Y-108499468D01*
X149239067Y-108485776D01*
X149259609Y-108475310D01*
X149354847Y-108380071D01*
X149362205Y-108365629D01*
X149373579Y-108354082D01*
X149421198Y-108258845D01*
X149422858Y-108247823D01*
X149428769Y-108238377D01*
X149476388Y-108047901D01*
X149475527Y-108035484D01*
X149479374Y-108023647D01*
X149479374Y-107880790D01*
X149475527Y-107868952D01*
X149476388Y-107856536D01*
X149446737Y-107737933D01*
X149660327Y-107737933D01*
X149665335Y-107753348D01*
X149665459Y-107769556D01*
X149713078Y-107912412D01*
X149726767Y-107930957D01*
X149737235Y-107951501D01*
X150137952Y-108352219D01*
X149760327Y-108352219D01*
X149701548Y-108371317D01*
X149665221Y-108421317D01*
X149665221Y-108483121D01*
X149701548Y-108533121D01*
X149760327Y-108552219D01*
X150379374Y-108552219D01*
X150401643Y-108544983D01*
X150424773Y-108541320D01*
X150430478Y-108535614D01*
X150438153Y-108533121D01*
X150451918Y-108514174D01*
X150468475Y-108497618D01*
X150469737Y-108489648D01*
X150474480Y-108483121D01*
X150474480Y-108459703D01*
X150475665Y-108452219D01*
X150660326Y-108452219D01*
X150679424Y-108510998D01*
X150729424Y-108547325D01*
X150791228Y-108547325D01*
X150841228Y-108510998D01*
X150860326Y-108452219D01*
X150860326Y-107452219D01*
X150841228Y-107393440D01*
X150791228Y-107357113D01*
X150729424Y-107357113D01*
X150679424Y-107393440D01*
X150660326Y-107452219D01*
X150660326Y-108452219D01*
X150475665Y-108452219D01*
X150478143Y-108436576D01*
X150474480Y-108429386D01*
X150474480Y-108421317D01*
X150460715Y-108402371D01*
X150450085Y-108381508D01*
X149895348Y-107826770D01*
X149860327Y-107721706D01*
X149860327Y-107666302D01*
X149890132Y-107606692D01*
X149914800Y-107582023D01*
X149974410Y-107552219D01*
X150165291Y-107552219D01*
X150224900Y-107582024D01*
X150261044Y-107618167D01*
X150316111Y-107646226D01*
X150377154Y-107636558D01*
X150420856Y-107592856D01*
X150430524Y-107531813D01*
X150402465Y-107476746D01*
X150354847Y-107429127D01*
X150340404Y-107421768D01*
X150328857Y-107410395D01*
X150233619Y-107362776D01*
X150210821Y-107359342D01*
X150188898Y-107352219D01*
X149950803Y-107352219D01*
X149928879Y-107359342D01*
X149906081Y-107362776D01*
X149810844Y-107410395D01*
X149799295Y-107421769D01*
X149784854Y-107429128D01*
X149737235Y-107476746D01*
X149729876Y-107491188D01*
X149718503Y-107502736D01*
X149670884Y-107597974D01*
X149667450Y-107620771D01*
X149660327Y-107642695D01*
X149660327Y-107737933D01*
X149446737Y-107737933D01*
X149428769Y-107666060D01*
X149422858Y-107656613D01*
X149421198Y-107645592D01*
X149373579Y-107550355D01*
X149362205Y-107538807D01*
X149354847Y-107524365D01*
X149259609Y-107429127D01*
X149239065Y-107418659D01*
X149220520Y-107404970D01*
X149077664Y-107357351D01*
X149061456Y-107357227D01*
X149046041Y-107352219D01*
X148950803Y-107352219D01*
X148935387Y-107357227D01*
X148919180Y-107357351D01*
X148776323Y-107404970D01*
X148757774Y-107418662D01*
X148737235Y-107429128D01*
X148689616Y-107476746D01*
X148661558Y-107531814D01*
X148671226Y-107592856D01*
X148714928Y-107636558D01*
X148775970Y-107646226D01*
X148831038Y-107618168D01*
X148861964Y-107587240D01*
X148967029Y-107552219D01*
X149029814Y-107552219D01*
X149134878Y-107587240D01*
X149201951Y-107654313D01*
X149237403Y-107725218D01*
X149279374Y-107893099D01*
X149279374Y-108011337D01*
X149237403Y-108179218D01*
X149201950Y-108250124D01*
X149134879Y-108317197D01*
X149029814Y-108352219D01*
X148967029Y-108352219D01*
X148861964Y-108317197D01*
X148831038Y-108286270D01*
X148775971Y-108258211D01*
X148714929Y-108267878D01*
X148671226Y-108311580D01*
X148661557Y-108372622D01*
X147669850Y-108372622D01*
X147669850Y-107452219D01*
X147650752Y-107393440D01*
X147600752Y-107357113D01*
X147538948Y-107357113D01*
X147488948Y-107393440D01*
X147469850Y-107452219D01*
X147469850Y-108452219D01*
X147197972Y-108452219D01*
X146462580Y-107349130D01*
X146414085Y-107310817D01*
X146352332Y-107308326D01*
X146300908Y-107342608D01*
X146279456Y-107400569D01*
X146129259Y-107400569D01*
X146126943Y-107393440D01*
X146114129Y-107384130D01*
X146104820Y-107371317D01*
X146089756Y-107366422D01*
X146076943Y-107357113D01*
X146061104Y-107357113D01*
X146046041Y-107352219D01*
X145569851Y-107352219D01*
X145511072Y-107371317D01*
X145474745Y-107421317D01*
X145474745Y-107483121D01*
X145331888Y-107483121D01*
X145331888Y-107165469D01*
X151003183Y-107165469D01*
X151003183Y-108929446D01*
G37*
D10*
X108076904Y-123874819D02*
X108076904Y-124684342D01*
X108076904Y-124684342D02*
X108029285Y-124779580D01*
X108029285Y-124779580D02*
X107981666Y-124827200D01*
X107981666Y-124827200D02*
X107886428Y-124874819D01*
X107886428Y-124874819D02*
X107695952Y-124874819D01*
X107695952Y-124874819D02*
X107600714Y-124827200D01*
X107600714Y-124827200D02*
X107553095Y-124779580D01*
X107553095Y-124779580D02*
X107505476Y-124684342D01*
X107505476Y-124684342D02*
X107505476Y-123874819D01*
X106600714Y-124208152D02*
X106600714Y-124874819D01*
X106838809Y-123827200D02*
X107076904Y-124541485D01*
X107076904Y-124541485D02*
X106457857Y-124541485D01*
X109100713Y-126437200D02*
X108957856Y-126484819D01*
X108957856Y-126484819D02*
X108719761Y-126484819D01*
X108719761Y-126484819D02*
X108624523Y-126437200D01*
X108624523Y-126437200D02*
X108576904Y-126389580D01*
X108576904Y-126389580D02*
X108529285Y-126294342D01*
X108529285Y-126294342D02*
X108529285Y-126199104D01*
X108529285Y-126199104D02*
X108576904Y-126103866D01*
X108576904Y-126103866D02*
X108624523Y-126056247D01*
X108624523Y-126056247D02*
X108719761Y-126008628D01*
X108719761Y-126008628D02*
X108910237Y-125961009D01*
X108910237Y-125961009D02*
X109005475Y-125913390D01*
X109005475Y-125913390D02*
X109053094Y-125865771D01*
X109053094Y-125865771D02*
X109100713Y-125770533D01*
X109100713Y-125770533D02*
X109100713Y-125675295D01*
X109100713Y-125675295D02*
X109053094Y-125580057D01*
X109053094Y-125580057D02*
X109005475Y-125532438D01*
X109005475Y-125532438D02*
X108910237Y-125484819D01*
X108910237Y-125484819D02*
X108672142Y-125484819D01*
X108672142Y-125484819D02*
X108529285Y-125532438D01*
X107529285Y-126484819D02*
X107862618Y-126008628D01*
X108100713Y-126484819D02*
X108100713Y-125484819D01*
X108100713Y-125484819D02*
X107719761Y-125484819D01*
X107719761Y-125484819D02*
X107624523Y-125532438D01*
X107624523Y-125532438D02*
X107576904Y-125580057D01*
X107576904Y-125580057D02*
X107529285Y-125675295D01*
X107529285Y-125675295D02*
X107529285Y-125818152D01*
X107529285Y-125818152D02*
X107576904Y-125913390D01*
X107576904Y-125913390D02*
X107624523Y-125961009D01*
X107624523Y-125961009D02*
X107719761Y-126008628D01*
X107719761Y-126008628D02*
X108100713Y-126008628D01*
X107148332Y-126199104D02*
X106672142Y-126199104D01*
X107243570Y-126484819D02*
X106910237Y-125484819D01*
X106910237Y-125484819D02*
X106576904Y-126484819D01*
X106243570Y-126484819D02*
X106243570Y-125484819D01*
X106243570Y-125484819D02*
X105910237Y-126199104D01*
X105910237Y-126199104D02*
X105576904Y-125484819D01*
X105576904Y-125484819D02*
X105576904Y-126484819D01*
X110910237Y-127809104D02*
X110434047Y-127809104D01*
X111005475Y-128094819D02*
X110672142Y-127094819D01*
X110672142Y-127094819D02*
X110338809Y-128094819D01*
X110053094Y-128047200D02*
X109910237Y-128094819D01*
X109910237Y-128094819D02*
X109672142Y-128094819D01*
X109672142Y-128094819D02*
X109576904Y-128047200D01*
X109576904Y-128047200D02*
X109529285Y-127999580D01*
X109529285Y-127999580D02*
X109481666Y-127904342D01*
X109481666Y-127904342D02*
X109481666Y-127809104D01*
X109481666Y-127809104D02*
X109529285Y-127713866D01*
X109529285Y-127713866D02*
X109576904Y-127666247D01*
X109576904Y-127666247D02*
X109672142Y-127618628D01*
X109672142Y-127618628D02*
X109862618Y-127571009D01*
X109862618Y-127571009D02*
X109957856Y-127523390D01*
X109957856Y-127523390D02*
X110005475Y-127475771D01*
X110005475Y-127475771D02*
X110053094Y-127380533D01*
X110053094Y-127380533D02*
X110053094Y-127285295D01*
X110053094Y-127285295D02*
X110005475Y-127190057D01*
X110005475Y-127190057D02*
X109957856Y-127142438D01*
X109957856Y-127142438D02*
X109862618Y-127094819D01*
X109862618Y-127094819D02*
X109624523Y-127094819D01*
X109624523Y-127094819D02*
X109481666Y-127142438D01*
X108624523Y-127094819D02*
X108814999Y-127094819D01*
X108814999Y-127094819D02*
X108910237Y-127142438D01*
X108910237Y-127142438D02*
X108957856Y-127190057D01*
X108957856Y-127190057D02*
X109053094Y-127332914D01*
X109053094Y-127332914D02*
X109100713Y-127523390D01*
X109100713Y-127523390D02*
X109100713Y-127904342D01*
X109100713Y-127904342D02*
X109053094Y-127999580D01*
X109053094Y-127999580D02*
X109005475Y-128047200D01*
X109005475Y-128047200D02*
X108910237Y-128094819D01*
X108910237Y-128094819D02*
X108719761Y-128094819D01*
X108719761Y-128094819D02*
X108624523Y-128047200D01*
X108624523Y-128047200D02*
X108576904Y-127999580D01*
X108576904Y-127999580D02*
X108529285Y-127904342D01*
X108529285Y-127904342D02*
X108529285Y-127666247D01*
X108529285Y-127666247D02*
X108576904Y-127571009D01*
X108576904Y-127571009D02*
X108624523Y-127523390D01*
X108624523Y-127523390D02*
X108719761Y-127475771D01*
X108719761Y-127475771D02*
X108910237Y-127475771D01*
X108910237Y-127475771D02*
X109005475Y-127523390D01*
X109005475Y-127523390D02*
X109053094Y-127571009D01*
X109053094Y-127571009D02*
X109100713Y-127666247D01*
X107529285Y-127999580D02*
X107576904Y-128047200D01*
X107576904Y-128047200D02*
X107719761Y-128094819D01*
X107719761Y-128094819D02*
X107814999Y-128094819D01*
X107814999Y-128094819D02*
X107957856Y-128047200D01*
X107957856Y-128047200D02*
X108053094Y-127951961D01*
X108053094Y-127951961D02*
X108100713Y-127856723D01*
X108100713Y-127856723D02*
X108148332Y-127666247D01*
X108148332Y-127666247D02*
X108148332Y-127523390D01*
X108148332Y-127523390D02*
X108100713Y-127332914D01*
X108100713Y-127332914D02*
X108053094Y-127237676D01*
X108053094Y-127237676D02*
X107957856Y-127142438D01*
X107957856Y-127142438D02*
X107814999Y-127094819D01*
X107814999Y-127094819D02*
X107719761Y-127094819D01*
X107719761Y-127094819D02*
X107576904Y-127142438D01*
X107576904Y-127142438D02*
X107529285Y-127190057D01*
X106576904Y-128094819D02*
X107148332Y-128094819D01*
X106862618Y-128094819D02*
X106862618Y-127094819D01*
X106862618Y-127094819D02*
X106957856Y-127237676D01*
X106957856Y-127237676D02*
X107053094Y-127332914D01*
X107053094Y-127332914D02*
X107148332Y-127380533D01*
X105957856Y-127094819D02*
X105862618Y-127094819D01*
X105862618Y-127094819D02*
X105767380Y-127142438D01*
X105767380Y-127142438D02*
X105719761Y-127190057D01*
X105719761Y-127190057D02*
X105672142Y-127285295D01*
X105672142Y-127285295D02*
X105624523Y-127475771D01*
X105624523Y-127475771D02*
X105624523Y-127713866D01*
X105624523Y-127713866D02*
X105672142Y-127904342D01*
X105672142Y-127904342D02*
X105719761Y-127999580D01*
X105719761Y-127999580D02*
X105767380Y-128047200D01*
X105767380Y-128047200D02*
X105862618Y-128094819D01*
X105862618Y-128094819D02*
X105957856Y-128094819D01*
X105957856Y-128094819D02*
X106053094Y-128047200D01*
X106053094Y-128047200D02*
X106100713Y-127999580D01*
X106100713Y-127999580D02*
X106148332Y-127904342D01*
X106148332Y-127904342D02*
X106195951Y-127713866D01*
X106195951Y-127713866D02*
X106195951Y-127475771D01*
X106195951Y-127475771D02*
X106148332Y-127285295D01*
X106148332Y-127285295D02*
X106100713Y-127190057D01*
X106100713Y-127190057D02*
X106053094Y-127142438D01*
X106053094Y-127142438D02*
X105957856Y-127094819D01*
X105005475Y-127094819D02*
X104910237Y-127094819D01*
X104910237Y-127094819D02*
X104814999Y-127142438D01*
X104814999Y-127142438D02*
X104767380Y-127190057D01*
X104767380Y-127190057D02*
X104719761Y-127285295D01*
X104719761Y-127285295D02*
X104672142Y-127475771D01*
X104672142Y-127475771D02*
X104672142Y-127713866D01*
X104672142Y-127713866D02*
X104719761Y-127904342D01*
X104719761Y-127904342D02*
X104767380Y-127999580D01*
X104767380Y-127999580D02*
X104814999Y-128047200D01*
X104814999Y-128047200D02*
X104910237Y-128094819D01*
X104910237Y-128094819D02*
X105005475Y-128094819D01*
X105005475Y-128094819D02*
X105100713Y-128047200D01*
X105100713Y-128047200D02*
X105148332Y-127999580D01*
X105148332Y-127999580D02*
X105195951Y-127904342D01*
X105195951Y-127904342D02*
X105243570Y-127713866D01*
X105243570Y-127713866D02*
X105243570Y-127475771D01*
X105243570Y-127475771D02*
X105195951Y-127285295D01*
X105195951Y-127285295D02*
X105148332Y-127190057D01*
X105148332Y-127190057D02*
X105100713Y-127142438D01*
X105100713Y-127142438D02*
X105005475Y-127094819D01*
X104100713Y-127523390D02*
X104195951Y-127475771D01*
X104195951Y-127475771D02*
X104243570Y-127428152D01*
X104243570Y-127428152D02*
X104291189Y-127332914D01*
X104291189Y-127332914D02*
X104291189Y-127285295D01*
X104291189Y-127285295D02*
X104243570Y-127190057D01*
X104243570Y-127190057D02*
X104195951Y-127142438D01*
X104195951Y-127142438D02*
X104100713Y-127094819D01*
X104100713Y-127094819D02*
X103910237Y-127094819D01*
X103910237Y-127094819D02*
X103814999Y-127142438D01*
X103814999Y-127142438D02*
X103767380Y-127190057D01*
X103767380Y-127190057D02*
X103719761Y-127285295D01*
X103719761Y-127285295D02*
X103719761Y-127332914D01*
X103719761Y-127332914D02*
X103767380Y-127428152D01*
X103767380Y-127428152D02*
X103814999Y-127475771D01*
X103814999Y-127475771D02*
X103910237Y-127523390D01*
X103910237Y-127523390D02*
X104100713Y-127523390D01*
X104100713Y-127523390D02*
X104195951Y-127571009D01*
X104195951Y-127571009D02*
X104243570Y-127618628D01*
X104243570Y-127618628D02*
X104291189Y-127713866D01*
X104291189Y-127713866D02*
X104291189Y-127904342D01*
X104291189Y-127904342D02*
X104243570Y-127999580D01*
X104243570Y-127999580D02*
X104195951Y-128047200D01*
X104195951Y-128047200D02*
X104100713Y-128094819D01*
X104100713Y-128094819D02*
X103910237Y-128094819D01*
X103910237Y-128094819D02*
X103814999Y-128047200D01*
X103814999Y-128047200D02*
X103767380Y-127999580D01*
X103767380Y-127999580D02*
X103719761Y-127904342D01*
X103719761Y-127904342D02*
X103719761Y-127713866D01*
X103719761Y-127713866D02*
X103767380Y-127618628D01*
X103767380Y-127618628D02*
X103814999Y-127571009D01*
X103814999Y-127571009D02*
X103910237Y-127523390D01*
X110910237Y-129419104D02*
X110434047Y-129419104D01*
X111005475Y-129704819D02*
X110672142Y-128704819D01*
X110672142Y-128704819D02*
X110338809Y-129704819D01*
X110053094Y-129657200D02*
X109910237Y-129704819D01*
X109910237Y-129704819D02*
X109672142Y-129704819D01*
X109672142Y-129704819D02*
X109576904Y-129657200D01*
X109576904Y-129657200D02*
X109529285Y-129609580D01*
X109529285Y-129609580D02*
X109481666Y-129514342D01*
X109481666Y-129514342D02*
X109481666Y-129419104D01*
X109481666Y-129419104D02*
X109529285Y-129323866D01*
X109529285Y-129323866D02*
X109576904Y-129276247D01*
X109576904Y-129276247D02*
X109672142Y-129228628D01*
X109672142Y-129228628D02*
X109862618Y-129181009D01*
X109862618Y-129181009D02*
X109957856Y-129133390D01*
X109957856Y-129133390D02*
X110005475Y-129085771D01*
X110005475Y-129085771D02*
X110053094Y-128990533D01*
X110053094Y-128990533D02*
X110053094Y-128895295D01*
X110053094Y-128895295D02*
X110005475Y-128800057D01*
X110005475Y-128800057D02*
X109957856Y-128752438D01*
X109957856Y-128752438D02*
X109862618Y-128704819D01*
X109862618Y-128704819D02*
X109624523Y-128704819D01*
X109624523Y-128704819D02*
X109481666Y-128752438D01*
X108624523Y-128704819D02*
X108814999Y-128704819D01*
X108814999Y-128704819D02*
X108910237Y-128752438D01*
X108910237Y-128752438D02*
X108957856Y-128800057D01*
X108957856Y-128800057D02*
X109053094Y-128942914D01*
X109053094Y-128942914D02*
X109100713Y-129133390D01*
X109100713Y-129133390D02*
X109100713Y-129514342D01*
X109100713Y-129514342D02*
X109053094Y-129609580D01*
X109053094Y-129609580D02*
X109005475Y-129657200D01*
X109005475Y-129657200D02*
X108910237Y-129704819D01*
X108910237Y-129704819D02*
X108719761Y-129704819D01*
X108719761Y-129704819D02*
X108624523Y-129657200D01*
X108624523Y-129657200D02*
X108576904Y-129609580D01*
X108576904Y-129609580D02*
X108529285Y-129514342D01*
X108529285Y-129514342D02*
X108529285Y-129276247D01*
X108529285Y-129276247D02*
X108576904Y-129181009D01*
X108576904Y-129181009D02*
X108624523Y-129133390D01*
X108624523Y-129133390D02*
X108719761Y-129085771D01*
X108719761Y-129085771D02*
X108910237Y-129085771D01*
X108910237Y-129085771D02*
X109005475Y-129133390D01*
X109005475Y-129133390D02*
X109053094Y-129181009D01*
X109053094Y-129181009D02*
X109100713Y-129276247D01*
X107529285Y-129609580D02*
X107576904Y-129657200D01*
X107576904Y-129657200D02*
X107719761Y-129704819D01*
X107719761Y-129704819D02*
X107814999Y-129704819D01*
X107814999Y-129704819D02*
X107957856Y-129657200D01*
X107957856Y-129657200D02*
X108053094Y-129561961D01*
X108053094Y-129561961D02*
X108100713Y-129466723D01*
X108100713Y-129466723D02*
X108148332Y-129276247D01*
X108148332Y-129276247D02*
X108148332Y-129133390D01*
X108148332Y-129133390D02*
X108100713Y-128942914D01*
X108100713Y-128942914D02*
X108053094Y-128847676D01*
X108053094Y-128847676D02*
X107957856Y-128752438D01*
X107957856Y-128752438D02*
X107814999Y-128704819D01*
X107814999Y-128704819D02*
X107719761Y-128704819D01*
X107719761Y-128704819D02*
X107576904Y-128752438D01*
X107576904Y-128752438D02*
X107529285Y-128800057D01*
X107148332Y-128800057D02*
X107100713Y-128752438D01*
X107100713Y-128752438D02*
X107005475Y-128704819D01*
X107005475Y-128704819D02*
X106767380Y-128704819D01*
X106767380Y-128704819D02*
X106672142Y-128752438D01*
X106672142Y-128752438D02*
X106624523Y-128800057D01*
X106624523Y-128800057D02*
X106576904Y-128895295D01*
X106576904Y-128895295D02*
X106576904Y-128990533D01*
X106576904Y-128990533D02*
X106624523Y-129133390D01*
X106624523Y-129133390D02*
X107195951Y-129704819D01*
X107195951Y-129704819D02*
X106576904Y-129704819D01*
X105957856Y-128704819D02*
X105862618Y-128704819D01*
X105862618Y-128704819D02*
X105767380Y-128752438D01*
X105767380Y-128752438D02*
X105719761Y-128800057D01*
X105719761Y-128800057D02*
X105672142Y-128895295D01*
X105672142Y-128895295D02*
X105624523Y-129085771D01*
X105624523Y-129085771D02*
X105624523Y-129323866D01*
X105624523Y-129323866D02*
X105672142Y-129514342D01*
X105672142Y-129514342D02*
X105719761Y-129609580D01*
X105719761Y-129609580D02*
X105767380Y-129657200D01*
X105767380Y-129657200D02*
X105862618Y-129704819D01*
X105862618Y-129704819D02*
X105957856Y-129704819D01*
X105957856Y-129704819D02*
X106053094Y-129657200D01*
X106053094Y-129657200D02*
X106100713Y-129609580D01*
X106100713Y-129609580D02*
X106148332Y-129514342D01*
X106148332Y-129514342D02*
X106195951Y-129323866D01*
X106195951Y-129323866D02*
X106195951Y-129085771D01*
X106195951Y-129085771D02*
X106148332Y-128895295D01*
X106148332Y-128895295D02*
X106100713Y-128800057D01*
X106100713Y-128800057D02*
X106053094Y-128752438D01*
X106053094Y-128752438D02*
X105957856Y-128704819D01*
X105005475Y-128704819D02*
X104910237Y-128704819D01*
X104910237Y-128704819D02*
X104814999Y-128752438D01*
X104814999Y-128752438D02*
X104767380Y-128800057D01*
X104767380Y-128800057D02*
X104719761Y-128895295D01*
X104719761Y-128895295D02*
X104672142Y-129085771D01*
X104672142Y-129085771D02*
X104672142Y-129323866D01*
X104672142Y-129323866D02*
X104719761Y-129514342D01*
X104719761Y-129514342D02*
X104767380Y-129609580D01*
X104767380Y-129609580D02*
X104814999Y-129657200D01*
X104814999Y-129657200D02*
X104910237Y-129704819D01*
X104910237Y-129704819D02*
X105005475Y-129704819D01*
X105005475Y-129704819D02*
X105100713Y-129657200D01*
X105100713Y-129657200D02*
X105148332Y-129609580D01*
X105148332Y-129609580D02*
X105195951Y-129514342D01*
X105195951Y-129514342D02*
X105243570Y-129323866D01*
X105243570Y-129323866D02*
X105243570Y-129085771D01*
X105243570Y-129085771D02*
X105195951Y-128895295D01*
X105195951Y-128895295D02*
X105148332Y-128800057D01*
X105148332Y-128800057D02*
X105100713Y-128752438D01*
X105100713Y-128752438D02*
X105005475Y-128704819D01*
X104100713Y-129133390D02*
X104195951Y-129085771D01*
X104195951Y-129085771D02*
X104243570Y-129038152D01*
X104243570Y-129038152D02*
X104291189Y-128942914D01*
X104291189Y-128942914D02*
X104291189Y-128895295D01*
X104291189Y-128895295D02*
X104243570Y-128800057D01*
X104243570Y-128800057D02*
X104195951Y-128752438D01*
X104195951Y-128752438D02*
X104100713Y-128704819D01*
X104100713Y-128704819D02*
X103910237Y-128704819D01*
X103910237Y-128704819D02*
X103814999Y-128752438D01*
X103814999Y-128752438D02*
X103767380Y-128800057D01*
X103767380Y-128800057D02*
X103719761Y-128895295D01*
X103719761Y-128895295D02*
X103719761Y-128942914D01*
X103719761Y-128942914D02*
X103767380Y-129038152D01*
X103767380Y-129038152D02*
X103814999Y-129085771D01*
X103814999Y-129085771D02*
X103910237Y-129133390D01*
X103910237Y-129133390D02*
X104100713Y-129133390D01*
X104100713Y-129133390D02*
X104195951Y-129181009D01*
X104195951Y-129181009D02*
X104243570Y-129228628D01*
X104243570Y-129228628D02*
X104291189Y-129323866D01*
X104291189Y-129323866D02*
X104291189Y-129514342D01*
X104291189Y-129514342D02*
X104243570Y-129609580D01*
X104243570Y-129609580D02*
X104195951Y-129657200D01*
X104195951Y-129657200D02*
X104100713Y-129704819D01*
X104100713Y-129704819D02*
X103910237Y-129704819D01*
X103910237Y-129704819D02*
X103814999Y-129657200D01*
X103814999Y-129657200D02*
X103767380Y-129609580D01*
X103767380Y-129609580D02*
X103719761Y-129514342D01*
X103719761Y-129514342D02*
X103719761Y-129323866D01*
X103719761Y-129323866D02*
X103767380Y-129228628D01*
X103767380Y-129228628D02*
X103814999Y-129181009D01*
X103814999Y-129181009D02*
X103910237Y-129133390D01*
X110910237Y-131029104D02*
X110434047Y-131029104D01*
X111005475Y-131314819D02*
X110672142Y-130314819D01*
X110672142Y-130314819D02*
X110338809Y-131314819D01*
X110053094Y-131267200D02*
X109910237Y-131314819D01*
X109910237Y-131314819D02*
X109672142Y-131314819D01*
X109672142Y-131314819D02*
X109576904Y-131267200D01*
X109576904Y-131267200D02*
X109529285Y-131219580D01*
X109529285Y-131219580D02*
X109481666Y-131124342D01*
X109481666Y-131124342D02*
X109481666Y-131029104D01*
X109481666Y-131029104D02*
X109529285Y-130933866D01*
X109529285Y-130933866D02*
X109576904Y-130886247D01*
X109576904Y-130886247D02*
X109672142Y-130838628D01*
X109672142Y-130838628D02*
X109862618Y-130791009D01*
X109862618Y-130791009D02*
X109957856Y-130743390D01*
X109957856Y-130743390D02*
X110005475Y-130695771D01*
X110005475Y-130695771D02*
X110053094Y-130600533D01*
X110053094Y-130600533D02*
X110053094Y-130505295D01*
X110053094Y-130505295D02*
X110005475Y-130410057D01*
X110005475Y-130410057D02*
X109957856Y-130362438D01*
X109957856Y-130362438D02*
X109862618Y-130314819D01*
X109862618Y-130314819D02*
X109624523Y-130314819D01*
X109624523Y-130314819D02*
X109481666Y-130362438D01*
X108624523Y-130314819D02*
X108814999Y-130314819D01*
X108814999Y-130314819D02*
X108910237Y-130362438D01*
X108910237Y-130362438D02*
X108957856Y-130410057D01*
X108957856Y-130410057D02*
X109053094Y-130552914D01*
X109053094Y-130552914D02*
X109100713Y-130743390D01*
X109100713Y-130743390D02*
X109100713Y-131124342D01*
X109100713Y-131124342D02*
X109053094Y-131219580D01*
X109053094Y-131219580D02*
X109005475Y-131267200D01*
X109005475Y-131267200D02*
X108910237Y-131314819D01*
X108910237Y-131314819D02*
X108719761Y-131314819D01*
X108719761Y-131314819D02*
X108624523Y-131267200D01*
X108624523Y-131267200D02*
X108576904Y-131219580D01*
X108576904Y-131219580D02*
X108529285Y-131124342D01*
X108529285Y-131124342D02*
X108529285Y-130886247D01*
X108529285Y-130886247D02*
X108576904Y-130791009D01*
X108576904Y-130791009D02*
X108624523Y-130743390D01*
X108624523Y-130743390D02*
X108719761Y-130695771D01*
X108719761Y-130695771D02*
X108910237Y-130695771D01*
X108910237Y-130695771D02*
X109005475Y-130743390D01*
X109005475Y-130743390D02*
X109053094Y-130791009D01*
X109053094Y-130791009D02*
X109100713Y-130886247D01*
X107529285Y-131219580D02*
X107576904Y-131267200D01*
X107576904Y-131267200D02*
X107719761Y-131314819D01*
X107719761Y-131314819D02*
X107814999Y-131314819D01*
X107814999Y-131314819D02*
X107957856Y-131267200D01*
X107957856Y-131267200D02*
X108053094Y-131171961D01*
X108053094Y-131171961D02*
X108100713Y-131076723D01*
X108100713Y-131076723D02*
X108148332Y-130886247D01*
X108148332Y-130886247D02*
X108148332Y-130743390D01*
X108148332Y-130743390D02*
X108100713Y-130552914D01*
X108100713Y-130552914D02*
X108053094Y-130457676D01*
X108053094Y-130457676D02*
X107957856Y-130362438D01*
X107957856Y-130362438D02*
X107814999Y-130314819D01*
X107814999Y-130314819D02*
X107719761Y-130314819D01*
X107719761Y-130314819D02*
X107576904Y-130362438D01*
X107576904Y-130362438D02*
X107529285Y-130410057D01*
X106672142Y-130648152D02*
X106672142Y-131314819D01*
X106910237Y-130267200D02*
X107148332Y-130981485D01*
X107148332Y-130981485D02*
X106529285Y-130981485D01*
X105957856Y-130314819D02*
X105862618Y-130314819D01*
X105862618Y-130314819D02*
X105767380Y-130362438D01*
X105767380Y-130362438D02*
X105719761Y-130410057D01*
X105719761Y-130410057D02*
X105672142Y-130505295D01*
X105672142Y-130505295D02*
X105624523Y-130695771D01*
X105624523Y-130695771D02*
X105624523Y-130933866D01*
X105624523Y-130933866D02*
X105672142Y-131124342D01*
X105672142Y-131124342D02*
X105719761Y-131219580D01*
X105719761Y-131219580D02*
X105767380Y-131267200D01*
X105767380Y-131267200D02*
X105862618Y-131314819D01*
X105862618Y-131314819D02*
X105957856Y-131314819D01*
X105957856Y-131314819D02*
X106053094Y-131267200D01*
X106053094Y-131267200D02*
X106100713Y-131219580D01*
X106100713Y-131219580D02*
X106148332Y-131124342D01*
X106148332Y-131124342D02*
X106195951Y-130933866D01*
X106195951Y-130933866D02*
X106195951Y-130695771D01*
X106195951Y-130695771D02*
X106148332Y-130505295D01*
X106148332Y-130505295D02*
X106100713Y-130410057D01*
X106100713Y-130410057D02*
X106053094Y-130362438D01*
X106053094Y-130362438D02*
X105957856Y-130314819D01*
X105005475Y-130314819D02*
X104910237Y-130314819D01*
X104910237Y-130314819D02*
X104814999Y-130362438D01*
X104814999Y-130362438D02*
X104767380Y-130410057D01*
X104767380Y-130410057D02*
X104719761Y-130505295D01*
X104719761Y-130505295D02*
X104672142Y-130695771D01*
X104672142Y-130695771D02*
X104672142Y-130933866D01*
X104672142Y-130933866D02*
X104719761Y-131124342D01*
X104719761Y-131124342D02*
X104767380Y-131219580D01*
X104767380Y-131219580D02*
X104814999Y-131267200D01*
X104814999Y-131267200D02*
X104910237Y-131314819D01*
X104910237Y-131314819D02*
X105005475Y-131314819D01*
X105005475Y-131314819D02*
X105100713Y-131267200D01*
X105100713Y-131267200D02*
X105148332Y-131219580D01*
X105148332Y-131219580D02*
X105195951Y-131124342D01*
X105195951Y-131124342D02*
X105243570Y-130933866D01*
X105243570Y-130933866D02*
X105243570Y-130695771D01*
X105243570Y-130695771D02*
X105195951Y-130505295D01*
X105195951Y-130505295D02*
X105148332Y-130410057D01*
X105148332Y-130410057D02*
X105100713Y-130362438D01*
X105100713Y-130362438D02*
X105005475Y-130314819D01*
X104100713Y-130743390D02*
X104195951Y-130695771D01*
X104195951Y-130695771D02*
X104243570Y-130648152D01*
X104243570Y-130648152D02*
X104291189Y-130552914D01*
X104291189Y-130552914D02*
X104291189Y-130505295D01*
X104291189Y-130505295D02*
X104243570Y-130410057D01*
X104243570Y-130410057D02*
X104195951Y-130362438D01*
X104195951Y-130362438D02*
X104100713Y-130314819D01*
X104100713Y-130314819D02*
X103910237Y-130314819D01*
X103910237Y-130314819D02*
X103814999Y-130362438D01*
X103814999Y-130362438D02*
X103767380Y-130410057D01*
X103767380Y-130410057D02*
X103719761Y-130505295D01*
X103719761Y-130505295D02*
X103719761Y-130552914D01*
X103719761Y-130552914D02*
X103767380Y-130648152D01*
X103767380Y-130648152D02*
X103814999Y-130695771D01*
X103814999Y-130695771D02*
X103910237Y-130743390D01*
X103910237Y-130743390D02*
X104100713Y-130743390D01*
X104100713Y-130743390D02*
X104195951Y-130791009D01*
X104195951Y-130791009D02*
X104243570Y-130838628D01*
X104243570Y-130838628D02*
X104291189Y-130933866D01*
X104291189Y-130933866D02*
X104291189Y-131124342D01*
X104291189Y-131124342D02*
X104243570Y-131219580D01*
X104243570Y-131219580D02*
X104195951Y-131267200D01*
X104195951Y-131267200D02*
X104100713Y-131314819D01*
X104100713Y-131314819D02*
X103910237Y-131314819D01*
X103910237Y-131314819D02*
X103814999Y-131267200D01*
X103814999Y-131267200D02*
X103767380Y-131219580D01*
X103767380Y-131219580D02*
X103719761Y-131124342D01*
X103719761Y-131124342D02*
X103719761Y-130933866D01*
X103719761Y-130933866D02*
X103767380Y-130838628D01*
X103767380Y-130838628D02*
X103814999Y-130791009D01*
X103814999Y-130791009D02*
X103910237Y-130743390D01*
X118471792Y-71734580D02*
X118519411Y-71782200D01*
X118519411Y-71782200D02*
X118662268Y-71829819D01*
X118662268Y-71829819D02*
X118757506Y-71829819D01*
X118757506Y-71829819D02*
X118900363Y-71782200D01*
X118900363Y-71782200D02*
X118995601Y-71686961D01*
X118995601Y-71686961D02*
X119043220Y-71591723D01*
X119043220Y-71591723D02*
X119090839Y-71401247D01*
X119090839Y-71401247D02*
X119090839Y-71258390D01*
X119090839Y-71258390D02*
X119043220Y-71067914D01*
X119043220Y-71067914D02*
X118995601Y-70972676D01*
X118995601Y-70972676D02*
X118900363Y-70877438D01*
X118900363Y-70877438D02*
X118757506Y-70829819D01*
X118757506Y-70829819D02*
X118662268Y-70829819D01*
X118662268Y-70829819D02*
X118519411Y-70877438D01*
X118519411Y-70877438D02*
X118471792Y-70925057D01*
X118090839Y-71782200D02*
X117947982Y-71829819D01*
X117947982Y-71829819D02*
X117709887Y-71829819D01*
X117709887Y-71829819D02*
X117614649Y-71782200D01*
X117614649Y-71782200D02*
X117567030Y-71734580D01*
X117567030Y-71734580D02*
X117519411Y-71639342D01*
X117519411Y-71639342D02*
X117519411Y-71544104D01*
X117519411Y-71544104D02*
X117567030Y-71448866D01*
X117567030Y-71448866D02*
X117614649Y-71401247D01*
X117614649Y-71401247D02*
X117709887Y-71353628D01*
X117709887Y-71353628D02*
X117900363Y-71306009D01*
X117900363Y-71306009D02*
X117995601Y-71258390D01*
X117995601Y-71258390D02*
X118043220Y-71210771D01*
X118043220Y-71210771D02*
X118090839Y-71115533D01*
X118090839Y-71115533D02*
X118090839Y-71020295D01*
X118090839Y-71020295D02*
X118043220Y-70925057D01*
X118043220Y-70925057D02*
X117995601Y-70877438D01*
X117995601Y-70877438D02*
X117900363Y-70829819D01*
X117900363Y-70829819D02*
X117662268Y-70829819D01*
X117662268Y-70829819D02*
X117519411Y-70877438D01*
X119090839Y-73392200D02*
X118947982Y-73439819D01*
X118947982Y-73439819D02*
X118709887Y-73439819D01*
X118709887Y-73439819D02*
X118614649Y-73392200D01*
X118614649Y-73392200D02*
X118567030Y-73344580D01*
X118567030Y-73344580D02*
X118519411Y-73249342D01*
X118519411Y-73249342D02*
X118519411Y-73154104D01*
X118519411Y-73154104D02*
X118567030Y-73058866D01*
X118567030Y-73058866D02*
X118614649Y-73011247D01*
X118614649Y-73011247D02*
X118709887Y-72963628D01*
X118709887Y-72963628D02*
X118900363Y-72916009D01*
X118900363Y-72916009D02*
X118995601Y-72868390D01*
X118995601Y-72868390D02*
X119043220Y-72820771D01*
X119043220Y-72820771D02*
X119090839Y-72725533D01*
X119090839Y-72725533D02*
X119090839Y-72630295D01*
X119090839Y-72630295D02*
X119043220Y-72535057D01*
X119043220Y-72535057D02*
X118995601Y-72487438D01*
X118995601Y-72487438D02*
X118900363Y-72439819D01*
X118900363Y-72439819D02*
X118662268Y-72439819D01*
X118662268Y-72439819D02*
X118519411Y-72487438D01*
X117519411Y-73344580D02*
X117567030Y-73392200D01*
X117567030Y-73392200D02*
X117709887Y-73439819D01*
X117709887Y-73439819D02*
X117805125Y-73439819D01*
X117805125Y-73439819D02*
X117947982Y-73392200D01*
X117947982Y-73392200D02*
X118043220Y-73296961D01*
X118043220Y-73296961D02*
X118090839Y-73201723D01*
X118090839Y-73201723D02*
X118138458Y-73011247D01*
X118138458Y-73011247D02*
X118138458Y-72868390D01*
X118138458Y-72868390D02*
X118090839Y-72677914D01*
X118090839Y-72677914D02*
X118043220Y-72582676D01*
X118043220Y-72582676D02*
X117947982Y-72487438D01*
X117947982Y-72487438D02*
X117805125Y-72439819D01*
X117805125Y-72439819D02*
X117709887Y-72439819D01*
X117709887Y-72439819D02*
X117567030Y-72487438D01*
X117567030Y-72487438D02*
X117519411Y-72535057D01*
X117090839Y-73439819D02*
X117090839Y-72439819D01*
X116519411Y-73439819D02*
X116947982Y-72868390D01*
X116519411Y-72439819D02*
X117090839Y-73011247D01*
X119043220Y-75049819D02*
X119043220Y-74049819D01*
X119043220Y-74049819D02*
X118709887Y-74764104D01*
X118709887Y-74764104D02*
X118376554Y-74049819D01*
X118376554Y-74049819D02*
X118376554Y-75049819D01*
X117709887Y-74049819D02*
X117519411Y-74049819D01*
X117519411Y-74049819D02*
X117424173Y-74097438D01*
X117424173Y-74097438D02*
X117328935Y-74192676D01*
X117328935Y-74192676D02*
X117281316Y-74383152D01*
X117281316Y-74383152D02*
X117281316Y-74716485D01*
X117281316Y-74716485D02*
X117328935Y-74906961D01*
X117328935Y-74906961D02*
X117424173Y-75002200D01*
X117424173Y-75002200D02*
X117519411Y-75049819D01*
X117519411Y-75049819D02*
X117709887Y-75049819D01*
X117709887Y-75049819D02*
X117805125Y-75002200D01*
X117805125Y-75002200D02*
X117900363Y-74906961D01*
X117900363Y-74906961D02*
X117947982Y-74716485D01*
X117947982Y-74716485D02*
X117947982Y-74383152D01*
X117947982Y-74383152D02*
X117900363Y-74192676D01*
X117900363Y-74192676D02*
X117805125Y-74097438D01*
X117805125Y-74097438D02*
X117709887Y-74049819D01*
X116900363Y-75002200D02*
X116757506Y-75049819D01*
X116757506Y-75049819D02*
X116519411Y-75049819D01*
X116519411Y-75049819D02*
X116424173Y-75002200D01*
X116424173Y-75002200D02*
X116376554Y-74954580D01*
X116376554Y-74954580D02*
X116328935Y-74859342D01*
X116328935Y-74859342D02*
X116328935Y-74764104D01*
X116328935Y-74764104D02*
X116376554Y-74668866D01*
X116376554Y-74668866D02*
X116424173Y-74621247D01*
X116424173Y-74621247D02*
X116519411Y-74573628D01*
X116519411Y-74573628D02*
X116709887Y-74526009D01*
X116709887Y-74526009D02*
X116805125Y-74478390D01*
X116805125Y-74478390D02*
X116852744Y-74430771D01*
X116852744Y-74430771D02*
X116900363Y-74335533D01*
X116900363Y-74335533D02*
X116900363Y-74240295D01*
X116900363Y-74240295D02*
X116852744Y-74145057D01*
X116852744Y-74145057D02*
X116805125Y-74097438D01*
X116805125Y-74097438D02*
X116709887Y-74049819D01*
X116709887Y-74049819D02*
X116471792Y-74049819D01*
X116471792Y-74049819D02*
X116328935Y-74097438D01*
X115900363Y-75049819D02*
X115900363Y-74049819D01*
X119043220Y-76659819D02*
X119043220Y-75659819D01*
X119043220Y-75659819D02*
X118709887Y-76374104D01*
X118709887Y-76374104D02*
X118376554Y-75659819D01*
X118376554Y-75659819D02*
X118376554Y-76659819D01*
X117900363Y-76659819D02*
X117900363Y-75659819D01*
X117471792Y-76612200D02*
X117328935Y-76659819D01*
X117328935Y-76659819D02*
X117090840Y-76659819D01*
X117090840Y-76659819D02*
X116995602Y-76612200D01*
X116995602Y-76612200D02*
X116947983Y-76564580D01*
X116947983Y-76564580D02*
X116900364Y-76469342D01*
X116900364Y-76469342D02*
X116900364Y-76374104D01*
X116900364Y-76374104D02*
X116947983Y-76278866D01*
X116947983Y-76278866D02*
X116995602Y-76231247D01*
X116995602Y-76231247D02*
X117090840Y-76183628D01*
X117090840Y-76183628D02*
X117281316Y-76136009D01*
X117281316Y-76136009D02*
X117376554Y-76088390D01*
X117376554Y-76088390D02*
X117424173Y-76040771D01*
X117424173Y-76040771D02*
X117471792Y-75945533D01*
X117471792Y-75945533D02*
X117471792Y-75850295D01*
X117471792Y-75850295D02*
X117424173Y-75755057D01*
X117424173Y-75755057D02*
X117376554Y-75707438D01*
X117376554Y-75707438D02*
X117281316Y-75659819D01*
X117281316Y-75659819D02*
X117043221Y-75659819D01*
X117043221Y-75659819D02*
X116900364Y-75707438D01*
X116281316Y-75659819D02*
X116090840Y-75659819D01*
X116090840Y-75659819D02*
X115995602Y-75707438D01*
X115995602Y-75707438D02*
X115900364Y-75802676D01*
X115900364Y-75802676D02*
X115852745Y-75993152D01*
X115852745Y-75993152D02*
X115852745Y-76326485D01*
X115852745Y-76326485D02*
X115900364Y-76516961D01*
X115900364Y-76516961D02*
X115995602Y-76612200D01*
X115995602Y-76612200D02*
X116090840Y-76659819D01*
X116090840Y-76659819D02*
X116281316Y-76659819D01*
X116281316Y-76659819D02*
X116376554Y-76612200D01*
X116376554Y-76612200D02*
X116471792Y-76516961D01*
X116471792Y-76516961D02*
X116519411Y-76326485D01*
X116519411Y-76326485D02*
X116519411Y-75993152D01*
X116519411Y-75993152D02*
X116471792Y-75802676D01*
X116471792Y-75802676D02*
X116376554Y-75707438D01*
X116376554Y-75707438D02*
X116281316Y-75659819D01*
X119186077Y-77269819D02*
X118852744Y-78269819D01*
X118852744Y-78269819D02*
X118519411Y-77269819D01*
X117614649Y-78174580D02*
X117662268Y-78222200D01*
X117662268Y-78222200D02*
X117805125Y-78269819D01*
X117805125Y-78269819D02*
X117900363Y-78269819D01*
X117900363Y-78269819D02*
X118043220Y-78222200D01*
X118043220Y-78222200D02*
X118138458Y-78126961D01*
X118138458Y-78126961D02*
X118186077Y-78031723D01*
X118186077Y-78031723D02*
X118233696Y-77841247D01*
X118233696Y-77841247D02*
X118233696Y-77698390D01*
X118233696Y-77698390D02*
X118186077Y-77507914D01*
X118186077Y-77507914D02*
X118138458Y-77412676D01*
X118138458Y-77412676D02*
X118043220Y-77317438D01*
X118043220Y-77317438D02*
X117900363Y-77269819D01*
X117900363Y-77269819D02*
X117805125Y-77269819D01*
X117805125Y-77269819D02*
X117662268Y-77317438D01*
X117662268Y-77317438D02*
X117614649Y-77365057D01*
X116614649Y-78174580D02*
X116662268Y-78222200D01*
X116662268Y-78222200D02*
X116805125Y-78269819D01*
X116805125Y-78269819D02*
X116900363Y-78269819D01*
X116900363Y-78269819D02*
X117043220Y-78222200D01*
X117043220Y-78222200D02*
X117138458Y-78126961D01*
X117138458Y-78126961D02*
X117186077Y-78031723D01*
X117186077Y-78031723D02*
X117233696Y-77841247D01*
X117233696Y-77841247D02*
X117233696Y-77698390D01*
X117233696Y-77698390D02*
X117186077Y-77507914D01*
X117186077Y-77507914D02*
X117138458Y-77412676D01*
X117138458Y-77412676D02*
X117043220Y-77317438D01*
X117043220Y-77317438D02*
X116900363Y-77269819D01*
X116900363Y-77269819D02*
X116805125Y-77269819D01*
X116805125Y-77269819D02*
X116662268Y-77317438D01*
X116662268Y-77317438D02*
X116614649Y-77365057D01*
X118519411Y-78927438D02*
X118614649Y-78879819D01*
X118614649Y-78879819D02*
X118757506Y-78879819D01*
X118757506Y-78879819D02*
X118900363Y-78927438D01*
X118900363Y-78927438D02*
X118995601Y-79022676D01*
X118995601Y-79022676D02*
X119043220Y-79117914D01*
X119043220Y-79117914D02*
X119090839Y-79308390D01*
X119090839Y-79308390D02*
X119090839Y-79451247D01*
X119090839Y-79451247D02*
X119043220Y-79641723D01*
X119043220Y-79641723D02*
X118995601Y-79736961D01*
X118995601Y-79736961D02*
X118900363Y-79832200D01*
X118900363Y-79832200D02*
X118757506Y-79879819D01*
X118757506Y-79879819D02*
X118662268Y-79879819D01*
X118662268Y-79879819D02*
X118519411Y-79832200D01*
X118519411Y-79832200D02*
X118471792Y-79784580D01*
X118471792Y-79784580D02*
X118471792Y-79451247D01*
X118471792Y-79451247D02*
X118662268Y-79451247D01*
X118043220Y-79879819D02*
X118043220Y-78879819D01*
X118043220Y-78879819D02*
X117471792Y-79879819D01*
X117471792Y-79879819D02*
X117471792Y-78879819D01*
X116995601Y-79879819D02*
X116995601Y-78879819D01*
X116995601Y-78879819D02*
X116757506Y-78879819D01*
X116757506Y-78879819D02*
X116614649Y-78927438D01*
X116614649Y-78927438D02*
X116519411Y-79022676D01*
X116519411Y-79022676D02*
X116471792Y-79117914D01*
X116471792Y-79117914D02*
X116424173Y-79308390D01*
X116424173Y-79308390D02*
X116424173Y-79451247D01*
X116424173Y-79451247D02*
X116471792Y-79641723D01*
X116471792Y-79641723D02*
X116519411Y-79736961D01*
X116519411Y-79736961D02*
X116614649Y-79832200D01*
X116614649Y-79832200D02*
X116757506Y-79879819D01*
X116757506Y-79879819D02*
X116995601Y-79879819D01*
X79501904Y-126459819D02*
X79501904Y-127269342D01*
X79501904Y-127269342D02*
X79454285Y-127364580D01*
X79454285Y-127364580D02*
X79406666Y-127412200D01*
X79406666Y-127412200D02*
X79311428Y-127459819D01*
X79311428Y-127459819D02*
X79120952Y-127459819D01*
X79120952Y-127459819D02*
X79025714Y-127412200D01*
X79025714Y-127412200D02*
X78978095Y-127364580D01*
X78978095Y-127364580D02*
X78930476Y-127269342D01*
X78930476Y-127269342D02*
X78930476Y-126459819D01*
X77930476Y-127459819D02*
X78501904Y-127459819D01*
X78216190Y-127459819D02*
X78216190Y-126459819D01*
X78216190Y-126459819D02*
X78311428Y-126602676D01*
X78311428Y-126602676D02*
X78406666Y-126697914D01*
X78406666Y-126697914D02*
X78501904Y-126745533D01*
X79454285Y-128974580D02*
X79501904Y-129022200D01*
X79501904Y-129022200D02*
X79644761Y-129069819D01*
X79644761Y-129069819D02*
X79739999Y-129069819D01*
X79739999Y-129069819D02*
X79882856Y-129022200D01*
X79882856Y-129022200D02*
X79978094Y-128926961D01*
X79978094Y-128926961D02*
X80025713Y-128831723D01*
X80025713Y-128831723D02*
X80073332Y-128641247D01*
X80073332Y-128641247D02*
X80073332Y-128498390D01*
X80073332Y-128498390D02*
X80025713Y-128307914D01*
X80025713Y-128307914D02*
X79978094Y-128212676D01*
X79978094Y-128212676D02*
X79882856Y-128117438D01*
X79882856Y-128117438D02*
X79739999Y-128069819D01*
X79739999Y-128069819D02*
X79644761Y-128069819D01*
X79644761Y-128069819D02*
X79501904Y-128117438D01*
X79501904Y-128117438D02*
X79454285Y-128165057D01*
X79025713Y-129069819D02*
X79025713Y-128069819D01*
X79025713Y-128069819D02*
X78644761Y-128069819D01*
X78644761Y-128069819D02*
X78549523Y-128117438D01*
X78549523Y-128117438D02*
X78501904Y-128165057D01*
X78501904Y-128165057D02*
X78454285Y-128260295D01*
X78454285Y-128260295D02*
X78454285Y-128403152D01*
X78454285Y-128403152D02*
X78501904Y-128498390D01*
X78501904Y-128498390D02*
X78549523Y-128546009D01*
X78549523Y-128546009D02*
X78644761Y-128593628D01*
X78644761Y-128593628D02*
X79025713Y-128593628D01*
X78025713Y-128069819D02*
X78025713Y-128879342D01*
X78025713Y-128879342D02*
X77978094Y-128974580D01*
X77978094Y-128974580D02*
X77930475Y-129022200D01*
X77930475Y-129022200D02*
X77835237Y-129069819D01*
X77835237Y-129069819D02*
X77644761Y-129069819D01*
X77644761Y-129069819D02*
X77549523Y-129022200D01*
X77549523Y-129022200D02*
X77501904Y-128974580D01*
X77501904Y-128974580D02*
X77454285Y-128879342D01*
X77454285Y-128879342D02*
X77454285Y-128069819D01*
X80025713Y-129679819D02*
X79359047Y-129679819D01*
X79359047Y-129679819D02*
X80025713Y-130679819D01*
X80025713Y-130679819D02*
X79359047Y-130679819D01*
X78835237Y-130108390D02*
X78930475Y-130060771D01*
X78930475Y-130060771D02*
X78978094Y-130013152D01*
X78978094Y-130013152D02*
X79025713Y-129917914D01*
X79025713Y-129917914D02*
X79025713Y-129870295D01*
X79025713Y-129870295D02*
X78978094Y-129775057D01*
X78978094Y-129775057D02*
X78930475Y-129727438D01*
X78930475Y-129727438D02*
X78835237Y-129679819D01*
X78835237Y-129679819D02*
X78644761Y-129679819D01*
X78644761Y-129679819D02*
X78549523Y-129727438D01*
X78549523Y-129727438D02*
X78501904Y-129775057D01*
X78501904Y-129775057D02*
X78454285Y-129870295D01*
X78454285Y-129870295D02*
X78454285Y-129917914D01*
X78454285Y-129917914D02*
X78501904Y-130013152D01*
X78501904Y-130013152D02*
X78549523Y-130060771D01*
X78549523Y-130060771D02*
X78644761Y-130108390D01*
X78644761Y-130108390D02*
X78835237Y-130108390D01*
X78835237Y-130108390D02*
X78930475Y-130156009D01*
X78930475Y-130156009D02*
X78978094Y-130203628D01*
X78978094Y-130203628D02*
X79025713Y-130298866D01*
X79025713Y-130298866D02*
X79025713Y-130489342D01*
X79025713Y-130489342D02*
X78978094Y-130584580D01*
X78978094Y-130584580D02*
X78930475Y-130632200D01*
X78930475Y-130632200D02*
X78835237Y-130679819D01*
X78835237Y-130679819D02*
X78644761Y-130679819D01*
X78644761Y-130679819D02*
X78549523Y-130632200D01*
X78549523Y-130632200D02*
X78501904Y-130584580D01*
X78501904Y-130584580D02*
X78454285Y-130489342D01*
X78454285Y-130489342D02*
X78454285Y-130298866D01*
X78454285Y-130298866D02*
X78501904Y-130203628D01*
X78501904Y-130203628D02*
X78549523Y-130156009D01*
X78549523Y-130156009D02*
X78644761Y-130108390D01*
X77835237Y-129679819D02*
X77739999Y-129679819D01*
X77739999Y-129679819D02*
X77644761Y-129727438D01*
X77644761Y-129727438D02*
X77597142Y-129775057D01*
X77597142Y-129775057D02*
X77549523Y-129870295D01*
X77549523Y-129870295D02*
X77501904Y-130060771D01*
X77501904Y-130060771D02*
X77501904Y-130298866D01*
X77501904Y-130298866D02*
X77549523Y-130489342D01*
X77549523Y-130489342D02*
X77597142Y-130584580D01*
X77597142Y-130584580D02*
X77644761Y-130632200D01*
X77644761Y-130632200D02*
X77739999Y-130679819D01*
X77739999Y-130679819D02*
X77835237Y-130679819D01*
X77835237Y-130679819D02*
X77930475Y-130632200D01*
X77930475Y-130632200D02*
X77978094Y-130584580D01*
X77978094Y-130584580D02*
X78025713Y-130489342D01*
X78025713Y-130489342D02*
X78073332Y-130298866D01*
X78073332Y-130298866D02*
X78073332Y-130060771D01*
X78073332Y-130060771D02*
X78025713Y-129870295D01*
X78025713Y-129870295D02*
X77978094Y-129775057D01*
X77978094Y-129775057D02*
X77930475Y-129727438D01*
X77930475Y-129727438D02*
X77835237Y-129679819D01*
D11*
G36*
X111395137Y-70450357D02*
G01*
X111419806Y-70475025D01*
X111449611Y-70534635D01*
X111449611Y-70773135D01*
X111419806Y-70832743D01*
X111395137Y-70857413D01*
X111335528Y-70887219D01*
X111192266Y-70887219D01*
X111173421Y-70877796D01*
X111173421Y-70429974D01*
X111192266Y-70420552D01*
X111335528Y-70420552D01*
X111395137Y-70450357D01*
G37*
G36*
X112951266Y-70728421D02*
G01*
X112973421Y-70772730D01*
X112973421Y-70820754D01*
X112951266Y-70865063D01*
X112906957Y-70887219D01*
X112716076Y-70887219D01*
X112697231Y-70877796D01*
X112697231Y-70706266D01*
X112906957Y-70706266D01*
X112951266Y-70728421D01*
G37*
G36*
X114782945Y-70887219D02*
G01*
X114661076Y-70887219D01*
X114556011Y-70852197D01*
X114488941Y-70785127D01*
X114453487Y-70714218D01*
X114411517Y-70546337D01*
X114411517Y-70428100D01*
X114453487Y-70260218D01*
X114488940Y-70189312D01*
X114556012Y-70122240D01*
X114661076Y-70087219D01*
X114782945Y-70087219D01*
X114782945Y-70887219D01*
G37*
G36*
X116125802Y-71464446D02*
G01*
X107597363Y-71464446D01*
X107597363Y-70018121D01*
X107740220Y-70018121D01*
X107776547Y-70068121D01*
X107835326Y-70087219D01*
X108211516Y-70087219D01*
X108211516Y-70363409D01*
X107978183Y-70363409D01*
X107919404Y-70382507D01*
X107883077Y-70432507D01*
X107883077Y-70494311D01*
X107919404Y-70544311D01*
X107978183Y-70563409D01*
X108211516Y-70563409D01*
X108211516Y-70987219D01*
X108230614Y-71045998D01*
X108280614Y-71082325D01*
X108342418Y-71082325D01*
X108392418Y-71045998D01*
X108411516Y-70987219D01*
X108411516Y-69987219D01*
X108406622Y-69972156D01*
X108406622Y-69956317D01*
X108397312Y-69943503D01*
X108394734Y-69935569D01*
X108544931Y-69935569D01*
X108561645Y-69995070D01*
X109418787Y-71280784D01*
X109467282Y-71319098D01*
X109529036Y-71321589D01*
X109580460Y-71287306D01*
X109601912Y-71229345D01*
X109585197Y-71169844D01*
X109463447Y-70987219D01*
X109735325Y-70987219D01*
X109754423Y-71045998D01*
X109804423Y-71082325D01*
X109866227Y-71082325D01*
X109916227Y-71045998D01*
X109935325Y-70987219D01*
X110973421Y-70987219D01*
X110992519Y-71045998D01*
X111042519Y-71082325D01*
X111104323Y-71082325D01*
X111116935Y-71073161D01*
X111123937Y-71076662D01*
X111146735Y-71080095D01*
X111168659Y-71087219D01*
X111359135Y-71087219D01*
X111381058Y-71080095D01*
X111403856Y-71076662D01*
X111499094Y-71029043D01*
X111510642Y-71017668D01*
X111525084Y-71010310D01*
X111572703Y-70962690D01*
X111580060Y-70948249D01*
X111591435Y-70936701D01*
X111639054Y-70841464D01*
X111642487Y-70818665D01*
X111649611Y-70796742D01*
X111649611Y-70511028D01*
X111642487Y-70489104D01*
X111639054Y-70466306D01*
X111591435Y-70371069D01*
X111580060Y-70359520D01*
X111575950Y-70351454D01*
X111740220Y-70351454D01*
X111776547Y-70401454D01*
X111835326Y-70420552D01*
X111906957Y-70420552D01*
X111966566Y-70450357D01*
X111991235Y-70475025D01*
X112021040Y-70534635D01*
X112021040Y-70987219D01*
X112040138Y-71045998D01*
X112090138Y-71082325D01*
X112151942Y-71082325D01*
X112201942Y-71045998D01*
X112221040Y-70987219D01*
X112497231Y-70987219D01*
X112516329Y-71045998D01*
X112566329Y-71082325D01*
X112628133Y-71082325D01*
X112640745Y-71073161D01*
X112647747Y-71076662D01*
X112670545Y-71080095D01*
X112692469Y-71087219D01*
X112930564Y-71087219D01*
X112952487Y-71080095D01*
X112975285Y-71076662D01*
X113070523Y-71029043D01*
X113071089Y-71028484D01*
X113071877Y-71028354D01*
X113093070Y-71006835D01*
X113114556Y-70985674D01*
X113114686Y-70984887D01*
X113115245Y-70984321D01*
X113145052Y-70924707D01*
X113355489Y-70924707D01*
X113365620Y-70985674D01*
X113409653Y-71029043D01*
X113504890Y-71076662D01*
X113527688Y-71080095D01*
X113549612Y-71087219D01*
X113740088Y-71087219D01*
X113762011Y-71080095D01*
X113784809Y-71076662D01*
X113880047Y-71029043D01*
X113891595Y-71017668D01*
X113906037Y-71010310D01*
X113953656Y-70962690D01*
X113961013Y-70948249D01*
X113972388Y-70936701D01*
X114020007Y-70841464D01*
X114023440Y-70818665D01*
X114030564Y-70796742D01*
X114030564Y-70558647D01*
X114211517Y-70558647D01*
X114215363Y-70570484D01*
X114214503Y-70582901D01*
X114262122Y-70773376D01*
X114268032Y-70782822D01*
X114269693Y-70793844D01*
X114317312Y-70889082D01*
X114328686Y-70900630D01*
X114336044Y-70915071D01*
X114431282Y-71010311D01*
X114451826Y-71020779D01*
X114470370Y-71034468D01*
X114613227Y-71082087D01*
X114629434Y-71082210D01*
X114644850Y-71087219D01*
X114882945Y-71087219D01*
X114898008Y-71082325D01*
X114913847Y-71082325D01*
X114926660Y-71073015D01*
X114941724Y-71068121D01*
X114951033Y-71055307D01*
X114963847Y-71045998D01*
X114968741Y-71030934D01*
X114978051Y-71018121D01*
X114978051Y-71002281D01*
X114982945Y-70987219D01*
X114982945Y-70796742D01*
X115211517Y-70796742D01*
X115218640Y-70818665D01*
X115222074Y-70841463D01*
X115269693Y-70936701D01*
X115281066Y-70948248D01*
X115288425Y-70962690D01*
X115336043Y-71010310D01*
X115350486Y-71017669D01*
X115362034Y-71029043D01*
X115457271Y-71076662D01*
X115480069Y-71080095D01*
X115501993Y-71087219D01*
X115740088Y-71087219D01*
X115755503Y-71082210D01*
X115771711Y-71082087D01*
X115914567Y-71034468D01*
X115964291Y-70997763D01*
X115982942Y-70938841D01*
X115963398Y-70880209D01*
X115913124Y-70844262D01*
X115851322Y-70844732D01*
X115723861Y-70887219D01*
X115525600Y-70887219D01*
X115465990Y-70857414D01*
X115441323Y-70832746D01*
X115411517Y-70773134D01*
X115411517Y-70725111D01*
X115441322Y-70665501D01*
X115465990Y-70640832D01*
X115536897Y-70605379D01*
X115716722Y-70560423D01*
X115726168Y-70554512D01*
X115737190Y-70552852D01*
X115832428Y-70505233D01*
X115843975Y-70493859D01*
X115858418Y-70486501D01*
X115906036Y-70438882D01*
X115913394Y-70424440D01*
X115924769Y-70412892D01*
X115972388Y-70317655D01*
X115975821Y-70294856D01*
X115982945Y-70272933D01*
X115982945Y-70177695D01*
X115975821Y-70155771D01*
X115972388Y-70132973D01*
X115924769Y-70037736D01*
X115913394Y-70026187D01*
X115906036Y-70011746D01*
X115858418Y-69964127D01*
X115843975Y-69956768D01*
X115832428Y-69945395D01*
X115737190Y-69897776D01*
X115714392Y-69894342D01*
X115692469Y-69887219D01*
X115454374Y-69887219D01*
X115438958Y-69892227D01*
X115422751Y-69892351D01*
X115279894Y-69939970D01*
X115230171Y-69976675D01*
X115211519Y-70035597D01*
X115231064Y-70094229D01*
X115281338Y-70130176D01*
X115343140Y-70129706D01*
X115470600Y-70087219D01*
X115668862Y-70087219D01*
X115728471Y-70117024D01*
X115753140Y-70141692D01*
X115782945Y-70201302D01*
X115782945Y-70249326D01*
X115753140Y-70308935D01*
X115728471Y-70333603D01*
X115657564Y-70369057D01*
X115477739Y-70414014D01*
X115468292Y-70419924D01*
X115457271Y-70421585D01*
X115362034Y-70469204D01*
X115350485Y-70480578D01*
X115336044Y-70487937D01*
X115288425Y-70535555D01*
X115281066Y-70549997D01*
X115269693Y-70561545D01*
X115222074Y-70656783D01*
X115218640Y-70679580D01*
X115211517Y-70701504D01*
X115211517Y-70796742D01*
X114982945Y-70796742D01*
X114982945Y-69987219D01*
X114978051Y-69972156D01*
X114978051Y-69956317D01*
X114968741Y-69943503D01*
X114963847Y-69928440D01*
X114951033Y-69919130D01*
X114941724Y-69906317D01*
X114926660Y-69901422D01*
X114913847Y-69892113D01*
X114898008Y-69892113D01*
X114882945Y-69887219D01*
X114644850Y-69887219D01*
X114629434Y-69892227D01*
X114613227Y-69892351D01*
X114470370Y-69939970D01*
X114451823Y-69953660D01*
X114431282Y-69964127D01*
X114336044Y-70059365D01*
X114328685Y-70073807D01*
X114317312Y-70085355D01*
X114269693Y-70180593D01*
X114268032Y-70191614D01*
X114262122Y-70201061D01*
X114214503Y-70391536D01*
X114215363Y-70403952D01*
X114211517Y-70415790D01*
X114211517Y-70558647D01*
X114030564Y-70558647D01*
X114030564Y-70511028D01*
X114023440Y-70489104D01*
X114020007Y-70466306D01*
X113972388Y-70371069D01*
X113961013Y-70359520D01*
X113953655Y-70345079D01*
X113906037Y-70297460D01*
X113891594Y-70290101D01*
X113880047Y-70278728D01*
X113784809Y-70231109D01*
X113762011Y-70227675D01*
X113740088Y-70220552D01*
X113549612Y-70220552D01*
X113527688Y-70227675D01*
X113504890Y-70231109D01*
X113409653Y-70278728D01*
X113365620Y-70322097D01*
X113355489Y-70383064D01*
X113383128Y-70438343D01*
X113437981Y-70466819D01*
X113499095Y-70457614D01*
X113573219Y-70420552D01*
X113716481Y-70420552D01*
X113776090Y-70450357D01*
X113800759Y-70475025D01*
X113830564Y-70534635D01*
X113830564Y-70773135D01*
X113800759Y-70832743D01*
X113776090Y-70857413D01*
X113716481Y-70887219D01*
X113573219Y-70887219D01*
X113499095Y-70850157D01*
X113437981Y-70840952D01*
X113383128Y-70869428D01*
X113355489Y-70924707D01*
X113145052Y-70924707D01*
X113162864Y-70889082D01*
X113166297Y-70866284D01*
X113173421Y-70844361D01*
X113173421Y-70749123D01*
X113166297Y-70727199D01*
X113162864Y-70704401D01*
X113115245Y-70609164D01*
X113114686Y-70608597D01*
X113114556Y-70607811D01*
X113093053Y-70586633D01*
X113071876Y-70565131D01*
X113071089Y-70565000D01*
X113070523Y-70564442D01*
X112975285Y-70516823D01*
X112952487Y-70513389D01*
X112930564Y-70506266D01*
X112716076Y-70506266D01*
X112697231Y-70496843D01*
X112697231Y-70487016D01*
X112719386Y-70442706D01*
X112763695Y-70420552D01*
X112906957Y-70420552D01*
X112981080Y-70457614D01*
X113042195Y-70466819D01*
X113097047Y-70438343D01*
X113124687Y-70383064D01*
X113114556Y-70322097D01*
X113070523Y-70278728D01*
X112975285Y-70231109D01*
X112952487Y-70227675D01*
X112930564Y-70220552D01*
X112740088Y-70220552D01*
X112718164Y-70227675D01*
X112695366Y-70231109D01*
X112600129Y-70278728D01*
X112599562Y-70279286D01*
X112598776Y-70279417D01*
X112577598Y-70300919D01*
X112556096Y-70322097D01*
X112555965Y-70322883D01*
X112555407Y-70323450D01*
X112507788Y-70418688D01*
X112504354Y-70441485D01*
X112497231Y-70463409D01*
X112497231Y-70987219D01*
X112221040Y-70987219D01*
X112221040Y-70320552D01*
X112201942Y-70261773D01*
X112151942Y-70225446D01*
X112090138Y-70225446D01*
X112040138Y-70261773D01*
X112039645Y-70263289D01*
X111975285Y-70231109D01*
X111952487Y-70227675D01*
X111930564Y-70220552D01*
X111835326Y-70220552D01*
X111776547Y-70239650D01*
X111740220Y-70289650D01*
X111740220Y-70351454D01*
X111575950Y-70351454D01*
X111572702Y-70345079D01*
X111525084Y-70297460D01*
X111510641Y-70290101D01*
X111499094Y-70278728D01*
X111403856Y-70231109D01*
X111381058Y-70227675D01*
X111359135Y-70220552D01*
X111173421Y-70220552D01*
X111173421Y-69987219D01*
X111154323Y-69928440D01*
X111104323Y-69892113D01*
X111042519Y-69892113D01*
X110992519Y-69928440D01*
X110973421Y-69987219D01*
X110973421Y-70987219D01*
X109935325Y-70987219D01*
X109935325Y-69987219D01*
X109916227Y-69928440D01*
X109866227Y-69892113D01*
X109804423Y-69892113D01*
X109754423Y-69928440D01*
X109735325Y-69987219D01*
X109735325Y-70987219D01*
X109463447Y-70987219D01*
X108728055Y-69884130D01*
X108679560Y-69845817D01*
X108617807Y-69843326D01*
X108566383Y-69877608D01*
X108544931Y-69935569D01*
X108394734Y-69935569D01*
X108392418Y-69928440D01*
X108379604Y-69919130D01*
X108370295Y-69906317D01*
X108355231Y-69901422D01*
X108342418Y-69892113D01*
X108326579Y-69892113D01*
X108311516Y-69887219D01*
X107835326Y-69887219D01*
X107776547Y-69906317D01*
X107740220Y-69956317D01*
X107740220Y-70018121D01*
X107597363Y-70018121D01*
X107597363Y-69700469D01*
X116125802Y-69700469D01*
X116125802Y-71464446D01*
G37*
D10*
X108076904Y-93144819D02*
X108076904Y-93954342D01*
X108076904Y-93954342D02*
X108029285Y-94049580D01*
X108029285Y-94049580D02*
X107981666Y-94097200D01*
X107981666Y-94097200D02*
X107886428Y-94144819D01*
X107886428Y-94144819D02*
X107695952Y-94144819D01*
X107695952Y-94144819D02*
X107600714Y-94097200D01*
X107600714Y-94097200D02*
X107553095Y-94049580D01*
X107553095Y-94049580D02*
X107505476Y-93954342D01*
X107505476Y-93954342D02*
X107505476Y-93144819D01*
X107076904Y-93240057D02*
X107029285Y-93192438D01*
X107029285Y-93192438D02*
X106934047Y-93144819D01*
X106934047Y-93144819D02*
X106695952Y-93144819D01*
X106695952Y-93144819D02*
X106600714Y-93192438D01*
X106600714Y-93192438D02*
X106553095Y-93240057D01*
X106553095Y-93240057D02*
X106505476Y-93335295D01*
X106505476Y-93335295D02*
X106505476Y-93430533D01*
X106505476Y-93430533D02*
X106553095Y-93573390D01*
X106553095Y-93573390D02*
X107124523Y-94144819D01*
X107124523Y-94144819D02*
X106505476Y-94144819D01*
X110100713Y-94754819D02*
X109434047Y-94754819D01*
X109434047Y-94754819D02*
X109862618Y-95754819D01*
X108624523Y-95088152D02*
X108624523Y-95754819D01*
X108862618Y-94707200D02*
X109100713Y-95421485D01*
X109100713Y-95421485D02*
X108481666Y-95421485D01*
X108100713Y-95754819D02*
X108100713Y-94754819D01*
X108100713Y-95231009D02*
X107529285Y-95231009D01*
X107529285Y-95754819D02*
X107529285Y-94754819D01*
X106481666Y-95659580D02*
X106529285Y-95707200D01*
X106529285Y-95707200D02*
X106672142Y-95754819D01*
X106672142Y-95754819D02*
X106767380Y-95754819D01*
X106767380Y-95754819D02*
X106910237Y-95707200D01*
X106910237Y-95707200D02*
X107005475Y-95611961D01*
X107005475Y-95611961D02*
X107053094Y-95516723D01*
X107053094Y-95516723D02*
X107100713Y-95326247D01*
X107100713Y-95326247D02*
X107100713Y-95183390D01*
X107100713Y-95183390D02*
X107053094Y-94992914D01*
X107053094Y-94992914D02*
X107005475Y-94897676D01*
X107005475Y-94897676D02*
X106910237Y-94802438D01*
X106910237Y-94802438D02*
X106767380Y-94754819D01*
X106767380Y-94754819D02*
X106672142Y-94754819D01*
X106672142Y-94754819D02*
X106529285Y-94802438D01*
X106529285Y-94802438D02*
X106481666Y-94850057D01*
X106148332Y-94754819D02*
X105529285Y-94754819D01*
X105529285Y-94754819D02*
X105862618Y-95135771D01*
X105862618Y-95135771D02*
X105719761Y-95135771D01*
X105719761Y-95135771D02*
X105624523Y-95183390D01*
X105624523Y-95183390D02*
X105576904Y-95231009D01*
X105576904Y-95231009D02*
X105529285Y-95326247D01*
X105529285Y-95326247D02*
X105529285Y-95564342D01*
X105529285Y-95564342D02*
X105576904Y-95659580D01*
X105576904Y-95659580D02*
X105624523Y-95707200D01*
X105624523Y-95707200D02*
X105719761Y-95754819D01*
X105719761Y-95754819D02*
X106005475Y-95754819D01*
X106005475Y-95754819D02*
X106100713Y-95707200D01*
X106100713Y-95707200D02*
X106148332Y-95659580D01*
X105148332Y-94850057D02*
X105100713Y-94802438D01*
X105100713Y-94802438D02*
X105005475Y-94754819D01*
X105005475Y-94754819D02*
X104767380Y-94754819D01*
X104767380Y-94754819D02*
X104672142Y-94802438D01*
X104672142Y-94802438D02*
X104624523Y-94850057D01*
X104624523Y-94850057D02*
X104576904Y-94945295D01*
X104576904Y-94945295D02*
X104576904Y-95040533D01*
X104576904Y-95040533D02*
X104624523Y-95183390D01*
X104624523Y-95183390D02*
X105195951Y-95754819D01*
X105195951Y-95754819D02*
X104576904Y-95754819D01*
X149031077Y-124554819D02*
X148697744Y-125554819D01*
X148697744Y-125554819D02*
X148364411Y-124554819D01*
X148364411Y-126212438D02*
X148459649Y-126164819D01*
X148459649Y-126164819D02*
X148602506Y-126164819D01*
X148602506Y-126164819D02*
X148745363Y-126212438D01*
X148745363Y-126212438D02*
X148840601Y-126307676D01*
X148840601Y-126307676D02*
X148888220Y-126402914D01*
X148888220Y-126402914D02*
X148935839Y-126593390D01*
X148935839Y-126593390D02*
X148935839Y-126736247D01*
X148935839Y-126736247D02*
X148888220Y-126926723D01*
X148888220Y-126926723D02*
X148840601Y-127021961D01*
X148840601Y-127021961D02*
X148745363Y-127117200D01*
X148745363Y-127117200D02*
X148602506Y-127164819D01*
X148602506Y-127164819D02*
X148507268Y-127164819D01*
X148507268Y-127164819D02*
X148364411Y-127117200D01*
X148364411Y-127117200D02*
X148316792Y-127069580D01*
X148316792Y-127069580D02*
X148316792Y-126736247D01*
X148316792Y-126736247D02*
X148507268Y-126736247D01*
X148888220Y-127774819D02*
X148888220Y-128584342D01*
X148888220Y-128584342D02*
X148840601Y-128679580D01*
X148840601Y-128679580D02*
X148792982Y-128727200D01*
X148792982Y-128727200D02*
X148697744Y-128774819D01*
X148697744Y-128774819D02*
X148507268Y-128774819D01*
X148507268Y-128774819D02*
X148412030Y-128727200D01*
X148412030Y-128727200D02*
X148364411Y-128679580D01*
X148364411Y-128679580D02*
X148316792Y-128584342D01*
X148316792Y-128584342D02*
X148316792Y-127774819D01*
X147840601Y-128774819D02*
X147840601Y-127774819D01*
X147840601Y-127774819D02*
X147459649Y-127774819D01*
X147459649Y-127774819D02*
X147364411Y-127822438D01*
X147364411Y-127822438D02*
X147316792Y-127870057D01*
X147316792Y-127870057D02*
X147269173Y-127965295D01*
X147269173Y-127965295D02*
X147269173Y-128108152D01*
X147269173Y-128108152D02*
X147316792Y-128203390D01*
X147316792Y-128203390D02*
X147364411Y-128251009D01*
X147364411Y-128251009D02*
X147459649Y-128298628D01*
X147459649Y-128298628D02*
X147840601Y-128298628D01*
X146840601Y-128774819D02*
X146840601Y-127774819D01*
X146840601Y-127774819D02*
X146602506Y-127774819D01*
X146602506Y-127774819D02*
X146459649Y-127822438D01*
X146459649Y-127822438D02*
X146364411Y-127917676D01*
X146364411Y-127917676D02*
X146316792Y-128012914D01*
X146316792Y-128012914D02*
X146269173Y-128203390D01*
X146269173Y-128203390D02*
X146269173Y-128346247D01*
X146269173Y-128346247D02*
X146316792Y-128536723D01*
X146316792Y-128536723D02*
X146364411Y-128631961D01*
X146364411Y-128631961D02*
X146459649Y-128727200D01*
X146459649Y-128727200D02*
X146602506Y-128774819D01*
X146602506Y-128774819D02*
X146840601Y-128774819D01*
X145840601Y-128774819D02*
X145840601Y-127774819D01*
D11*
G36*
X147081584Y-70601504D02*
G01*
X146882879Y-70601504D01*
X146982231Y-70303446D01*
X147081584Y-70601504D01*
G37*
G36*
X146215564Y-70411028D02*
G01*
X145958219Y-70411028D01*
X145898609Y-70381223D01*
X145873941Y-70356554D01*
X145844136Y-70296944D01*
X145844136Y-70201302D01*
X145873941Y-70141692D01*
X145898609Y-70117023D01*
X145958219Y-70087219D01*
X146215564Y-70087219D01*
X146215564Y-70411028D01*
G37*
G36*
X148463183Y-71464446D02*
G01*
X141553792Y-71464446D01*
X141553792Y-70018121D01*
X141696649Y-70018121D01*
X141732976Y-70068121D01*
X141791755Y-70087219D01*
X142167945Y-70087219D01*
X142167945Y-70363409D01*
X141934612Y-70363409D01*
X141875833Y-70382507D01*
X141839506Y-70432507D01*
X141839506Y-70494311D01*
X141875833Y-70544311D01*
X141934612Y-70563409D01*
X142167945Y-70563409D01*
X142167945Y-70987219D01*
X142187043Y-71045998D01*
X142237043Y-71082325D01*
X142298847Y-71082325D01*
X142348847Y-71045998D01*
X142367945Y-70987219D01*
X142367945Y-69987219D01*
X142363051Y-69972156D01*
X142363051Y-69956317D01*
X142353741Y-69943503D01*
X142351163Y-69935569D01*
X142501360Y-69935569D01*
X142518074Y-69995070D01*
X143375216Y-71280784D01*
X143423711Y-71319098D01*
X143485465Y-71321589D01*
X143536889Y-71287306D01*
X143558341Y-71229345D01*
X143541626Y-71169844D01*
X143419876Y-70987219D01*
X143691754Y-70987219D01*
X143710852Y-71045998D01*
X143760852Y-71082325D01*
X143822656Y-71082325D01*
X143872656Y-71045998D01*
X143891754Y-70987219D01*
X143891754Y-70018121D01*
X144791887Y-70018121D01*
X144828214Y-70068121D01*
X144886993Y-70087219D01*
X145072707Y-70087219D01*
X145072707Y-70987219D01*
X145091805Y-71045998D01*
X145141805Y-71082325D01*
X145203609Y-71082325D01*
X145253609Y-71045998D01*
X145272707Y-70987219D01*
X145272707Y-70320552D01*
X145644136Y-70320552D01*
X145651259Y-70342475D01*
X145654693Y-70365273D01*
X145702312Y-70460511D01*
X145713685Y-70472058D01*
X145721044Y-70486501D01*
X145768663Y-70534119D01*
X145783104Y-70541477D01*
X145794653Y-70552852D01*
X145889890Y-70600471D01*
X145892516Y-70600866D01*
X145662213Y-70929873D01*
X145644151Y-70988978D01*
X145664280Y-71047412D01*
X145714912Y-71082854D01*
X145776706Y-71081767D01*
X145826059Y-71044565D01*
X146129534Y-70611028D01*
X146215564Y-70611028D01*
X146215564Y-70987219D01*
X146234662Y-71045998D01*
X146284662Y-71082325D01*
X146346466Y-71082325D01*
X146396466Y-71045998D01*
X146405758Y-71017398D01*
X146553560Y-71017398D01*
X146589507Y-71067672D01*
X146648139Y-71087217D01*
X146707061Y-71068565D01*
X146743766Y-71018842D01*
X146816212Y-70801504D01*
X147148250Y-70801504D01*
X147220696Y-71018841D01*
X147257401Y-71068565D01*
X147316323Y-71087216D01*
X147374955Y-71067672D01*
X147410902Y-71017398D01*
X147410432Y-70955596D01*
X147357481Y-70796742D01*
X147548898Y-70796742D01*
X147556021Y-70818665D01*
X147559455Y-70841463D01*
X147607074Y-70936701D01*
X147618447Y-70948248D01*
X147625806Y-70962690D01*
X147673424Y-71010310D01*
X147687867Y-71017669D01*
X147699415Y-71029043D01*
X147794652Y-71076662D01*
X147817450Y-71080095D01*
X147839374Y-71087219D01*
X148029850Y-71087219D01*
X148051773Y-71080095D01*
X148074571Y-71076662D01*
X148169809Y-71029043D01*
X148181357Y-71017668D01*
X148195799Y-71010310D01*
X148243418Y-70962690D01*
X148250775Y-70948249D01*
X148262150Y-70936701D01*
X148309769Y-70841464D01*
X148313202Y-70818665D01*
X148320326Y-70796742D01*
X148320326Y-69987219D01*
X148301228Y-69928440D01*
X148251228Y-69892113D01*
X148189424Y-69892113D01*
X148139424Y-69928440D01*
X148120326Y-69987219D01*
X148120326Y-70773135D01*
X148090521Y-70832743D01*
X148065852Y-70857413D01*
X148006243Y-70887219D01*
X147862981Y-70887219D01*
X147803371Y-70857414D01*
X147778704Y-70832746D01*
X147748898Y-70773134D01*
X147748898Y-69987219D01*
X147729800Y-69928440D01*
X147679800Y-69892113D01*
X147617996Y-69892113D01*
X147567996Y-69928440D01*
X147548898Y-69987219D01*
X147548898Y-70796742D01*
X147357481Y-70796742D01*
X147077099Y-69955596D01*
X147059176Y-69931317D01*
X147041622Y-69906766D01*
X147040867Y-69906514D01*
X147040394Y-69905873D01*
X147011568Y-69896748D01*
X146982990Y-69887222D01*
X146982232Y-69887461D01*
X146981472Y-69887221D01*
X146952833Y-69896767D01*
X146924068Y-69905873D01*
X146923594Y-69906514D01*
X146922840Y-69906766D01*
X146905273Y-69931333D01*
X146887363Y-69955597D01*
X146554030Y-70955596D01*
X146553560Y-71017398D01*
X146405758Y-71017398D01*
X146415564Y-70987219D01*
X146415564Y-69987219D01*
X146410670Y-69972156D01*
X146410670Y-69956317D01*
X146401360Y-69943503D01*
X146396466Y-69928440D01*
X146383652Y-69919130D01*
X146374343Y-69906317D01*
X146359279Y-69901422D01*
X146346466Y-69892113D01*
X146330627Y-69892113D01*
X146315564Y-69887219D01*
X145934612Y-69887219D01*
X145912688Y-69894342D01*
X145889890Y-69897776D01*
X145794653Y-69945395D01*
X145783104Y-69956769D01*
X145768663Y-69964128D01*
X145721044Y-70011746D01*
X145713685Y-70026188D01*
X145702312Y-70037736D01*
X145654693Y-70132974D01*
X145651259Y-70155771D01*
X145644136Y-70177695D01*
X145644136Y-70320552D01*
X145272707Y-70320552D01*
X145272707Y-70087219D01*
X145458421Y-70087219D01*
X145517200Y-70068121D01*
X145553527Y-70018121D01*
X145553527Y-69956317D01*
X145517200Y-69906317D01*
X145458421Y-69887219D01*
X144886993Y-69887219D01*
X144828214Y-69906317D01*
X144791887Y-69956317D01*
X144791887Y-70018121D01*
X143891754Y-70018121D01*
X143891754Y-69987219D01*
X143872656Y-69928440D01*
X143822656Y-69892113D01*
X143760852Y-69892113D01*
X143710852Y-69928440D01*
X143691754Y-69987219D01*
X143691754Y-70987219D01*
X143419876Y-70987219D01*
X142684484Y-69884130D01*
X142635989Y-69845817D01*
X142574236Y-69843326D01*
X142522812Y-69877608D01*
X142501360Y-69935569D01*
X142351163Y-69935569D01*
X142348847Y-69928440D01*
X142336033Y-69919130D01*
X142326724Y-69906317D01*
X142311660Y-69901422D01*
X142298847Y-69892113D01*
X142283008Y-69892113D01*
X142267945Y-69887219D01*
X141791755Y-69887219D01*
X141732976Y-69906317D01*
X141696649Y-69956317D01*
X141696649Y-70018121D01*
X141553792Y-70018121D01*
X141553792Y-69700469D01*
X148463183Y-69700469D01*
X148463183Y-71464446D01*
G37*
D10*
X102464819Y-107809993D02*
X103179104Y-107809993D01*
X103179104Y-107809993D02*
X103321961Y-107762374D01*
X103321961Y-107762374D02*
X103417200Y-107667136D01*
X103417200Y-107667136D02*
X103464819Y-107524279D01*
X103464819Y-107524279D02*
X103464819Y-107429041D01*
X103464819Y-108286184D02*
X102464819Y-108286184D01*
X102464819Y-108286184D02*
X102464819Y-108667136D01*
X102464819Y-108667136D02*
X102512438Y-108762374D01*
X102512438Y-108762374D02*
X102560057Y-108809993D01*
X102560057Y-108809993D02*
X102655295Y-108857612D01*
X102655295Y-108857612D02*
X102798152Y-108857612D01*
X102798152Y-108857612D02*
X102893390Y-108809993D01*
X102893390Y-108809993D02*
X102941009Y-108762374D01*
X102941009Y-108762374D02*
X102988628Y-108667136D01*
X102988628Y-108667136D02*
X102988628Y-108286184D01*
X103464819Y-109809993D02*
X103464819Y-109238565D01*
X103464819Y-109524279D02*
X102464819Y-109524279D01*
X102464819Y-109524279D02*
X102607676Y-109429041D01*
X102607676Y-109429041D02*
X102702914Y-109333803D01*
X102702914Y-109333803D02*
X102750533Y-109238565D01*
X103417200Y-110286184D02*
X103464819Y-110286184D01*
X103464819Y-110286184D02*
X103560057Y-110238565D01*
X103560057Y-110238565D02*
X103607676Y-110190946D01*
X102464819Y-111762374D02*
X103179104Y-111762374D01*
X103179104Y-111762374D02*
X103321961Y-111714755D01*
X103321961Y-111714755D02*
X103417200Y-111619517D01*
X103417200Y-111619517D02*
X103464819Y-111476660D01*
X103464819Y-111476660D02*
X103464819Y-111381422D01*
X103464819Y-112238565D02*
X102464819Y-112238565D01*
X102464819Y-112238565D02*
X102464819Y-112619517D01*
X102464819Y-112619517D02*
X102512438Y-112714755D01*
X102512438Y-112714755D02*
X102560057Y-112762374D01*
X102560057Y-112762374D02*
X102655295Y-112809993D01*
X102655295Y-112809993D02*
X102798152Y-112809993D01*
X102798152Y-112809993D02*
X102893390Y-112762374D01*
X102893390Y-112762374D02*
X102941009Y-112714755D01*
X102941009Y-112714755D02*
X102988628Y-112619517D01*
X102988628Y-112619517D02*
X102988628Y-112238565D01*
X102560057Y-113190946D02*
X102512438Y-113238565D01*
X102512438Y-113238565D02*
X102464819Y-113333803D01*
X102464819Y-113333803D02*
X102464819Y-113571898D01*
X102464819Y-113571898D02*
X102512438Y-113667136D01*
X102512438Y-113667136D02*
X102560057Y-113714755D01*
X102560057Y-113714755D02*
X102655295Y-113762374D01*
X102655295Y-113762374D02*
X102750533Y-113762374D01*
X102750533Y-113762374D02*
X102893390Y-113714755D01*
X102893390Y-113714755D02*
X103464819Y-113143327D01*
X103464819Y-113143327D02*
X103464819Y-113762374D01*
X105074819Y-108048088D02*
X105074819Y-107476660D01*
X105074819Y-107762374D02*
X104074819Y-107762374D01*
X104074819Y-107762374D02*
X104217676Y-107667136D01*
X104217676Y-107667136D02*
X104312914Y-107571898D01*
X104312914Y-107571898D02*
X104360533Y-107476660D01*
X104170057Y-108429041D02*
X104122438Y-108476660D01*
X104122438Y-108476660D02*
X104074819Y-108571898D01*
X104074819Y-108571898D02*
X104074819Y-108809993D01*
X104074819Y-108809993D02*
X104122438Y-108905231D01*
X104122438Y-108905231D02*
X104170057Y-108952850D01*
X104170057Y-108952850D02*
X104265295Y-109000469D01*
X104265295Y-109000469D02*
X104360533Y-109000469D01*
X104360533Y-109000469D02*
X104503390Y-108952850D01*
X104503390Y-108952850D02*
X105074819Y-108381422D01*
X105074819Y-108381422D02*
X105074819Y-109000469D01*
X104503390Y-109571898D02*
X104455771Y-109476660D01*
X104455771Y-109476660D02*
X104408152Y-109429041D01*
X104408152Y-109429041D02*
X104312914Y-109381422D01*
X104312914Y-109381422D02*
X104265295Y-109381422D01*
X104265295Y-109381422D02*
X104170057Y-109429041D01*
X104170057Y-109429041D02*
X104122438Y-109476660D01*
X104122438Y-109476660D02*
X104074819Y-109571898D01*
X104074819Y-109571898D02*
X104074819Y-109762374D01*
X104074819Y-109762374D02*
X104122438Y-109857612D01*
X104122438Y-109857612D02*
X104170057Y-109905231D01*
X104170057Y-109905231D02*
X104265295Y-109952850D01*
X104265295Y-109952850D02*
X104312914Y-109952850D01*
X104312914Y-109952850D02*
X104408152Y-109905231D01*
X104408152Y-109905231D02*
X104455771Y-109857612D01*
X104455771Y-109857612D02*
X104503390Y-109762374D01*
X104503390Y-109762374D02*
X104503390Y-109571898D01*
X104503390Y-109571898D02*
X104551009Y-109476660D01*
X104551009Y-109476660D02*
X104598628Y-109429041D01*
X104598628Y-109429041D02*
X104693866Y-109381422D01*
X104693866Y-109381422D02*
X104884342Y-109381422D01*
X104884342Y-109381422D02*
X104979580Y-109429041D01*
X104979580Y-109429041D02*
X105027200Y-109476660D01*
X105027200Y-109476660D02*
X105074819Y-109571898D01*
X105074819Y-109571898D02*
X105074819Y-109762374D01*
X105074819Y-109762374D02*
X105027200Y-109857612D01*
X105027200Y-109857612D02*
X104979580Y-109905231D01*
X104979580Y-109905231D02*
X104884342Y-109952850D01*
X104884342Y-109952850D02*
X104693866Y-109952850D01*
X104693866Y-109952850D02*
X104598628Y-109905231D01*
X104598628Y-109905231D02*
X104551009Y-109857612D01*
X104551009Y-109857612D02*
X104503390Y-109762374D01*
X105074819Y-110381422D02*
X104074819Y-110381422D01*
X105074819Y-110952850D02*
X104503390Y-110524279D01*
X104074819Y-110952850D02*
X104646247Y-110381422D01*
X104979580Y-111381422D02*
X105027200Y-111429041D01*
X105027200Y-111429041D02*
X105074819Y-111381422D01*
X105074819Y-111381422D02*
X105027200Y-111333803D01*
X105027200Y-111333803D02*
X104979580Y-111381422D01*
X104979580Y-111381422D02*
X105074819Y-111381422D01*
X104455771Y-111381422D02*
X104503390Y-111429041D01*
X104503390Y-111429041D02*
X104551009Y-111381422D01*
X104551009Y-111381422D02*
X104503390Y-111333803D01*
X104503390Y-111333803D02*
X104455771Y-111381422D01*
X104455771Y-111381422D02*
X104551009Y-111381422D01*
X104074819Y-112809993D02*
X104074819Y-113000469D01*
X104074819Y-113000469D02*
X104122438Y-113095707D01*
X104122438Y-113095707D02*
X104217676Y-113190945D01*
X104217676Y-113190945D02*
X104408152Y-113238564D01*
X104408152Y-113238564D02*
X104741485Y-113238564D01*
X104741485Y-113238564D02*
X104931961Y-113190945D01*
X104931961Y-113190945D02*
X105027200Y-113095707D01*
X105027200Y-113095707D02*
X105074819Y-113000469D01*
X105074819Y-113000469D02*
X105074819Y-112809993D01*
X105074819Y-112809993D02*
X105027200Y-112714755D01*
X105027200Y-112714755D02*
X104931961Y-112619517D01*
X104931961Y-112619517D02*
X104741485Y-112571898D01*
X104741485Y-112571898D02*
X104408152Y-112571898D01*
X104408152Y-112571898D02*
X104217676Y-112619517D01*
X104217676Y-112619517D02*
X104122438Y-112714755D01*
X104122438Y-112714755D02*
X104074819Y-112809993D01*
X104408152Y-113667136D02*
X105408152Y-113667136D01*
X104455771Y-113667136D02*
X104408152Y-113762374D01*
X104408152Y-113762374D02*
X104408152Y-113952850D01*
X104408152Y-113952850D02*
X104455771Y-114048088D01*
X104455771Y-114048088D02*
X104503390Y-114095707D01*
X104503390Y-114095707D02*
X104598628Y-114143326D01*
X104598628Y-114143326D02*
X104884342Y-114143326D01*
X104884342Y-114143326D02*
X104979580Y-114095707D01*
X104979580Y-114095707D02*
X105027200Y-114048088D01*
X105027200Y-114048088D02*
X105074819Y-113952850D01*
X105074819Y-113952850D02*
X105074819Y-113762374D01*
X105074819Y-113762374D02*
X105027200Y-113667136D01*
X105027200Y-114952850D02*
X105074819Y-114857612D01*
X105074819Y-114857612D02*
X105074819Y-114667136D01*
X105074819Y-114667136D02*
X105027200Y-114571898D01*
X105027200Y-114571898D02*
X104931961Y-114524279D01*
X104931961Y-114524279D02*
X104551009Y-114524279D01*
X104551009Y-114524279D02*
X104455771Y-114571898D01*
X104455771Y-114571898D02*
X104408152Y-114667136D01*
X104408152Y-114667136D02*
X104408152Y-114857612D01*
X104408152Y-114857612D02*
X104455771Y-114952850D01*
X104455771Y-114952850D02*
X104551009Y-115000469D01*
X104551009Y-115000469D02*
X104646247Y-115000469D01*
X104646247Y-115000469D02*
X104741485Y-114524279D01*
X104408152Y-115429041D02*
X105074819Y-115429041D01*
X104503390Y-115429041D02*
X104455771Y-115476660D01*
X104455771Y-115476660D02*
X104408152Y-115571898D01*
X104408152Y-115571898D02*
X104408152Y-115714755D01*
X104408152Y-115714755D02*
X104455771Y-115809993D01*
X104455771Y-115809993D02*
X104551009Y-115857612D01*
X104551009Y-115857612D02*
X105074819Y-115857612D01*
X105027200Y-116381422D02*
X105074819Y-116381422D01*
X105074819Y-116381422D02*
X105170057Y-116333803D01*
X105170057Y-116333803D02*
X105217676Y-116286184D01*
X104170057Y-116762374D02*
X104122438Y-116809993D01*
X104122438Y-116809993D02*
X104074819Y-116905231D01*
X104074819Y-116905231D02*
X104074819Y-117143326D01*
X104074819Y-117143326D02*
X104122438Y-117238564D01*
X104122438Y-117238564D02*
X104170057Y-117286183D01*
X104170057Y-117286183D02*
X104265295Y-117333802D01*
X104265295Y-117333802D02*
X104360533Y-117333802D01*
X104360533Y-117333802D02*
X104503390Y-117286183D01*
X104503390Y-117286183D02*
X105074819Y-116714755D01*
X105074819Y-116714755D02*
X105074819Y-117333802D01*
X104693866Y-117762374D02*
X104693866Y-118524279D01*
X104074819Y-118905231D02*
X104074819Y-119524278D01*
X104074819Y-119524278D02*
X104455771Y-119190945D01*
X104455771Y-119190945D02*
X104455771Y-119333802D01*
X104455771Y-119333802D02*
X104503390Y-119429040D01*
X104503390Y-119429040D02*
X104551009Y-119476659D01*
X104551009Y-119476659D02*
X104646247Y-119524278D01*
X104646247Y-119524278D02*
X104884342Y-119524278D01*
X104884342Y-119524278D02*
X104979580Y-119476659D01*
X104979580Y-119476659D02*
X105027200Y-119429040D01*
X105027200Y-119429040D02*
X105074819Y-119333802D01*
X105074819Y-119333802D02*
X105074819Y-119048088D01*
X105074819Y-119048088D02*
X105027200Y-118952850D01*
X105027200Y-118952850D02*
X104979580Y-118905231D01*
X105780057Y-107476660D02*
X105732438Y-107524279D01*
X105732438Y-107524279D02*
X105684819Y-107619517D01*
X105684819Y-107619517D02*
X105684819Y-107857612D01*
X105684819Y-107857612D02*
X105732438Y-107952850D01*
X105732438Y-107952850D02*
X105780057Y-108000469D01*
X105780057Y-108000469D02*
X105875295Y-108048088D01*
X105875295Y-108048088D02*
X105970533Y-108048088D01*
X105970533Y-108048088D02*
X106113390Y-108000469D01*
X106113390Y-108000469D02*
X106684819Y-107429041D01*
X106684819Y-107429041D02*
X106684819Y-108048088D01*
X105684819Y-108952850D02*
X105684819Y-108476660D01*
X105684819Y-108476660D02*
X106161009Y-108429041D01*
X106161009Y-108429041D02*
X106113390Y-108476660D01*
X106113390Y-108476660D02*
X106065771Y-108571898D01*
X106065771Y-108571898D02*
X106065771Y-108809993D01*
X106065771Y-108809993D02*
X106113390Y-108905231D01*
X106113390Y-108905231D02*
X106161009Y-108952850D01*
X106161009Y-108952850D02*
X106256247Y-109000469D01*
X106256247Y-109000469D02*
X106494342Y-109000469D01*
X106494342Y-109000469D02*
X106589580Y-108952850D01*
X106589580Y-108952850D02*
X106637200Y-108905231D01*
X106637200Y-108905231D02*
X106684819Y-108809993D01*
X106684819Y-108809993D02*
X106684819Y-108571898D01*
X106684819Y-108571898D02*
X106637200Y-108476660D01*
X106637200Y-108476660D02*
X106589580Y-108429041D01*
X105684819Y-109857612D02*
X105684819Y-109667136D01*
X105684819Y-109667136D02*
X105732438Y-109571898D01*
X105732438Y-109571898D02*
X105780057Y-109524279D01*
X105780057Y-109524279D02*
X105922914Y-109429041D01*
X105922914Y-109429041D02*
X106113390Y-109381422D01*
X106113390Y-109381422D02*
X106494342Y-109381422D01*
X106494342Y-109381422D02*
X106589580Y-109429041D01*
X106589580Y-109429041D02*
X106637200Y-109476660D01*
X106637200Y-109476660D02*
X106684819Y-109571898D01*
X106684819Y-109571898D02*
X106684819Y-109762374D01*
X106684819Y-109762374D02*
X106637200Y-109857612D01*
X106637200Y-109857612D02*
X106589580Y-109905231D01*
X106589580Y-109905231D02*
X106494342Y-109952850D01*
X106494342Y-109952850D02*
X106256247Y-109952850D01*
X106256247Y-109952850D02*
X106161009Y-109905231D01*
X106161009Y-109905231D02*
X106113390Y-109857612D01*
X106113390Y-109857612D02*
X106065771Y-109762374D01*
X106065771Y-109762374D02*
X106065771Y-109571898D01*
X106065771Y-109571898D02*
X106113390Y-109476660D01*
X106113390Y-109476660D02*
X106161009Y-109429041D01*
X106161009Y-109429041D02*
X106256247Y-109381422D01*
X106684819Y-110381422D02*
X105684819Y-110381422D01*
X106684819Y-110952850D02*
X106113390Y-110524279D01*
X105684819Y-110952850D02*
X106256247Y-110381422D01*
X106589580Y-111381422D02*
X106637200Y-111429041D01*
X106637200Y-111429041D02*
X106684819Y-111381422D01*
X106684819Y-111381422D02*
X106637200Y-111333803D01*
X106637200Y-111333803D02*
X106589580Y-111381422D01*
X106589580Y-111381422D02*
X106684819Y-111381422D01*
X106065771Y-111381422D02*
X106113390Y-111429041D01*
X106113390Y-111429041D02*
X106161009Y-111381422D01*
X106161009Y-111381422D02*
X106113390Y-111333803D01*
X106113390Y-111333803D02*
X106065771Y-111381422D01*
X106065771Y-111381422D02*
X106161009Y-111381422D01*
X106589580Y-113190945D02*
X106637200Y-113143326D01*
X106637200Y-113143326D02*
X106684819Y-113000469D01*
X106684819Y-113000469D02*
X106684819Y-112905231D01*
X106684819Y-112905231D02*
X106637200Y-112762374D01*
X106637200Y-112762374D02*
X106541961Y-112667136D01*
X106541961Y-112667136D02*
X106446723Y-112619517D01*
X106446723Y-112619517D02*
X106256247Y-112571898D01*
X106256247Y-112571898D02*
X106113390Y-112571898D01*
X106113390Y-112571898D02*
X105922914Y-112619517D01*
X105922914Y-112619517D02*
X105827676Y-112667136D01*
X105827676Y-112667136D02*
X105732438Y-112762374D01*
X105732438Y-112762374D02*
X105684819Y-112905231D01*
X105684819Y-112905231D02*
X105684819Y-113000469D01*
X105684819Y-113000469D02*
X105732438Y-113143326D01*
X105732438Y-113143326D02*
X105780057Y-113190945D01*
X106684819Y-113762374D02*
X106637200Y-113667136D01*
X106637200Y-113667136D02*
X106541961Y-113619517D01*
X106541961Y-113619517D02*
X105684819Y-113619517D01*
X106684819Y-114286184D02*
X106637200Y-114190946D01*
X106637200Y-114190946D02*
X106589580Y-114143327D01*
X106589580Y-114143327D02*
X106494342Y-114095708D01*
X106494342Y-114095708D02*
X106208628Y-114095708D01*
X106208628Y-114095708D02*
X106113390Y-114143327D01*
X106113390Y-114143327D02*
X106065771Y-114190946D01*
X106065771Y-114190946D02*
X106018152Y-114286184D01*
X106018152Y-114286184D02*
X106018152Y-114429041D01*
X106018152Y-114429041D02*
X106065771Y-114524279D01*
X106065771Y-114524279D02*
X106113390Y-114571898D01*
X106113390Y-114571898D02*
X106208628Y-114619517D01*
X106208628Y-114619517D02*
X106494342Y-114619517D01*
X106494342Y-114619517D02*
X106589580Y-114571898D01*
X106589580Y-114571898D02*
X106637200Y-114524279D01*
X106637200Y-114524279D02*
X106684819Y-114429041D01*
X106684819Y-114429041D02*
X106684819Y-114286184D01*
X106637200Y-115000470D02*
X106684819Y-115095708D01*
X106684819Y-115095708D02*
X106684819Y-115286184D01*
X106684819Y-115286184D02*
X106637200Y-115381422D01*
X106637200Y-115381422D02*
X106541961Y-115429041D01*
X106541961Y-115429041D02*
X106494342Y-115429041D01*
X106494342Y-115429041D02*
X106399104Y-115381422D01*
X106399104Y-115381422D02*
X106351485Y-115286184D01*
X106351485Y-115286184D02*
X106351485Y-115143327D01*
X106351485Y-115143327D02*
X106303866Y-115048089D01*
X106303866Y-115048089D02*
X106208628Y-115000470D01*
X106208628Y-115000470D02*
X106161009Y-115000470D01*
X106161009Y-115000470D02*
X106065771Y-115048089D01*
X106065771Y-115048089D02*
X106018152Y-115143327D01*
X106018152Y-115143327D02*
X106018152Y-115286184D01*
X106018152Y-115286184D02*
X106065771Y-115381422D01*
X106637200Y-116238565D02*
X106684819Y-116143327D01*
X106684819Y-116143327D02*
X106684819Y-115952851D01*
X106684819Y-115952851D02*
X106637200Y-115857613D01*
X106637200Y-115857613D02*
X106541961Y-115809994D01*
X106541961Y-115809994D02*
X106161009Y-115809994D01*
X106161009Y-115809994D02*
X106065771Y-115857613D01*
X106065771Y-115857613D02*
X106018152Y-115952851D01*
X106018152Y-115952851D02*
X106018152Y-116143327D01*
X106018152Y-116143327D02*
X106065771Y-116238565D01*
X106065771Y-116238565D02*
X106161009Y-116286184D01*
X106161009Y-116286184D02*
X106256247Y-116286184D01*
X106256247Y-116286184D02*
X106351485Y-115809994D01*
X106637200Y-116762375D02*
X106684819Y-116762375D01*
X106684819Y-116762375D02*
X106780057Y-116714756D01*
X106780057Y-116714756D02*
X106827676Y-116667137D01*
X105780057Y-117143327D02*
X105732438Y-117190946D01*
X105732438Y-117190946D02*
X105684819Y-117286184D01*
X105684819Y-117286184D02*
X105684819Y-117524279D01*
X105684819Y-117524279D02*
X105732438Y-117619517D01*
X105732438Y-117619517D02*
X105780057Y-117667136D01*
X105780057Y-117667136D02*
X105875295Y-117714755D01*
X105875295Y-117714755D02*
X105970533Y-117714755D01*
X105970533Y-117714755D02*
X106113390Y-117667136D01*
X106113390Y-117667136D02*
X106684819Y-117095708D01*
X106684819Y-117095708D02*
X106684819Y-117714755D01*
X106303866Y-118143327D02*
X106303866Y-118905232D01*
X105684819Y-119286184D02*
X105684819Y-119905231D01*
X105684819Y-119905231D02*
X106065771Y-119571898D01*
X106065771Y-119571898D02*
X106065771Y-119714755D01*
X106065771Y-119714755D02*
X106113390Y-119809993D01*
X106113390Y-119809993D02*
X106161009Y-119857612D01*
X106161009Y-119857612D02*
X106256247Y-119905231D01*
X106256247Y-119905231D02*
X106494342Y-119905231D01*
X106494342Y-119905231D02*
X106589580Y-119857612D01*
X106589580Y-119857612D02*
X106637200Y-119809993D01*
X106637200Y-119809993D02*
X106684819Y-119714755D01*
X106684819Y-119714755D02*
X106684819Y-119429041D01*
X106684819Y-119429041D02*
X106637200Y-119333803D01*
X106637200Y-119333803D02*
X106589580Y-119286184D01*
X107294819Y-108000469D02*
X107294819Y-107524279D01*
X107294819Y-107524279D02*
X107771009Y-107476660D01*
X107771009Y-107476660D02*
X107723390Y-107524279D01*
X107723390Y-107524279D02*
X107675771Y-107619517D01*
X107675771Y-107619517D02*
X107675771Y-107857612D01*
X107675771Y-107857612D02*
X107723390Y-107952850D01*
X107723390Y-107952850D02*
X107771009Y-108000469D01*
X107771009Y-108000469D02*
X107866247Y-108048088D01*
X107866247Y-108048088D02*
X108104342Y-108048088D01*
X108104342Y-108048088D02*
X108199580Y-108000469D01*
X108199580Y-108000469D02*
X108247200Y-107952850D01*
X108247200Y-107952850D02*
X108294819Y-107857612D01*
X108294819Y-107857612D02*
X108294819Y-107619517D01*
X108294819Y-107619517D02*
X108247200Y-107524279D01*
X108247200Y-107524279D02*
X108199580Y-107476660D01*
X108294819Y-109000469D02*
X108294819Y-108429041D01*
X108294819Y-108714755D02*
X107294819Y-108714755D01*
X107294819Y-108714755D02*
X107437676Y-108619517D01*
X107437676Y-108619517D02*
X107532914Y-108524279D01*
X107532914Y-108524279D02*
X107580533Y-108429041D01*
X107390057Y-109381422D02*
X107342438Y-109429041D01*
X107342438Y-109429041D02*
X107294819Y-109524279D01*
X107294819Y-109524279D02*
X107294819Y-109762374D01*
X107294819Y-109762374D02*
X107342438Y-109857612D01*
X107342438Y-109857612D02*
X107390057Y-109905231D01*
X107390057Y-109905231D02*
X107485295Y-109952850D01*
X107485295Y-109952850D02*
X107580533Y-109952850D01*
X107580533Y-109952850D02*
X107723390Y-109905231D01*
X107723390Y-109905231D02*
X108294819Y-109333803D01*
X108294819Y-109333803D02*
X108294819Y-109952850D01*
X108294819Y-110381422D02*
X107294819Y-110381422D01*
X108294819Y-110952850D02*
X107723390Y-110524279D01*
X107294819Y-110952850D02*
X107866247Y-110381422D01*
X108199580Y-111381422D02*
X108247200Y-111429041D01*
X108247200Y-111429041D02*
X108294819Y-111381422D01*
X108294819Y-111381422D02*
X108247200Y-111333803D01*
X108247200Y-111333803D02*
X108199580Y-111381422D01*
X108199580Y-111381422D02*
X108294819Y-111381422D01*
X107675771Y-111381422D02*
X107723390Y-111429041D01*
X107723390Y-111429041D02*
X107771009Y-111381422D01*
X107771009Y-111381422D02*
X107723390Y-111333803D01*
X107723390Y-111333803D02*
X107675771Y-111381422D01*
X107675771Y-111381422D02*
X107771009Y-111381422D01*
X108199580Y-113190945D02*
X108247200Y-113143326D01*
X108247200Y-113143326D02*
X108294819Y-113000469D01*
X108294819Y-113000469D02*
X108294819Y-112905231D01*
X108294819Y-112905231D02*
X108247200Y-112762374D01*
X108247200Y-112762374D02*
X108151961Y-112667136D01*
X108151961Y-112667136D02*
X108056723Y-112619517D01*
X108056723Y-112619517D02*
X107866247Y-112571898D01*
X107866247Y-112571898D02*
X107723390Y-112571898D01*
X107723390Y-112571898D02*
X107532914Y-112619517D01*
X107532914Y-112619517D02*
X107437676Y-112667136D01*
X107437676Y-112667136D02*
X107342438Y-112762374D01*
X107342438Y-112762374D02*
X107294819Y-112905231D01*
X107294819Y-112905231D02*
X107294819Y-113000469D01*
X107294819Y-113000469D02*
X107342438Y-113143326D01*
X107342438Y-113143326D02*
X107390057Y-113190945D01*
X108294819Y-113762374D02*
X108247200Y-113667136D01*
X108247200Y-113667136D02*
X108151961Y-113619517D01*
X108151961Y-113619517D02*
X107294819Y-113619517D01*
X108294819Y-114286184D02*
X108247200Y-114190946D01*
X108247200Y-114190946D02*
X108199580Y-114143327D01*
X108199580Y-114143327D02*
X108104342Y-114095708D01*
X108104342Y-114095708D02*
X107818628Y-114095708D01*
X107818628Y-114095708D02*
X107723390Y-114143327D01*
X107723390Y-114143327D02*
X107675771Y-114190946D01*
X107675771Y-114190946D02*
X107628152Y-114286184D01*
X107628152Y-114286184D02*
X107628152Y-114429041D01*
X107628152Y-114429041D02*
X107675771Y-114524279D01*
X107675771Y-114524279D02*
X107723390Y-114571898D01*
X107723390Y-114571898D02*
X107818628Y-114619517D01*
X107818628Y-114619517D02*
X108104342Y-114619517D01*
X108104342Y-114619517D02*
X108199580Y-114571898D01*
X108199580Y-114571898D02*
X108247200Y-114524279D01*
X108247200Y-114524279D02*
X108294819Y-114429041D01*
X108294819Y-114429041D02*
X108294819Y-114286184D01*
X108247200Y-115000470D02*
X108294819Y-115095708D01*
X108294819Y-115095708D02*
X108294819Y-115286184D01*
X108294819Y-115286184D02*
X108247200Y-115381422D01*
X108247200Y-115381422D02*
X108151961Y-115429041D01*
X108151961Y-115429041D02*
X108104342Y-115429041D01*
X108104342Y-115429041D02*
X108009104Y-115381422D01*
X108009104Y-115381422D02*
X107961485Y-115286184D01*
X107961485Y-115286184D02*
X107961485Y-115143327D01*
X107961485Y-115143327D02*
X107913866Y-115048089D01*
X107913866Y-115048089D02*
X107818628Y-115000470D01*
X107818628Y-115000470D02*
X107771009Y-115000470D01*
X107771009Y-115000470D02*
X107675771Y-115048089D01*
X107675771Y-115048089D02*
X107628152Y-115143327D01*
X107628152Y-115143327D02*
X107628152Y-115286184D01*
X107628152Y-115286184D02*
X107675771Y-115381422D01*
X108247200Y-116238565D02*
X108294819Y-116143327D01*
X108294819Y-116143327D02*
X108294819Y-115952851D01*
X108294819Y-115952851D02*
X108247200Y-115857613D01*
X108247200Y-115857613D02*
X108151961Y-115809994D01*
X108151961Y-115809994D02*
X107771009Y-115809994D01*
X107771009Y-115809994D02*
X107675771Y-115857613D01*
X107675771Y-115857613D02*
X107628152Y-115952851D01*
X107628152Y-115952851D02*
X107628152Y-116143327D01*
X107628152Y-116143327D02*
X107675771Y-116238565D01*
X107675771Y-116238565D02*
X107771009Y-116286184D01*
X107771009Y-116286184D02*
X107866247Y-116286184D01*
X107866247Y-116286184D02*
X107961485Y-115809994D01*
X108247200Y-116762375D02*
X108294819Y-116762375D01*
X108294819Y-116762375D02*
X108390057Y-116714756D01*
X108390057Y-116714756D02*
X108437676Y-116667137D01*
X108294819Y-117714755D02*
X108294819Y-117143327D01*
X108294819Y-117429041D02*
X107294819Y-117429041D01*
X107294819Y-117429041D02*
X107437676Y-117333803D01*
X107437676Y-117333803D02*
X107532914Y-117238565D01*
X107532914Y-117238565D02*
X107580533Y-117143327D01*
X107913866Y-118143327D02*
X107913866Y-118905232D01*
X107390057Y-119333803D02*
X107342438Y-119381422D01*
X107342438Y-119381422D02*
X107294819Y-119476660D01*
X107294819Y-119476660D02*
X107294819Y-119714755D01*
X107294819Y-119714755D02*
X107342438Y-119809993D01*
X107342438Y-119809993D02*
X107390057Y-119857612D01*
X107390057Y-119857612D02*
X107485295Y-119905231D01*
X107485295Y-119905231D02*
X107580533Y-119905231D01*
X107580533Y-119905231D02*
X107723390Y-119857612D01*
X107723390Y-119857612D02*
X108294819Y-119286184D01*
X108294819Y-119286184D02*
X108294819Y-119905231D01*
X101600000Y-122237500D02*
X109220000Y-122237500D01*
X109220000Y-106362500D01*
X101600000Y-106362500D01*
X101600000Y-122237500D01*
X103594819Y-103466666D02*
X104309104Y-103466666D01*
X104309104Y-103466666D02*
X104451961Y-103419047D01*
X104451961Y-103419047D02*
X104547200Y-103323809D01*
X104547200Y-103323809D02*
X104594819Y-103180952D01*
X104594819Y-103180952D02*
X104594819Y-103085714D01*
X104594819Y-103942857D02*
X103594819Y-103942857D01*
X103594819Y-103942857D02*
X103594819Y-104323809D01*
X103594819Y-104323809D02*
X103642438Y-104419047D01*
X103642438Y-104419047D02*
X103690057Y-104466666D01*
X103690057Y-104466666D02*
X103785295Y-104514285D01*
X103785295Y-104514285D02*
X103928152Y-104514285D01*
X103928152Y-104514285D02*
X104023390Y-104466666D01*
X104023390Y-104466666D02*
X104071009Y-104419047D01*
X104071009Y-104419047D02*
X104118628Y-104323809D01*
X104118628Y-104323809D02*
X104118628Y-103942857D01*
X104594819Y-105466666D02*
X104594819Y-104895238D01*
X104594819Y-105180952D02*
X103594819Y-105180952D01*
X103594819Y-105180952D02*
X103737676Y-105085714D01*
X103737676Y-105085714D02*
X103832914Y-104990476D01*
X103832914Y-104990476D02*
X103880533Y-104895238D01*
X109944819Y-104721666D02*
X110659104Y-104721666D01*
X110659104Y-104721666D02*
X110801961Y-104674047D01*
X110801961Y-104674047D02*
X110897200Y-104578809D01*
X110897200Y-104578809D02*
X110944819Y-104435952D01*
X110944819Y-104435952D02*
X110944819Y-104340714D01*
X110944819Y-105197857D02*
X109944819Y-105197857D01*
X109944819Y-105197857D02*
X109944819Y-105578809D01*
X109944819Y-105578809D02*
X109992438Y-105674047D01*
X109992438Y-105674047D02*
X110040057Y-105721666D01*
X110040057Y-105721666D02*
X110135295Y-105769285D01*
X110135295Y-105769285D02*
X110278152Y-105769285D01*
X110278152Y-105769285D02*
X110373390Y-105721666D01*
X110373390Y-105721666D02*
X110421009Y-105674047D01*
X110421009Y-105674047D02*
X110468628Y-105578809D01*
X110468628Y-105578809D02*
X110468628Y-105197857D01*
X110040057Y-106150238D02*
X109992438Y-106197857D01*
X109992438Y-106197857D02*
X109944819Y-106293095D01*
X109944819Y-106293095D02*
X109944819Y-106531190D01*
X109944819Y-106531190D02*
X109992438Y-106626428D01*
X109992438Y-106626428D02*
X110040057Y-106674047D01*
X110040057Y-106674047D02*
X110135295Y-106721666D01*
X110135295Y-106721666D02*
X110230533Y-106721666D01*
X110230533Y-106721666D02*
X110373390Y-106674047D01*
X110373390Y-106674047D02*
X110944819Y-106102619D01*
X110944819Y-106102619D02*
X110944819Y-106721666D01*
X112849819Y-108470714D02*
X112849819Y-107899286D01*
X112849819Y-108185000D02*
X111849819Y-108185000D01*
X111849819Y-108185000D02*
X111992676Y-108089762D01*
X111992676Y-108089762D02*
X112087914Y-107994524D01*
X112087914Y-107994524D02*
X112135533Y-107899286D01*
X111849819Y-102651667D02*
X111849819Y-103270714D01*
X111849819Y-103270714D02*
X112230771Y-102937381D01*
X112230771Y-102937381D02*
X112230771Y-103080238D01*
X112230771Y-103080238D02*
X112278390Y-103175476D01*
X112278390Y-103175476D02*
X112326009Y-103223095D01*
X112326009Y-103223095D02*
X112421247Y-103270714D01*
X112421247Y-103270714D02*
X112659342Y-103270714D01*
X112659342Y-103270714D02*
X112754580Y-103223095D01*
X112754580Y-103223095D02*
X112802200Y-103175476D01*
X112802200Y-103175476D02*
X112849819Y-103080238D01*
X112849819Y-103080238D02*
X112849819Y-102794524D01*
X112849819Y-102794524D02*
X112802200Y-102699286D01*
X112802200Y-102699286D02*
X112754580Y-102651667D01*
D12*
%TO.C,JP1*%
X101235000Y-105700000D02*
X103235000Y-105700000D01*
X103235000Y-105700000D02*
X103235000Y-102900000D01*
X101235000Y-102900000D02*
X101235000Y-105700000D01*
X103235000Y-102900000D02*
X101235000Y-102900000D01*
%TO.C,JP2*%
X111395000Y-107635000D02*
X113395000Y-107635000D01*
X113395000Y-107635000D02*
X113395000Y-103535000D01*
X111395000Y-103535000D02*
X111395000Y-107635000D01*
X113395000Y-103535000D02*
X111395000Y-103535000D01*
%TD*%
M02*
